<svg xmlns="http://www.w3.org/2000/svg" xmlns:xlink="http://www.w3.org/1999/xlink" version="1.1" preserveAspectRatio="xMinYMin meet" viewBox="0 0 720 504">
  <style>#tick-labels, #y-title {
    	font-family: Arial;
}
  #data-line {
    	stroke-linejoin: round;
    	stroke-width:3;
  }
  #tick-labels {
    	font-size: 12.00pt; 
  }
  #y-title {
    	font-size: 14.00pt; 
  }</style>
  <text x="10" y="50" text-anchor="begin" id="y-title">Catch per unit effort</text>
  <g id="view-1-2">
    <defs>
      <clipPath id="mask-1-2">
        <rect x="36" y="57.6" height="410.4" width="648"/>
      </clipPath>
    </defs>
    <g id="axes" fill="none" stroke="#000000" stroke-width="1">
      <rect x="36" y="57.6" height="410.4" width="648" id="axes-box"/>
    </g>
    <g stroke="rgb(153,0,0)" fill="none" clip-path="url(#mask-1-2)">
      <path d="M36,328.596 64.174,348.056 92.348,309.678 120.522,366.702 148.696,337.906 176.87,353.604 205.043,177.886 233.217,226.166 261.391,296.521 289.565,230.792 317.739,114.322 345.913,223.676 374.087,115.418 402.261,154.432 430.435,183.429 458.609,109.411 486.783,141.759 514.957,231.022 543.13,251.714 571.304,225.647 599.478,195.614 627.652,200.611 655.826,242.922 684,299.001" id="data-line"/>
    </g>
  </g>
  <g id="side-1">
    <g id="axis-side-1">
      <g id="tick-labels" stroke="none" fill="#000000" text-anchor="middle">
        <text x="148.696" y="468" dy="1.0em">1995</text>
        <text x="289.565" y="468" dy="1.0em">2000</text>
        <text x="430.435" y="468" dy="1.0em">2005</text>
        <text x="571.304" y="468" dy="1.0em">2010</text>
      </g>
      <g id="ticks">
        <path d="M 148.696,468 v -5"/>
        <path d="M 289.565,468 v -5"/>
        <path d="M 430.435,468 v -5"/>
        <path d="M 571.304,468 v -5"/>
      </g>
    </g>
  </g>
  <g id="side-2">
    <g id="axis-side-2">
      <g id="tick-labels" stroke="none" fill="#000000" text-anchor="end">
        <text x="36" y="468" dx="-0.33em" dy="0.33em">0</text>
        <text x="36" y="354" dx="-0.33em" dy="0.33em">5</text>
        <text x="36" y="240" dx="-0.33em" dy="0.33em">10</text>
        <text x="36" y="126" dx="-0.33em" dy="0.33em">15</text>
      </g>
      <g id="ticks">
        <path d="M 36,468 h 5"/>
        <path d="M 36,354 h 5"/>
        <path d="M 36,240 h 5"/>
        <path d="M 36,126 h 5"/>
      </g>
    </g>
  </g>
</svg>