
<svg version="1.1" xmlns:svg="http://www.w3.org/2000/svg" xmlns="http://www.w3.org/2000/svg" width="800" height="540" onload="init(evt)" onmousemove="drag(evt)" onmouseup="deselect()">
        <style>
        .point1{
            fill: #28A86B;
        }
        .point2{
            fill: #6495ED;
        }
		text {
		  font-size: 20px;
		  cursor: default;
		  font-family: Tahoma, Geneva, sans-serif;
		}
        .control_point{
            fill: #FFF;
            opacity: 0;
            stroke: #888;
            stroke-width: 2;
            cursor: pointer;
        }
		.moveable{
			cursor: move;	
		}
		.locked {
			cursor: default;	
		}
        .control_point:hover{
            opacity: 0.5;
        }
        .invisible{
            pointer-events: none;
        }
    </style>
    <script type="text/ecmascript"><![CDATA[
        var svgDoc;
        var selectedPoint = 0;
        var dx = 0;
        var dy = 0;
        
        var example_shape;
        var coords = [0, 0, 400, 300, 400, 200, 400, 100];
		var locked = [0, 0, 220, 220, 220, 50, 220, 420];
    	function lockPosition(evt, point){			
			evt.target.removeAttribute('onmousedown');
			evt.target.removeAttribute('onmouseup');
			var x = locked[point*2];
			var y = locked[point*2+1];
			var xo = coords[point*2];
			var yo = coords[point*2+1];
			if (Math.abs(yo-y) < 50){
				document.getElementById(point).setAttribute('fill','green');
			} else {
				if (yo < y){
					 document.getElementById(point).setAttribute('fill','rgb(200,60,50)');
				 } else {
					 document.getElementById(point).setAttribute('fill','rgb(28,105,180)');
				 }
			}
			sweepMove(evt.target.parentNode, x, y, xo, yo);
			evt.target.parentNode.setAttribute('class','locked');
		}
        function init(evt) {
            if ( window.svgDocument == null ) {
                svgDoc = evt.target.ownerDocument;
            }  
            example_shape = svgDoc.getElementById('example_shape');
			text_var = svgDoc.getElementById('temperature-text');
        };
        
        function selectElement(evt, point){
            selectedPoint = point;
            control_point = evt.target.parentNode;
            dx = coords[selectedPoint*2] - evt.clientX;
            dy = coords[selectedPoint*2 + 1] - evt.clientY;
        };
        
        function drag(evt){
            if (selectedPoint === 0) { return; }
            var x = evt.clientX + dx;
            var y = evt.clientY + dy;
			if (y > 450){
				y = 450;
			}
			if (y < 0){
				y = 0;
			}
			if (x > 700){
				x = 700;
			}
            coords[selectedPoint*2] = x;
            coords[selectedPoint*2 + 1] = y;
			var temp = 80-(y/10);
			text_var.firstChild.data = "Temperature: " + temp + " °F";
            
            control_point.setAttributeNS(null, "transform", "translate(" + x + "," + y + ")");
        };
        
		function sweepMove(evt, x, y, xo, yo){
			var i = 0;
			var numSteps = 20;
		    var sweepCount = setInterval(function () {   
		    	if (i < numSteps){
				var xnew = (x*(i+1)+xo*(numSteps-1-i))/numSteps;
				var ynew = (y*(i+1)+yo*(numSteps-1-i))/numSteps;
				evt.setAttributeNS(null, "transform", "translate(" + xnew + "," + ynew + ")");
				i++
				} else {
                   clearInterval(sweepCount);
				}}, 20);}
		
        function deselect(){
            selectedPoint = 0;
			text_var.firstChild.data = " ";
        }
    
    ]]> </script>
	<defs>
	    <linearGradient id="temperature" x1="0%" y1="0%" x2="0%" y2="100%">
	      <stop offset="0%" style="stop-color:rgb(200,60,50);stop-opacity:1" />
	      <stop offset="50%" style="stop-color:rgb(240,230,125);stop-opacity:1" />
	      <stop offset="100%" style="stop-color:rgb(28,105,180);stop-opacity:1"/>
	    </linearGradient>
	  </defs>
	
  	<g transform="translate(15,520)">
  		<text id='temperature-text'> </text>
  	</g>
	
	<g id="thermometer">
		<path d="M50 50 v350 a50,50 0 1,0 60,0 v-350 a30,30 0 1,0 -60,0" fill="url(#temperature)" stroke="black"/>
	</g>
	
    <g transform="translate(400,100)" class='moveable'>
        <circle class="control_point" cx="0" cy="0" r="10"/>
		<path d="m -76.432423,3.646062 c 0,-4.4520503 1.035264,-5.1940586 2.24307,-6.4925732 1.207808,-1.2985146 13.458421,-8.1620918 18.117106,-10.0171118 4.658684,-1.855021 11.215351,-5.008557 17.254386,-6.121569 6.039034,-1.113013 21.05035,-4.266549 30.5402626,-4.266549 9.4899123,0 24.5012284,0.371005 24.5012284,0.371005 0,0 0.172543,-3.52454 6.211579,-10.573619 6.039035,-7.049079 10.525175,-11.130125 10.525175,-11.130125 0,0 0.862719,-0.742009 1.725439,-0.742009 0.862719,0 2.415614,1.113013 3.105789,1.855021 0.690175,0.742008 5.176315,7.04908 6.384123,9.275104 1.207807,2.226025 4.313596,6.307072 4.48614,7.420084 0.172544,1.113013 2.24307,2.040523 1.035264,3.524539 -1.207808,1.484017 -4.831229,3.52454 -4.831229,3.52454 0,0 7.074298,0.185503 11.905526,0.92751 4.187453,0.643133 22.258158,5.379561 22.258158,5.379561 0,0 2.24307,-1.669519 3.968509,-2.782531 1.725439,-1.113013 3.623421,-1.113013 4.141053,-1.113013 0.517631,0 2.24307,1.113013 2.24307,1.113013 l -0.517632,3.153535 c 0,0 -0.690176,-0.185502 -0.172543,0.927511 0.517631,1.113012 1.552894,0.92751 1.552894,0.92751 l 8.454645,0.92751 5.52141,0 11.56044,-11.68663 c 0,0 1.38035,-3.339038 8.79974,-7.420085 7.41937,-4.081045 11.21534,-5.194057 11.21534,-5.194057 l 1.38036,0.371003 c 0,0 1.89798,4.081046 -0.17255,9.831611 -2.07053,5.750565 -6.90175,15.7676772 -7.59193,16.5096855 -0.69018,0.7420083 -1.89799,2.9680334 -2.41561,4.8230542 -0.51763,1.8550209 0,4.0810459 0.86272,5.9360663 0.86271,1.855021 1.55289,5.936067 3.62342,10.202615 2.07053,4.266548 3.79596,5.750565 3.96851,7.420084 0.17254,1.669518 1.03525,5.008556 0.17254,5.565062 -0.86272,0.556507 -3.79596,0.556507 -5.17632,0 -1.38034,-0.556506 -9.31736,-4.081046 -13.28587,-7.605586 -3.96851,-3.52454 -10.35264,-8.347593 -11.3879,-9.275104 -1.03526,-0.92751 -2.93324,-1.669519 -2.93324,-1.669519 0,0 -7.0743,0.185503 -8.28211,0.556507 -1.207805,0.371004 -1.552893,1.855021 -1.552893,1.855021 0,0 0.517631,4.452049 0.517631,6.863576 0,2.411527 -0.690175,8.718599 -1.035263,9.646109 -0.345088,0.927511 -0.690175,2.968033 -2.24307,3.153536 -1.552894,0.185502 -3.795965,0.742008 -5.866491,0.185502 -2.070526,-0.556507 -6.556667,-2.968034 -8.282105,-4.081046 -1.725439,-1.113013 -7.591931,-5.565063 -7.591931,-5.565063 l 0,-1.113012 c 0,0 -3.968508,1.298514 -5.693946,1.484017 -1.725439,0.185502 -14.321141,0.556505 -14.321141,0.556505 0,0 -0.345087,1.669519 0,2.968034 0.345088,1.298514 1.380351,5.936067 1.725439,7.420084 0.345087,1.484016 0.862719,2.597029 0.517631,3.710041 -0.345087,1.113013 -4.658684,0.556507 -4.658684,0.556507 0,0 0.345088,1.484016 -2.760701,-1.298516 -3.10579,-2.78253 -11.387896,-7.791086 -11.732983,-9.089602 -0.345088,-1.298514 -1.207807,-2.411526 -1.207807,-2.411526 0,0 -13.285878,1.855021 -17.081842,1.855021 -3.795965,0 -20.5327192,-0.371005 -21.5679824,-0.556507 -1.0352634,-0.185502 -1.2078075,0.92751 -1.2078075,0.92751 0,0 1.2078075,2.226026 1.2078075,4.452051 l 0,4.266548 -2.4156136,0.185502 c 0,0 -1.552895,0.185501 -2.760702,-0.371005 -1.207807,-0.556506 -5.521403,-3.52454 -9.489912,-7.976589 -3.968509,-4.45205 -4.831228,-5.750564 -4.831228,-5.750564 0,0 -10.007544,-0.371005 -20.360176,-2.411528 -10.352632,-2.040523 -19.67,-3.710041 -21.740526,-5.194058 -2.070526,-1.484017 -5.693948,-2.226025 -6.211579,-4.45205 -0.517631,-2.226025 -0.345088,-4.266548 -0.345088,-4.266548 z" fill="white" stroke='#01b29F' stroke-width='3' id='3'/>
		<text dy='0.33em' text-anchor='middle'>Lake Trout</text>
		<path d="m -76.432423,3.646062 c 0,-4.4520503 1.035264,-5.1940586 2.24307,-6.4925732 1.207808,-1.2985146 13.458421,-8.1620918 18.117106,-10.0171118 4.658684,-1.855021 11.215351,-5.008557 17.254386,-6.121569 6.039034,-1.113013 21.05035,-4.266549 30.5402626,-4.266549 9.4899123,0 24.5012284,0.371005 24.5012284,0.371005 0,0 0.172543,-3.52454 6.211579,-10.573619 6.039035,-7.049079 10.525175,-11.130125 10.525175,-11.130125 0,0 0.862719,-0.742009 1.725439,-0.742009 0.862719,0 2.415614,1.113013 3.105789,1.855021 0.690175,0.742008 5.176315,7.04908 6.384123,9.275104 1.207807,2.226025 4.313596,6.307072 4.48614,7.420084 0.172544,1.113013 2.24307,2.040523 1.035264,3.524539 -1.207808,1.484017 -4.831229,3.52454 -4.831229,3.52454 0,0 7.074298,0.185503 11.905526,0.92751 4.187453,0.643133 22.258158,5.379561 22.258158,5.379561 0,0 2.24307,-1.669519 3.968509,-2.782531 1.725439,-1.113013 3.623421,-1.113013 4.141053,-1.113013 0.517631,0 2.24307,1.113013 2.24307,1.113013 l -0.517632,3.153535 c 0,0 -0.690176,-0.185502 -0.172543,0.927511 0.517631,1.113012 1.552894,0.92751 1.552894,0.92751 l 8.454645,0.92751 5.52141,0 11.56044,-11.68663 c 0,0 1.38035,-3.339038 8.79974,-7.420085 7.41937,-4.081045 11.21534,-5.194057 11.21534,-5.194057 l 1.38036,0.371003 c 0,0 1.89798,4.081046 -0.17255,9.831611 -2.07053,5.750565 -6.90175,15.7676772 -7.59193,16.5096855 -0.69018,0.7420083 -1.89799,2.9680334 -2.41561,4.8230542 -0.51763,1.8550209 0,4.0810459 0.86272,5.9360663 0.86271,1.855021 1.55289,5.936067 3.62342,10.202615 2.07053,4.266548 3.79596,5.750565 3.96851,7.420084 0.17254,1.669518 1.03525,5.008556 0.17254,5.565062 -0.86272,0.556507 -3.79596,0.556507 -5.17632,0 -1.38034,-0.556506 -9.31736,-4.081046 -13.28587,-7.605586 -3.96851,-3.52454 -10.35264,-8.347593 -11.3879,-9.275104 -1.03526,-0.92751 -2.93324,-1.669519 -2.93324,-1.669519 0,0 -7.0743,0.185503 -8.28211,0.556507 -1.207805,0.371004 -1.552893,1.855021 -1.552893,1.855021 0,0 0.517631,4.452049 0.517631,6.863576 0,2.411527 -0.690175,8.718599 -1.035263,9.646109 -0.345088,0.927511 -0.690175,2.968033 -2.24307,3.153536 -1.552894,0.185502 -3.795965,0.742008 -5.866491,0.185502 -2.070526,-0.556507 -6.556667,-2.968034 -8.282105,-4.081046 -1.725439,-1.113013 -7.591931,-5.565063 -7.591931,-5.565063 l 0,-1.113012 c 0,0 -3.968508,1.298514 -5.693946,1.484017 -1.725439,0.185502 -14.321141,0.556505 -14.321141,0.556505 0,0 -0.345087,1.669519 0,2.968034 0.345088,1.298514 1.380351,5.936067 1.725439,7.420084 0.345087,1.484016 0.862719,2.597029 0.517631,3.710041 -0.345087,1.113013 -4.658684,0.556507 -4.658684,0.556507 0,0 0.345088,1.484016 -2.760701,-1.298516 -3.10579,-2.78253 -11.387896,-7.791086 -11.732983,-9.089602 -0.345088,-1.298514 -1.207807,-2.411526 -1.207807,-2.411526 0,0 -13.285878,1.855021 -17.081842,1.855021 -3.795965,0 -20.5327192,-0.371005 -21.5679824,-0.556507 -1.0352634,-0.185502 -1.2078075,0.92751 -1.2078075,0.92751 0,0 1.2078075,2.226026 1.2078075,4.452051 l 0,4.266548 -2.4156136,0.185502 c 0,0 -1.552895,0.185501 -2.760702,-0.371005 -1.207807,-0.556506 -5.521403,-3.52454 -9.489912,-7.976589 -3.968509,-4.45205 -4.831228,-5.750564 -4.831228,-5.750564 0,0 -10.007544,-0.371005 -20.360176,-2.411528 -10.352632,-2.040523 -19.67,-3.710041 -21.740526,-5.194058 -2.070526,-1.484017 -5.693948,-2.226025 -6.211579,-4.45205 -0.517631,-2.226025 -0.345088,-4.266548 -0.345088,-4.266548 z" opacity='0' onmousedown="selectElement(evt, 3)"  onmouseup="lockPosition(evt,3)"/>
    </g>
	
    <g transform="translate(400,300)" class='moveable'>
        <circle class="control_point" cx="0" cy="0" r="10"/>
		<path d="m -77.09283,4.1298534 c 0,0 -1.150639,-2.6848248 -0.383546,-3.83546413 0.767093,-1.1506392 6.136743,-2.68482487 6.136743,-2.68482487 l 9.205114,-1.9177321 10.355753,-3.0683713 10.7393,-4.986103 18.410228,-4.219011 -1.15064,-9.588661 1.917732,0 1.534186,-8.821567 3.451918,1.150639 0.767093,-6.520289 4.986103,1.150639 1.917732,-3.068371 1.9177321,2.301278 2.6848249,1.15064 0.3835464,-3.451918 1.5341857,0 L 0,-39.210892 l 3.0683713,-2.301278 1.1506393,0.383546 0.3835464,3.068371 3.8354641,-1.150639 1.9177319,3.451918 3.451918,-1.150639 1.150639,3.451917 3.068371,-2.301278 1.15064,4.21901 2.684825,-0.383546 0.383546,2.301279 3.068371,0.767092 0,1.917732 2.301279,0.383547 0,1.917732 2.684825,1.917732 0,0.767093 c 0,0 1.150639,1.534186 1.534185,3.451918 0.383547,1.917732 5.36965,1.917732 5.36965,1.917732 0,0 3.835464,-8.821568 6.903836,-13.424125 3.068371,-4.602557 6.520289,-6.136742 6.520289,-6.136742 l 3.451917,-0.767093 c 0,0 0.767093,0.383546 3.451918,2.301278 2.684825,1.917732 25.314064,21.862146 25.314064,21.862146 0,0 1.534185,0.767093 0.383546,1.917732 -1.150639,1.1506395 -4.986103,3.0683716 -4.986103,3.0683716 l 6.903835,1.1506392 8.821568,0 26.081158,-18.7937748 c 0,0 0.76709,-1.917732 3.45192,-1.534186 2.68482,0.383547 3.83546,4.219011 3.83546,4.219011 l 0,11.122846 c 0,0 0.38355,-0.767092 0,2.3012789 -0.38355,3.0683713 -4.21901,7.6709283 -4.21901,7.6709283 0,0 -0.38355,1.15063927 -0.38355,2.6848249 0,1.5341857 3.45192,5.7531963 3.45192,5.7531963 l 0.76709,1.917732 1.15064,8.4380206 -0.38354,9.205114 -3.06838,2.301279 c 0,0 -12.65703,-4.602557 -14.57476,-6.520289 -1.91773,-1.917733 -12.273484,-10.355754 -12.273484,-10.355754 0,0 -2.301279,-3.4519166 -3.451918,-3.4519166 -1.150639,0 -21.862146,3.4519166 -21.862146,3.4519166 l 0,1.534186 2.301279,3.835464 -5.36965,5.753196 -4.602557,7.670929 c 0,0 0,1.534185 -1.150639,3.451917 -1.150639,1.917732 -4.986104,2.684825 -7.287382,2.301279 -2.301279,-0.383547 -6.520289,-4.219011 -6.520289,-4.219011 L 42.957198,18.704617 c 0,0 -11.889938,1.917732 -21.095052,2.301278 -9.205114,0.383547 -19.9444139,0.383547 -25.3140637,0 -5.3696498,-0.383546 -4.9861034,0 -4.9861034,0 0,0 4.602557,2.301279 5.7531962,4.219011 1.1506392,1.917732 1.91773207,4.21901 1.91773207,4.21901 0,0 0.76709283,2.684825 -1.15063927,3.835465 -1.917732,1.150639 -5.3696498,2.684824 -6.1367426,4.986103 -0.7670928,2.301278 -0.3835464,5.753196 -2.6848253,5.753196 -2.301278,0 -7.670928,-6.136742 -7.670928,-8.054475 0,-1.917732 -4.602557,-12.657031 -4.21901,-13.80767 0.383546,-1.15064 -16.492496,-2.684825 -21.862146,-4.219011 -5.36965,-1.534186 -20.32796,-5.753196 -20.32796,-5.753196 L -75.94219,10.266596 c 0,0 0,-0.3835456 -1.150639,-1.9177316 -1.150639,-1.534186 -1e-6,-4.219011 -1e-6,-4.219011 z" fill="white" stroke='#01b29F' stroke-width='3' id='1'/>
		<text dy='0.33em' text-anchor='middle'>Walleye</text>
		<path d="m -77.09283,4.1298534 c 0,0 -1.150639,-2.6848248 -0.383546,-3.83546413 0.767093,-1.1506392 6.136743,-2.68482487 6.136743,-2.68482487 l 9.205114,-1.9177321 10.355753,-3.0683713 10.7393,-4.986103 18.410228,-4.219011 -1.15064,-9.588661 1.917732,0 1.534186,-8.821567 3.451918,1.150639 0.767093,-6.520289 4.986103,1.150639 1.917732,-3.068371 1.9177321,2.301278 2.6848249,1.15064 0.3835464,-3.451918 1.5341857,0 L 0,-39.210892 l 3.0683713,-2.301278 1.1506393,0.383546 0.3835464,3.068371 3.8354641,-1.150639 1.9177319,3.451918 3.451918,-1.150639 1.150639,3.451917 3.068371,-2.301278 1.15064,4.21901 2.684825,-0.383546 0.383546,2.301279 3.068371,0.767092 0,1.917732 2.301279,0.383547 0,1.917732 2.684825,1.917732 0,0.767093 c 0,0 1.150639,1.534186 1.534185,3.451918 0.383547,1.917732 5.36965,1.917732 5.36965,1.917732 0,0 3.835464,-8.821568 6.903836,-13.424125 3.068371,-4.602557 6.520289,-6.136742 6.520289,-6.136742 l 3.451917,-0.767093 c 0,0 0.767093,0.383546 3.451918,2.301278 2.684825,1.917732 25.314064,21.862146 25.314064,21.862146 0,0 1.534185,0.767093 0.383546,1.917732 -1.150639,1.1506395 -4.986103,3.0683716 -4.986103,3.0683716 l 6.903835,1.1506392 8.821568,0 26.081158,-18.7937748 c 0,0 0.76709,-1.917732 3.45192,-1.534186 2.68482,0.383547 3.83546,4.219011 3.83546,4.219011 l 0,11.122846 c 0,0 0.38355,-0.767092 0,2.3012789 -0.38355,3.0683713 -4.21901,7.6709283 -4.21901,7.6709283 0,0 -0.38355,1.15063927 -0.38355,2.6848249 0,1.5341857 3.45192,5.7531963 3.45192,5.7531963 l 0.76709,1.917732 1.15064,8.4380206 -0.38354,9.205114 -3.06838,2.301279 c 0,0 -12.65703,-4.602557 -14.57476,-6.520289 -1.91773,-1.917733 -12.273484,-10.355754 -12.273484,-10.355754 0,0 -2.301279,-3.4519166 -3.451918,-3.4519166 -1.150639,0 -21.862146,3.4519166 -21.862146,3.4519166 l 0,1.534186 2.301279,3.835464 -5.36965,5.753196 -4.602557,7.670929 c 0,0 0,1.534185 -1.150639,3.451917 -1.150639,1.917732 -4.986104,2.684825 -7.287382,2.301279 -2.301279,-0.383547 -6.520289,-4.219011 -6.520289,-4.219011 L 42.957198,18.704617 c 0,0 -11.889938,1.917732 -21.095052,2.301278 -9.205114,0.383547 -19.9444139,0.383547 -25.3140637,0 -5.3696498,-0.383546 -4.9861034,0 -4.9861034,0 0,0 4.602557,2.301279 5.7531962,4.219011 1.1506392,1.917732 1.91773207,4.21901 1.91773207,4.21901 0,0 0.76709283,2.684825 -1.15063927,3.835465 -1.917732,1.150639 -5.3696498,2.684824 -6.1367426,4.986103 -0.7670928,2.301278 -0.3835464,5.753196 -2.6848253,5.753196 -2.301278,0 -7.670928,-6.136742 -7.670928,-8.054475 0,-1.917732 -4.602557,-12.657031 -4.21901,-13.80767 0.383546,-1.15064 -16.492496,-2.684825 -21.862146,-4.219011 -5.36965,-1.534186 -20.32796,-5.753196 -20.32796,-5.753196 L -75.94219,10.266596 c 0,0 0,-0.3835456 -1.150639,-1.9177316 -1.150639,-1.534186 -1e-6,-4.219011 -1e-6,-4.219011 z" opacity='0' onmousedown="selectElement(evt, 1)"  onmouseup="lockPosition(evt,1)"/>
    </g>
	
    <g transform="translate(400,200)" class='moveable'>
        <circle class="control_point" cx="0" cy="0" r="10"/>
		<path d="m -84.380212,4.5133995 4.602557,-4.21901102 7.670929,-6.13674198 9.58866,-3.835464 19.177321,-10.7392995 c 0,0 15.341852,-4.986104 23.012782,-5.36965 7.67093,-0.383547 1.91773,-4.986104 1.91773,-4.986104 l 2.68483,0.383547 0.38355,-3.835465 2.68482,2.684825 4.2190103,-4.986103 0.76709,3.451918 4.60256,-6.136743 1.53419,-1.150639 1.5341800262923,0 -1.5341800262923,4.602557 5.36965,-2.684825 1.53418,1.917732 -1.53418,3.068371 4.60255,-0.767093 -0.38354,3.068372 2.6848197,0 0.7671,2.301278 3.06837,-0.767093 1.53418,1.917733 0.38355,0.767092 2.68482,0 1.53419,1.15064 c 0,0 8.43802,-8.054475 18.02668,-10.7393 9.58866,-2.684825 19.17732,1.534186 19.17732,1.534186 0,0 5.7532,2.684825 6.13674,8.054474 0.38355,5.36965 0.7671,8.054475 -0.76709,9.588661 -1.53418,1.534185 -8.82157,2.684825 -8.82157,2.684825 l -0.38354,2.684825 c 0,0 6.13674,2.6848245 15.34185,1.917732 9.20512,-0.767093 9.58866,-0.767093 9.58866,-0.767093 l 9.97221,-5.753196 c 0,0 12.657033,-7.670929 17.259593,-8.054475 4.60256,-0.383547 5.7532,0 5.7532,0 0,0 4.9861,5.753196 4.60255,9.205114 -0.38354,3.451918 -5.75319,8.8215675 -6.90383,11.8899395 -1.15064,3.06837098 0.76709,6.520289 0.76709,6.520289 0,0 4.60256,6.520286 4.60256,9.9722055 0,3.45192 -1.15064,7.67093 -3.06837,8.82157 -1.91774,1.15064 -6.52029,1.53418 -8.05448,1.15064 -1.53418,-0.38355 -22.245693,-11.5064 -22.245693,-11.5064 0,0 -11.50639,-2.6848195 -19.17732,-1.9177295 -7.67093,0.7670995 -7.28738,2.3012795 -7.28738,2.3012795 l 8.43802,2.68483 c 0,0 2.68482,1.15064 2.68482,2.68482 0,1.53419 -0.76709,9.20511 -3.06837,11.88994 -2.30128,2.68482 -5.7532,5.7532 -10.35575,5.7532 -4.60256,0 -11.88994,-3.45192 -11.88994,-3.45192 L 27.615337,25.992 26.081157,23.30717 c 0,0 -2.30128,1.53419 -12.27349,2.68483 -9.9721997,1.15064 -30.30016,-0.76709 -30.30016,-0.76709 0,0 7.2873803,1.91773 8.4380203,3.45191 1.15064,1.53419 1.15064,4.98611 1.15064,4.98611 0,0 0.38354,2.68482 1.15064,4.21901 0.76709,1.53418 0.76709,5.36965 -1.15064,4.9861 -1.91773,-0.38355 -10.3557603,-4.9861 -13.0405803,-8.43802 -2.68483,-3.45192 -5.36965,-7.28738 -5.36965,-7.28738 0,0 -17.25959,0.76709 -19.560868,-0.38355 -2.301278,-1.15064 -14.191217,-4.60256 -14.191217,-4.60256 0,0 -5.753196,-0.38354 -9.205114,-1.15063 -3.451918,-0.7671 -9.972207,-4.60256 -9.972207,-4.60256 l -6.520289,-5.7532 c 0,0 -1.917732,-0.38354 -2.301278,-1.9177295 -0.383547,-1.534186 2.684824,-4.219011 2.684824,-4.219011 z" fill="white" stroke='#01b29F' stroke-width='3' id='2'/>
		<text dy='0.33em' text-anchor='middle'>LM Bass</text>
		<path d="m -84.380212,4.5133995 4.602557,-4.21901102 7.670929,-6.13674198 9.58866,-3.835464 19.177321,-10.7392995 c 0,0 15.341852,-4.986104 23.012782,-5.36965 7.67093,-0.383547 1.91773,-4.986104 1.91773,-4.986104 l 2.68483,0.383547 0.38355,-3.835465 2.68482,2.684825 4.2190103,-4.986103 0.76709,3.451918 4.60256,-6.136743 1.53419,-1.150639 1.5341800262923,0 -1.5341800262923,4.602557 5.36965,-2.684825 1.53418,1.917732 -1.53418,3.068371 4.60255,-0.767093 -0.38354,3.068372 2.6848197,0 0.7671,2.301278 3.06837,-0.767093 1.53418,1.917733 0.38355,0.767092 2.68482,0 1.53419,1.15064 c 0,0 8.43802,-8.054475 18.02668,-10.7393 9.58866,-2.684825 19.17732,1.534186 19.17732,1.534186 0,0 5.7532,2.684825 6.13674,8.054474 0.38355,5.36965 0.7671,8.054475 -0.76709,9.588661 -1.53418,1.534185 -8.82157,2.684825 -8.82157,2.684825 l -0.38354,2.684825 c 0,0 6.13674,2.6848245 15.34185,1.917732 9.20512,-0.767093 9.58866,-0.767093 9.58866,-0.767093 l 9.97221,-5.753196 c 0,0 12.657033,-7.670929 17.259593,-8.054475 4.60256,-0.383547 5.7532,0 5.7532,0 0,0 4.9861,5.753196 4.60255,9.205114 -0.38354,3.451918 -5.75319,8.8215675 -6.90383,11.8899395 -1.15064,3.06837098 0.76709,6.520289 0.76709,6.520289 0,0 4.60256,6.520286 4.60256,9.9722055 0,3.45192 -1.15064,7.67093 -3.06837,8.82157 -1.91774,1.15064 -6.52029,1.53418 -8.05448,1.15064 -1.53418,-0.38355 -22.245693,-11.5064 -22.245693,-11.5064 0,0 -11.50639,-2.6848195 -19.17732,-1.9177295 -7.67093,0.7670995 -7.28738,2.3012795 -7.28738,2.3012795 l 8.43802,2.68483 c 0,0 2.68482,1.15064 2.68482,2.68482 0,1.53419 -0.76709,9.20511 -3.06837,11.88994 -2.30128,2.68482 -5.7532,5.7532 -10.35575,5.7532 -4.60256,0 -11.88994,-3.45192 -11.88994,-3.45192 L 27.615337,25.992 26.081157,23.30717 c 0,0 -2.30128,1.53419 -12.27349,2.68483 -9.9721997,1.15064 -30.30016,-0.76709 -30.30016,-0.76709 0,0 7.2873803,1.91773 8.4380203,3.45191 1.15064,1.53419 1.15064,4.98611 1.15064,4.98611 0,0 0.38354,2.68482 1.15064,4.21901 0.76709,1.53418 0.76709,5.36965 -1.15064,4.9861 -1.91773,-0.38355 -10.3557603,-4.9861 -13.0405803,-8.43802 -2.68483,-3.45192 -5.36965,-7.28738 -5.36965,-7.28738 0,0 -17.25959,0.76709 -19.560868,-0.38355 -2.301278,-1.15064 -14.191217,-4.60256 -14.191217,-4.60256 0,0 -5.753196,-0.38354 -9.205114,-1.15063 -3.451918,-0.7671 -9.972207,-4.60256 -9.972207,-4.60256 l -6.520289,-5.7532 c 0,0 -1.917732,-0.38354 -2.301278,-1.9177295 -0.383547,-1.534186 2.684824,-4.219011 2.684824,-4.219011 z" opacity='0' onmousedown="selectElement(evt, 2)"  onmouseup="lockPosition(evt,2)"/>
    </g>

</svg>