<?xml version="1.0"?>
<svg xmlns="http://www.w3.org/2000/svg" xmlns:xlink="http://www.w3.org/1999/xlink" version="1.1" preserveAspectRatio="xMinYMin meet" viewBox="-550 0 1820 504">
  <style>#tick-labels, #y-title, text {
  	font-family: Arial;
}
@media all and (max-width: 200px) {
            .background-bass, .background-walleye {
                opacity: 0;
				fill-opacity:0;
            }
        }
.data-line {

	stroke-linejoin: round;
	stroke-width:3;
	stroke-linecap: round;
}
#tick-labels {
	font-size: 10.00pt; 
}
#y-title, #x-title {
	font-size: 14.00pt; 
}
.background-walleye {
  fill:#b2e7e2;
stroke:white;
stroke-width:2;
fill-opacity:0.75;
}
.background-bass {
fill:#e0b2b2;
stroke:white;
stroke-width:2;
fill-opacity:0.75;
}
 #walleye-line {
    stroke-dasharray: 1747.307;
    stroke-dashoffset: 1747.307;
    animation: dash-walleye 15s linear forwards;
  } #bass-line {
    stroke-dasharray: 1564.094;
     stroke-dashoffset: 1564.094;
    animation: dash-bass 15s linear forwards;
  } @keyframes dash-walleye {
0% {stroke-dashoffset: 1407.812}
5% {stroke-dashoffset: 1371.799}
10% {stroke-dashoffset: 1169.054}
15% {stroke-dashoffset: 1125.988}
20% {stroke-dashoffset: 1070.136}
25% {stroke-dashoffset: 1041.563}
30% {stroke-dashoffset: 944.293}
35% {stroke-dashoffset: 765.252}
40% {stroke-dashoffset: 710.605}
45% {stroke-dashoffset: 549.404}
50% {stroke-dashoffset: 501.671}
55% {stroke-dashoffset: 469.368}
60% {stroke-dashoffset: 424.53}
65% {stroke-dashoffset: 380.997}
70% {stroke-dashoffset: 352.242}
75% {stroke-dashoffset: 296.938}
80% {stroke-dashoffset: 265.233}
85% {stroke-dashoffset: 176.371}
90% {stroke-dashoffset: 83.042}
95% {stroke-dashoffset: 28.498}
100% {stroke-dashoffset: 0}} @keyframes dash-bass {
0% {stroke-dashoffset: 1564.094}
5% {stroke-dashoffset: 1364.688}
10% {stroke-dashoffset: 1189.6}
15% {stroke-dashoffset: 1134.722}
20% {stroke-dashoffset: 1083.524}
25% {stroke-dashoffset: 982.177}
30% {stroke-dashoffset: 938.437}
35% {stroke-dashoffset: 903.883}
40% {stroke-dashoffset: 853.577}
45% {stroke-dashoffset: 733.113}
50% {stroke-dashoffset: 684.002}
55% {stroke-dashoffset: 641.205}
60% {stroke-dashoffset: 566.164}
65% {stroke-dashoffset: 502.825}
70% {stroke-dashoffset: 416.908}
75% {stroke-dashoffset: 347.036}
80% {stroke-dashoffset: 276.163}
85% {stroke-dashoffset: 219.61}
90% {stroke-dashoffset: 175.917}
95% {stroke-dashoffset: 116.343}
100% {stroke-dashoffset: 0}} @keyframes shift-bass { 
                         0%  {transform: translateX(850px)}
                         100% {transform: translateX(800px)}
                        }#all-bass {
    animation: shift-bass 15s linear forwards;
  } @keyframes shift-wally { 
                         0%  {transform: translateX(-100px)}
                         100% {transform: translateX(-150px)}
                        }#all-walleye {
    animation: shift-wally 15s linear forwards;
  }</style>
  <g id="all-bass" transform="translate(820,0)" class="background-bass">
    <use x="-57.72" y="74.94" xlink:href="#bass" id="bass-1" transform="scale(0.831441818448988)"/>
    <use x="291.389" y="335.887" xlink:href="#bass" id="bass-2" transform="scale(1.10814623880156)"/>
    <use x="136.131" y="219.818" xlink:href="#bass" id="bass-3" transform="scale(0.963565637868283)"/>
    <use x="-2.126" y="93.068" xlink:href="#bass" id="bass-4" transform="scale(1.03403363542762)"/>
    <use x="325.083" y="270.373" xlink:href="#bass" id="bass-5" transform="scale(0.935503008429121)"/>
    <use x="85.115" y="59.648" xlink:href="#bass" id="bass-6" transform="scale(0.870627269009828)"/>
    <use x="565.713" y="429.214" xlink:href="#bass" id="bass-7" transform="scale(0.832929116970745)"/>
    <use x="184.529" y="272.123" xlink:href="#bass" id="bass-8" transform="scale(1.07089678679586)"/>
    <use x="140.062" y="35.616" xlink:href="#bass" id="bass-9" transform="scale(0.933189055341256)"/>
    <use x="227.029" y="38.665" xlink:href="#bass" id="bass-10" transform="scale(1.02508980575588)"/>
    <use x="216.484" y="140.309" xlink:href="#bass" id="bass-11" transform="scale(1.19886288499758)"/>
    <use x="462.728" y="196.973" xlink:href="#bass" id="bass-12" transform="scale(0.926632902537429)"/>
    <use x="251.124" y="79.453" xlink:href="#bass" id="bass-13" transform="scale(1.09739412730543)"/>
    <use x="424.247" y="158.458" xlink:href="#bass" id="bass-14" transform="scale(0.983323306910881)"/>
    <use x="105.556" y="257.314" xlink:href="#bass" id="bass-15" transform="scale(0.913892685493731)"/>
    <use x="352.62" y="59.847" xlink:href="#bass" id="bass-16" transform="scale(1.05481272501767)"/>
    <use x="245.624" y="160.811" xlink:href="#bass" id="bass-17" transform="scale(0.972557443449365)"/>
    <use x="465.92" y="279.803" xlink:href="#bass" id="bass-18" transform="scale(1.00828897489842)"/>
    <use x="347.965" y="320.547" xlink:href="#bass" id="bass-19" transform="scale(1.16118684980381)"/>
    <use x="376.007" y="283.5" xlink:href="#bass" id="bass-20" transform="scale(1.03976359373897)"/>
    <use x="2.959" y="180.741" xlink:href="#bass" id="bass-21" transform="scale(1.01754209157513)"/>
    <use x="469.312" y="388.664" xlink:href="#bass" id="bass-22" transform="scale(1.07514547782616)"/>
    <use x="412.902" y="79.924" xlink:href="#bass" id="bass-23" transform="scale(1.06792605657757)"/>
    <use x="326.069" y="19.216" xlink:href="#bass" id="bass-24" transform="scale(1.06692977827938)"/>
    <use x="66.057" y="92.029" xlink:href="#bass" id="bass-25" transform="scale(1.32399746362759)"/>
    <use x="328.099" y="59.297" xlink:href="#bass" id="bass-26" transform="scale(0.876515697906834)"/>
    <use x="603.732" y="208.567" xlink:href="#bass" id="bass-27" transform="scale(0.785642387465478)"/>
    <use x="277.856" y="42.794" xlink:href="#bass" id="bass-28" transform="scale(1.09006907663362)"/>
    <use x="-84.189" y="527.056" xlink:href="#bass" id="bass-29" transform="scale(0.910627843105283)"/>
    <use x="34.474" y="458.53" xlink:href="#bass" id="bass-30" transform="scale(0.957465443054319)"/>
    <use x="-100.014" y="89.541" xlink:href="#bass" id="bass-31" transform="scale(0.963333949498522)"/>
    <use x="-43.315" y="363.649" xlink:href="#bass" id="bass-32" transform="scale(0.883281675748748)"/>
    <use x="159.804" y="385.349" xlink:href="#bass" id="bass-33" transform="scale(0.865186800845662)"/>
    <use x="-70.324" y="120.733" xlink:href="#bass" id="bass-34" transform="scale(1.07934061439354)"/>
    <use x="-6.676" y="213.557" xlink:href="#bass" id="bass-35" transform="scale(0.903122353176025)"/>
    <use x="-81.994" y="541.728" xlink:href="#bass" id="bass-36" transform="scale(0.704928866598063)"/>
    <use x="440.977" y="321.991" xlink:href="#bass" id="bass-37" transform="scale(0.950829851033861)"/>
    <use x="-24.056" y="257.814" xlink:href="#bass" id="bass-38" transform="scale(0.939378745088911)"/>
    <use x="493.731" y="482.247" xlink:href="#bass" id="bass-39" transform="scale(0.893456400638382)"/>
    <use x="74.37" y="515.886" xlink:href="#bass" id="bass-40" transform="scale(0.931529388825761)"/>
    <use x="295.669" y="267.986" xlink:href="#bass" id="bass-41" transform="scale(0.931896264253354)"/>
    <use x="43.42" y="518.307" xlink:href="#bass" id="bass-42" transform="scale(0.900730634199293)"/>
    <use x="127.431" y="221.513" xlink:href="#bass" id="bass-43" transform="scale(1.42291863933809)"/>
    <use x="376.976" y="359.919" xlink:href="#bass" id="bass-44" transform="scale(1.07495894879546)"/>
    <use x="193.511" y="50.515" xlink:href="#bass" id="bass-45" transform="scale(1.05129962124864)"/>
    <use x="82.986" y="336.512" xlink:href="#bass" id="bass-46" transform="scale(0.836385786516953)"/>
    <use x="155.846" y="621.008" xlink:href="#bass" id="bass-47" transform="scale(0.706118557780579)"/>
    <use x="146.553" y="152.065" xlink:href="#bass" id="bass-48" transform="scale(1.36647528319679)"/>
    <use x="305.476" y="283.866" xlink:href="#bass" id="bass-49" transform="scale(0.994921336544089)"/>
    <use x="9.556" y="188.038" xlink:href="#bass" id="bass-50" transform="scale(0.970701746497911)"/>
    <use x="428.71" y="47.594" xlink:href="#bass" id="bass-51" transform="scale(1.03103643689762)"/>
    <use x="217.077" y="310.673" xlink:href="#bass" id="bass-52" transform="scale(0.93859499244356)"/>
    <use x="-23.216" y="477.92" xlink:href="#bass" id="bass-53" transform="scale(0.961771060575972)"/>
    <use x="334.935" y="475.92" xlink:href="#bass" id="bass-54" transform="scale(0.943960448549098)"/>
    <use x="119.061" y="83.398" xlink:href="#bass" id="bass-55" transform="scale(0.929944892188625)"/>
    <use x="109.613" y="432.731" xlink:href="#bass" id="bass-56" transform="scale(0.850598224573319)"/>
    <use x="510.394" y="209.468" xlink:href="#bass" id="bass-57" transform="scale(0.957257131454318)"/>
    <use x="265.582" y="257.212" xlink:href="#bass" id="bass-58" transform="scale(1.04800462994649)"/>
    <use x="140.544" y="278.567" xlink:href="#bass" id="bass-59" transform="scale(0.867148015961235)"/>
    <use x="264.233" y="35.875" xlink:href="#bass" id="bass-60" transform="scale(1.17736638322968)"/>
  </g>
  <g id="all-walleye" transform="translate(-100,0)" class="background-walleye">
    <use x="74.237" y="116.334" xlink:href="#walleye" id="walleye-1" transform="scale(1.08562240017597)"/>
    <use x="-360.01" y="371.898" xlink:href="#walleye" id="walleye-2" transform="scale(1.19410964235742)"/>
    <use x="-96.139" y="435.906" xlink:href="#walleye" id="walleye-3" transform="scale(1.08885772020152)"/>
    <use x="-215.506" y="169.442" xlink:href="#walleye" id="walleye-4" transform="scale(1.05141782060325)"/>
    <use x="-95.229" y="165.542" xlink:href="#walleye" id="walleye-5" transform="scale(0.851069104014928)"/>
    <use x="-4.623" y="21.172" xlink:href="#walleye" id="walleye-6" transform="scale(1.03741101902917)"/>
    <use x="-282.244" y="23.226" xlink:href="#walleye" id="walleye-7" transform="scale(1.15839283763993)"/>
    <use x="-20.209" y="466.888" xlink:href="#walleye" id="walleye-8" transform="scale(0.830670833854979)"/>
    <use x="-424.393" y="407.015" xlink:href="#walleye" id="walleye-9" transform="scale(0.978016304336406)"/>
    <use x="-502.757" y="248.589" xlink:href="#walleye" id="walleye-10" transform="scale(0.922770523547806)"/>
    <use x="-359.43" y="96.237" xlink:href="#walleye" id="walleye-11" transform="scale(1.07189330742098)"/>
    <use x="-73.675" y="474.403" xlink:href="#walleye" id="walleye-12" transform="scale(0.797529715186082)"/>
    <use x="-107.195" y="377.994" xlink:href="#walleye" id="walleye-13" transform="scale(0.937703489363853)"/>
    <use x="42.05" y="221.89" xlink:href="#walleye" id="walleye-14" transform="scale(0.977045343923903)"/>
    <use x="-63.894" y="159.305" xlink:href="#walleye" id="walleye-15" transform="scale(0.936532002294888)"/>
    <use x="-359.964" y="152.826" xlink:href="#walleye" id="walleye-16" transform="scale(1.08604335116524)"/>
    <use x="-447.189" y="344.66" xlink:href="#walleye" id="walleye-17" transform="scale(1.07249905092912)"/>
    <use x="-390.736" y="398.8" xlink:href="#walleye" id="walleye-18" transform="scale(1.15636876205902)"/>
    <use x="-11.612" y="357.417" xlink:href="#walleye" id="walleye-19" transform="scale(1.08360849959308)"/>
    <use x="57.687" y="112.644" xlink:href="#walleye" id="walleye-20" transform="scale(1.22643628795571)"/>
    <use x="-24.19" y="287.679" xlink:href="#walleye" id="walleye-21" transform="scale(0.846861549801944)"/>
    <use x="-528.607" y="517.998" xlink:href="#walleye" id="walleye-22" transform="scale(0.90523531278996)"/>
    <use x="90.561" y="392.22" xlink:href="#walleye" id="walleye-23" transform="scale(0.955017926163992)"/>
    <use x="-334.095" y="25.756" xlink:href="#walleye" id="walleye-24" transform="scale(1.1298766306261)"/>
    <use x="-430.37" y="197.448" xlink:href="#walleye" id="walleye-25" transform="scale(0.933591716893273)"/>
    <use x="-337.332" y="417.8" xlink:href="#walleye" id="walleye-26" transform="scale(1.16613825675108)"/>
    <use x="-224.573" y="245.192" xlink:href="#walleye" id="walleye-27" transform="scale(1.08629954480395)"/>
    <use x="-382.938" y="53.316" xlink:href="#walleye" id="walleye-28" transform="scale(1.05780850026652)"/>
    <use x="-151.097" y="188.562" xlink:href="#walleye" id="walleye-29" transform="scale(0.919694345589014)"/>
    <use x="-329.668" y="383.201" xlink:href="#walleye" id="walleye-30" transform="scale(1.11203896614587)"/>
    <use x="-9.037" y="312.616" xlink:href="#walleye" id="walleye-31" transform="scale(1.14091976719151)"/>
    <use x="-518.857" y="220.39" xlink:href="#walleye" id="walleye-32" transform="scale(1.02140860576855)"/>
    <use x="-523.525" y="74.816" xlink:href="#walleye" id="walleye-33" transform="scale(0.670176492595796)"/>
    <use x="-346.626" y="312.475" xlink:href="#walleye" id="walleye-34" transform="scale(1.3561277880568)"/>
    <use x="-327.016" y="478.18" xlink:href="#walleye" id="walleye-35" transform="scale(0.820550728299096)"/>
    <use x="121.406" y="260.504" xlink:href="#walleye" id="walleye-36" transform="scale(0.683147645105714)"/>
    <use x="-302.81" y="159.976" xlink:href="#walleye" id="walleye-37" transform="scale(0.966671026509987)"/>
    <use x="-279.365" y="187.008" xlink:href="#walleye" id="walleye-38" transform="scale(1.15585379351071)"/>
    <use x="-282.409" y="20.936" xlink:href="#walleye" id="walleye-39" transform="scale(1.27503253729028)"/>
    <use x="74.233" y="54.431" xlink:href="#walleye" id="walleye-40" transform="scale(1.15468506807186)"/>
    <use x="-27.874" y="260.311" xlink:href="#walleye" id="walleye-41" transform="scale(0.94889299658404)"/>
    <use x="-65.825" y="520.609" xlink:href="#walleye" id="walleye-42" transform="scale(0.810617513019835)"/>
    <use x="-293.065" y="34.119" xlink:href="#walleye" id="walleye-43" transform="scale(1.22566886317025)"/>
    <use x="-264.652" y="162.59" xlink:href="#walleye" id="walleye-44" transform="scale(0.819288304439577)"/>
    <use x="-197.92" y="371.01" xlink:href="#walleye" id="walleye-45" transform="scale(0.953118703331591)"/>
    <use x="-335.452" y="373.666" xlink:href="#walleye" id="walleye-46" transform="scale(1.00106329193443)"/>
    <use x="-323.673" y="337.747" xlink:href="#walleye" id="walleye-47" transform="scale(0.918709685364802)"/>
    <use x="-252.531" y="19.593" xlink:href="#walleye" id="walleye-48" transform="scale(0.946249331083659)"/>
    <use x="-444.953" y="459.814" xlink:href="#walleye" id="walleye-49" transform="scale(1.0252389466411)"/>
    <use x="-54.406" y="215.369" xlink:href="#walleye" id="walleye-50" transform="scale(1.10873187700716)"/>
    <use x="-250.475" y="614.878" xlink:href="#walleye" id="walleye-51" transform="scale(0.792578068697191)"/>
    <use x="-595.243" y="223.774" xlink:href="#walleye" id="walleye-52" transform="scale(0.920139745134446)"/>
    <use x="45.049" y="197.054" xlink:href="#walleye" id="walleye-53" transform="scale(0.9355595431647)"/>
    <use x="-274.81" y="334.064" xlink:href="#walleye" id="walleye-54" transform="scale(1.0909287603401)"/>
    <use x="-227.512" y="213.842" xlink:href="#walleye" id="walleye-55" transform="scale(0.778898415758173)"/>
    <use x="-393.809" y="56.258" xlink:href="#walleye" id="walleye-56" transform="scale(1.01122513202288)"/>
    <use x="-446.893" y="190.238" xlink:href="#walleye" id="walleye-57" transform="scale(1.06087496160736)"/>
    <use x="-498.349" y="182.509" xlink:href="#walleye" id="walleye-58" transform="scale(0.939566502525445)"/>
    <use x="64.081" y="336.218" xlink:href="#walleye" id="walleye-59" transform="scale(1.24513068247679)"/>
    <use x="-378.586" y="318.175" xlink:href="#walleye" id="walleye-60" transform="scale(0.940194868993074)"/>
  </g>
  <g id="view-1-2">
    <defs>
      <clipPath id="mask-1-2">
        <rect x="36" y="36" height="424.8" width="648"/>
      </clipPath>
    </defs>
    <g id="axes" fill="none" stroke="#000000" stroke-width="1">
      <rect x="36" y="36" height="424.8" width="648" id="axes-box"/>
    </g>
    <g stroke="rgb(1,178,159)" fill="none" clip-path="url(#mask-1-2)">
      <path d="M36,266.048 64.174,263.355 92.348,323.222 120.522,79.82 148.696,102.252 176.87,303.03 205.043,270.458 233.217,222.233 261.391,217.475 289.565,310.576 317.739,133.766 345.913,180.59 374.087,339.31 402.261,300.778 430.435,316.579 458.609,281.698 486.783,314.885 514.957,309.132 543.13,356.722 571.304,342.182 599.478,257.905 627.652,346.88 655.826,393.584 684,397.871" class="data-line" id="walleye-line"/>
    </g>
  </g>
  <g id="view-1-4">
    <defs>
      <clipPath id="mask-1-4">
        <rect x="36" y="36" height="424.8" width="648"/>
      </clipPath>
    </defs>
    <g id="axes" fill="none" stroke="#000000" stroke-width="1">
      <rect x="36" y="36" height="424.8" width="648" id="axes-box"/>
    </g>
    <g stroke="rgb(153,0,0)" fill="none" clip-path="url(#mask-1-4)">
      <path d="M120.522,412.814 148.696,215.408 176.87,388.214 205.043,341.119 233.217,383.867 261.391,286.515 289.565,253.057 317.739,273.062 345.913,314.739 374.087,197.616 402.261,157.391 430.435,125.176 458.609,55.624 486.783,112.352 514.957,193.518 543.13,129.578 571.304,194.61 599.478,243.646 627.652,210.25 655.826,157.759 684,270.639" class="data-line" id="bass-line"/>
    </g>
  </g>
  <g id="side-1">
    <g id="axis-side-1">
      <g id="tick-labels" stroke="none" fill="#000000" text-anchor="middle">
        <text x="148.696" y="460.8" dy="1.0em">1995</text>
        <text x="289.565" y="460.8" dy="1.0em">2000</text>
        <text x="430.435" y="460.8" dy="1.0em">2005</text>
        <text x="571.304" y="460.8" dy="1.0em">2010</text>
      </g>
      <g id="ticks">
        <path d="M 148.696,460.8 v -5"/>
        <path d="M 289.565,460.8 v -5"/>
        <path d="M 430.435,460.8 v -5"/>
        <path d="M 571.304,460.8 v -5"/>
      </g>
      <g id="axis-label" stroke="none" fill="#000000" text-anchor="middle">
        <text x="360" y="460.8" dy="2.0em" id="x-title">Year</text>
      </g>
    </g>
  </g>
  <g id="side-2">
    <g id="axis-side-2">
      <g id="tick-labels" stroke="none" fill="#000000" text-anchor="end">
        <text x="36" y="460.8" dx="-0.33em" dy="0.33em">0</text>
        <text x="36" y="395.446" dx="-0.33em" dy="0.33em">10</text>
        <text x="36" y="330.092" dx="-0.33em" dy="0.33em">20</text>
        <text x="36" y="264.738" dx="-0.33em" dy="0.33em">30</text>
        <text x="36" y="199.385" dx="-0.33em" dy="0.33em">40</text>
        <text x="36" y="134.031" dx="-0.33em" dy="0.33em">50</text>
        <text x="36" y="68.677" dx="-0.33em" dy="0.33em">60</text>
      </g>
      <g id="ticks">
        <path d="M 36,460.8 h 5"/>
        <path d="M 36,395.446 h 5"/>
        <path d="M 36,330.092 h 5"/>
        <path d="M 36,264.738 h 5"/>
        <path d="M 36,199.385 h 5"/>
        <path d="M 36,134.031 h 5"/>
        <path d="M 36,68.677 h 5"/>
      </g>
    </g>
  </g>
  <g id="side-4">
    <g id="axis-side-4">
      <g id="tick-labels" stroke="none" fill="#000000" text-anchor="begin">
        <text x="684" y="460.8" dx="0.33em" dy="0.33em">0</text>
        <text x="684" y="376.514" dx="0.33em" dy="0.33em">0.25</text>
        <text x="684" y="292.229" dx="0.33em" dy="0.33em">0.5</text>
        <text x="684" y="207.943" dx="0.33em" dy="0.33em">0.75</text>
        <text x="684" y="123.657" dx="0.33em" dy="0.33em">1</text>
        <text x="684" y="39.371" dx="0.33em" dy="0.33em">1.25</text>
      </g>
      <g id="ticks">
        <path d="M 684,460.8 h -5"/>
        <path d="M 684,376.514 h -5"/>
        <path d="M 684,292.229 h -5"/>
        <path d="M 684,207.943 h -5"/>
        <path d="M 684,123.657 h -5"/>
        <path d="M 684,39.371 h -5"/>
      </g>
    </g>
  </g>
  <text x="10" y="25" text-anchor="begin" id="y-title">Walleye recruitment (#/mile)</text>
  <text x="710" y="25" text-anchor="end" id="y-title">Bass relative abundance</text>
  <defs>
    <path d="m -77.09283,4.1298534 c 0,0 -1.150639,-2.6848248 -0.383546,-3.83546413 0.767093,-1.1506392 6.136743,-2.68482487 6.136743,-2.68482487 l 9.205114,-1.9177321 10.355753,-3.0683713 10.7393,-4.986103 18.410228,-4.219011 -1.15064,-9.588661 1.917732,0 1.534186,-8.821567 3.451918,1.150639 0.767093,-6.520289 4.986103,1.150639 1.917732,-3.068371 1.9177321,2.301278 2.6848249,1.15064 0.3835464,-3.451918 1.5341857,0 L 0,-39.210892 l 3.0683713,-2.301278 1.1506393,0.383546 0.3835464,3.068371 3.8354641,-1.150639 1.9177319,3.451918 3.451918,-1.150639 1.150639,3.451917 3.068371,-2.301278 1.15064,4.21901 2.684825,-0.383546 0.383546,2.301279 3.068371,0.767092 0,1.917732 2.301279,0.383547 0,1.917732 2.684825,1.917732 0,0.767093 c 0,0 1.150639,1.534186 1.534185,3.451918 0.383547,1.917732 5.36965,1.917732 5.36965,1.917732 0,0 3.835464,-8.821568 6.903836,-13.424125 3.068371,-4.602557 6.520289,-6.136742 6.520289,-6.136742 l 3.451917,-0.767093 c 0,0 0.767093,0.383546 3.451918,2.301278 2.684825,1.917732 25.314064,21.862146 25.314064,21.862146 0,0 1.534185,0.767093 0.383546,1.917732 -1.150639,1.1506395 -4.986103,3.0683716 -4.986103,3.0683716 l 6.903835,1.1506392 8.821568,0 26.081158,-18.7937748 c 0,0 0.76709,-1.917732 3.45192,-1.534186 2.68482,0.383547 3.83546,4.219011 3.83546,4.219011 l 0,11.122846 c 0,0 0.38355,-0.767092 0,2.3012789 -0.38355,3.0683713 -4.21901,7.6709283 -4.21901,7.6709283 0,0 -0.38355,1.15063927 -0.38355,2.6848249 0,1.5341857 3.45192,5.7531963 3.45192,5.7531963 l 0.76709,1.917732 1.15064,8.4380206 -0.38354,9.205114 -3.06838,2.301279 c 0,0 -12.65703,-4.602557 -14.57476,-6.520289 -1.91773,-1.917733 -12.273484,-10.355754 -12.273484,-10.355754 0,0 -2.301279,-3.4519166 -3.451918,-3.4519166 -1.150639,0 -21.862146,3.4519166 -21.862146,3.4519166 l 0,1.534186 2.301279,3.835464 -5.36965,5.753196 -4.602557,7.670929 c 0,0 0,1.534185 -1.150639,3.451917 -1.150639,1.917732 -4.986104,2.684825 -7.287382,2.301279 -2.301279,-0.383547 -6.520289,-4.219011 -6.520289,-4.219011 L 42.957198,18.704617 c 0,0 -11.889938,1.917732 -21.095052,2.301278 -9.205114,0.383547 -19.9444139,0.383547 -25.3140637,0 -5.3696498,-0.383546 -4.9861034,0 -4.9861034,0 0,0 4.602557,2.301279 5.7531962,4.219011 1.1506392,1.917732 1.91773207,4.21901 1.91773207,4.21901 0,0 0.76709283,2.684825 -1.15063927,3.835465 -1.917732,1.150639 -5.3696498,2.684824 -6.1367426,4.986103 -0.7670928,2.301278 -0.3835464,5.753196 -2.6848253,5.753196 -2.301278,0 -7.670928,-6.136742 -7.670928,-8.054475 0,-1.917732 -4.602557,-12.657031 -4.21901,-13.80767 0.383546,-1.15064 -16.492496,-2.684825 -21.862146,-4.219011 -5.36965,-1.534186 -20.32796,-5.753196 -20.32796,-5.753196 L -75.94219,10.266596 c 0,0 0,-0.3835456 -1.150639,-1.9177316 -1.150639,-1.534186 -1e-6,-4.219011 -1e-6,-4.219011 z" id="walleye" transform="scale(-0.5,0.5)"/>
    <path d="m -84.380212,4.5133995 4.602557,-4.21901102 7.670929,-6.13674198 9.58866,-3.835464 19.177321,-10.7392995 c 0,0 15.341852,-4.986104 23.012782,-5.36965 7.67093,-0.383547 1.91773,-4.986104 1.91773,-4.986104 l 2.68483,0.383547 0.38355,-3.835465 2.68482,2.684825 4.2190103,-4.986103 0.76709,3.451918 4.60256,-6.136743 1.53419,-1.150639 1.5341800262923,0 -1.5341800262923,4.602557 5.36965,-2.684825 1.53418,1.917732 -1.53418,3.068371 4.60255,-0.767093 -0.38354,3.068372 2.6848197,0 0.7671,2.301278 3.06837,-0.767093 1.53418,1.917733 0.38355,0.767092 2.68482,0 1.53419,1.15064 c 0,0 8.43802,-8.054475 18.02668,-10.7393 9.58866,-2.684825 19.17732,1.534186 19.17732,1.534186 0,0 5.7532,2.684825 6.13674,8.054474 0.38355,5.36965 0.7671,8.054475 -0.76709,9.588661 -1.53418,1.534185 -8.82157,2.684825 -8.82157,2.684825 l -0.38354,2.684825 c 0,0 6.13674,2.6848245 15.34185,1.917732 9.20512,-0.767093 9.58866,-0.767093 9.58866,-0.767093 l 9.97221,-5.753196 c 0,0 12.657033,-7.670929 17.259593,-8.054475 4.60256,-0.383547 5.7532,0 5.7532,0 0,0 4.9861,5.753196 4.60255,9.205114 -0.38354,3.451918 -5.75319,8.8215675 -6.90383,11.8899395 -1.15064,3.06837098 0.76709,6.520289 0.76709,6.520289 0,0 4.60256,6.520286 4.60256,9.9722055 0,3.45192 -1.15064,7.67093 -3.06837,8.82157 -1.91774,1.15064 -6.52029,1.53418 -8.05448,1.15064 -1.53418,-0.38355 -22.245693,-11.5064 -22.245693,-11.5064 0,0 -11.50639,-2.6848195 -19.17732,-1.9177295 -7.67093,0.7670995 -7.28738,2.3012795 -7.28738,2.3012795 l 8.43802,2.68483 c 0,0 2.68482,1.15064 2.68482,2.68482 0,1.53419 -0.76709,9.20511 -3.06837,11.88994 -2.30128,2.68482 -5.7532,5.7532 -10.35575,5.7532 -4.60256,0 -11.88994,-3.45192 -11.88994,-3.45192 L 27.615337,25.992 26.081157,23.30717 c 0,0 -2.30128,1.53419 -12.27349,2.68483 -9.9721997,1.15064 -30.30016,-0.76709 -30.30016,-0.76709 0,0 7.2873803,1.91773 8.4380203,3.45191 1.15064,1.53419 1.15064,4.98611 1.15064,4.98611 0,0 0.38354,2.68482 1.15064,4.21901 0.76709,1.53418 0.76709,5.36965 -1.15064,4.9861 -1.91773,-0.38355 -10.3557603,-4.9861 -13.0405803,-8.43802 -2.68483,-3.45192 -5.36965,-7.28738 -5.36965,-7.28738 0,0 -17.25959,0.76709 -19.560868,-0.38355 -2.301278,-1.15064 -14.191217,-4.60256 -14.191217,-4.60256 0,0 -5.753196,-0.38354 -9.205114,-1.15063 -3.451918,-0.7671 -9.972207,-4.60256 -9.972207,-4.60256 l -6.520289,-5.7532 c 0,0 -1.917732,-0.38354 -2.301278,-1.9177295 -0.383547,-1.534186 2.684824,-4.219011 2.684824,-4.219011 z" id="bass" transform="scale(0.5,0.5)"/>
  </defs>
</svg>
