<svg xmlns="http://www.w3.org/2000/svg" xmlns:xlink="http://www.w3.org/1999/xlink" version="1.1" preserveAspectRatio="xMinYMin meet" viewBox="0 0 720 504">
  <style>#tick-labels, #y-title {
    	font-family: Arial;
}
  #data-line {
    	stroke-linejoin: round;
    	stroke-width:3;
  }
  #tick-labels {
    	font-size: 12.00pt; 
  }
  #y-title {
    	font-size: 14.00pt; 
  }</style>
  <text x="10" y="25" text-anchor="begin" id="y-title">Catch per unit effort</text>
  <g id="view-1-2">
    <defs>
      <clipPath id="mask-1-2">
        <rect x="36" y="36" height="432" width="648"/>
      </clipPath>
    </defs>
    <g id="axes" fill="none" stroke="#000000" stroke-width="1">
      <rect x="36" y="36" height="432" width="648" id="axes-box"/>
    </g>
    <g stroke="rgb(1,178,159)" fill="none" clip-path="url(#mask-1-2)">
      <path d="M36,269.947 64.174,267.208 92.348,328.09 120.522,80.562 148.696,103.375 176.87,307.556 205.043,274.432 233.217,225.389 261.391,220.551 289.565,315.23 317.739,135.423 345.913,183.04 374.087,344.451 402.261,305.266 430.435,321.334 458.609,285.863 486.783,319.611 514.957,313.761 543.13,362.158 571.304,347.372 599.478,261.666 627.652,352.149 655.826,399.645 684,404.005" id="data-line"/>
    </g>
  </g>
  <g id="side-1">
    <g id="axis-side-1">
      <g id="tick-labels" stroke="none" fill="#000000" text-anchor="middle">
        <text x="148.696" y="468" dy="1.0em">1995</text>
        <text x="289.565" y="468" dy="1.0em">2000</text>
        <text x="430.435" y="468" dy="1.0em">2005</text>
        <text x="571.304" y="468" dy="1.0em">2010</text>
      </g>
      <g id="ticks">
        <path d="M 148.696,468 v -5"/>
        <path d="M 289.565,468 v -5"/>
        <path d="M 430.435,468 v -5"/>
        <path d="M 571.304,468 v -5"/>
      </g>
    </g>
  </g>
  <g id="side-2">
    <g id="axis-side-2">
      <g id="tick-labels" stroke="none" fill="#000000" text-anchor="end">
        <text x="36" y="468" dx="-0.33em" dy="0.33em">0</text>
        <text x="36" y="335.077" dx="-0.33em" dy="0.33em">20</text>
        <text x="36" y="202.154" dx="-0.33em" dy="0.33em">40</text>
        <text x="36" y="69.231" dx="-0.33em" dy="0.33em">60</text>
      </g>
      <g id="ticks">
        <path d="M 36,468 h 5"/>
        <path d="M 36,335.077 h 5"/>
        <path d="M 36,202.154 h 5"/>
        <path d="M 36,69.231 h 5"/>
      </g>
    </g>
  </g>
</svg>