<svg xmlns="http://www.w3.org/2000/svg" xmlns:xlink="http://www.w3.org/1999/xlink" version="1.1" preserveAspectRatio="xMinYMin meet" viewBox="-100 0 920 504">
  <style>#tick-labels, #y-title {
  	font-family: Arial;
}
#data-line {
	stroke-linejoin: round;
	stroke-width:3;
}
#tick-labels {
	font-size: 12.00pt; 
}
.background-walleye, .background-largemouth-bass{
    -webkit-transition: 1s ease-in-out;
    -moz-transition: 1s ease-in-out;
    -o-transition: 1s ease-in-out;
    transition:  1s ease-in-out;
}
.background-walleye {
       fill:#01b29F;
       stroke:#01b29F;
       stroke-width:1;
       fill-opacity:0.2;
       stroke-opacity:0.25;
    }
.background-largemouth-bass, .moved-largemouth-bass {
       fill:#990000;
       stroke:#990000;
       stroke-width:1;
       fill-opacity:0.2;
       stroke-opacity:0.25;
    }
	
@keyframes background-largemouth-bass {
	  0%   {transform: translateY(0)}
	  25%  {transform: translateY(-25px)}
	  75%  {transform: translateY(25px)}
	  100% {transform: translateY(0)}
	}

	.moved-largemouth-bass {
	  animation: background-largemouth-bass 5s ease infinite;
	}
	
.moved-largemouth-bass {
	    -ms-transform: translate(-5px, 15px); /* IE 9 */
	    -webkit-transform: translate(-5px, 15px); /* Safari */
	    transform: translate(-5px, 15px);
	}
#y-title {
	font-size: 14.00pt; 
}</style>
  <text x="10" y="25" text-anchor="begin" id="y-title">Relative abundance</text>
  <g id="view-1-2">
    <defs>
      <clipPath id="mask-1-2">
        <rect x="36" y="36" height="432" width="648"/>
      </clipPath>
    </defs>
    <g id="axes" fill="none" stroke="#000000" stroke-width="1">
      <rect x="36" y="36" height="432" width="648" id="axes-box"/>
    </g>
    <g stroke="rgb(1,178,159)" fill="none" clip-path="url(#mask-1-2)">
      <path d="M36,201.494 63,176.301 90,228.304 117,229.992 144,246.471 171,221.64 198,236.891 225,230.395 252,187.357 279,224.715 306,180.519 333,283.578 360,260.708 387,270.098 414,301.62 441,250.612 468,229.742 495,255.15 522,241.933 549,274.062 576,304.277 603,362.424 630,241.976 657,261.225 684,306.742" id="data-line"/>
    </g>
  </g>
  <g id="side-1">
    <g id="axis-side-1">
      <g id="tick-labels" stroke="none" fill="#000000" text-anchor="middle">
        <text x="144" y="468" dy="1.0em">1995</text>
        <text x="279" y="468" dy="1.0em">2000</text>
        <text x="414" y="468" dy="1.0em">2005</text>
        <text x="549" y="468" dy="1.0em">2010</text>
      </g>
      <g id="ticks">
        <path d="M 144,468 v -5"/>
        <path d="M 279,468 v -5"/>
        <path d="M 414,468 v -5"/>
        <path d="M 549,468 v -5"/>
      </g>
    </g>
  </g>
  <g id="side-2">
    <g id="axis-side-2">
      <g id="tick-labels" stroke="none" fill="#000000" text-anchor="end">
        <text x="36" y="468" dx="-0.33em" dy="0.33em">0</text>
        <text x="36" y="384.923" dx="-0.33em" dy="0.33em">0.25</text>
        <text x="36" y="301.846" dx="-0.33em" dy="0.33em">0.5</text>
        <text x="36" y="218.769" dx="-0.33em" dy="0.33em">0.75</text>
        <text x="36" y="135.692" dx="-0.33em" dy="0.33em">1</text>
        <text x="36" y="52.615" dx="-0.33em" dy="0.33em">1.25</text>
      </g>
      <g id="ticks">
        <path d="M 36,468 h 5"/>
        <path d="M 36,384.923 h 5"/>
        <path d="M 36,301.846 h 5"/>
        <path d="M 36,218.769 h 5"/>
        <path d="M 36,135.692 h 5"/>
        <path d="M 36,52.615 h 5"/>
      </g>
    </g>
    <use x="20" y="100" xlink:href="#walleye" id='walleye-0' class='background-walleye'/>
    <use x="27" y="204" xlink:href="#walleye" id='walleye-1' class='background-walleye'/>
    <use x="42" y="330" xlink:href="#walleye" id='walleye-2' class='background-walleye'/>
    <use x="3" y="505" xlink:href="#walleye" id='walleye-3' class='background-walleye' transform="scale(0.8,0.8)"/>
    <use x="720" y="100" xlink:href="#largemouth-bass" id='largemouth-bass-0' class='background-largemouth-bass' onclick='evt.target.setAttribute("class","background-largemouth-bass moved-largemouth-bass")'/>
    <use x="727" y="204" xlink:href="#largemouth-bass" id='largemouth-bass-1' class='background-largemouth-bass'/>
    <use x="742" y="330" xlink:href="#largemouth-bass" id='largemouth-bass-2' class='background-largemouth-bass'/>
    <use x="953" y="505" xlink:href="#largemouth-bass" id='largemouth-bass-3' class='background-largemouth-bass' transform="scale(0.8,0.8)"/>
  </g>
  <defs>
    <path d="m -77.09283,4.1298534 c 0,0 -1.150639,-2.6848248 -0.383546,-3.83546413 0.767093,-1.1506392 6.136743,-2.68482487 6.136743,-2.68482487 l 9.205114,-1.9177321 10.355753,-3.0683713 10.7393,-4.986103 18.410228,-4.219011 -1.15064,-9.588661 1.917732,0 1.534186,-8.821567 3.451918,1.150639 0.767093,-6.520289 4.986103,1.150639 1.917732,-3.068371 1.9177321,2.301278 2.6848249,1.15064 0.3835464,-3.451918 1.5341857,0 L 0,-39.210892 l 3.0683713,-2.301278 1.1506393,0.383546 0.3835464,3.068371 3.8354641,-1.150639 1.9177319,3.451918 3.451918,-1.150639 1.150639,3.451917 3.068371,-2.301278 1.15064,4.21901 2.684825,-0.383546 0.383546,2.301279 3.068371,0.767092 0,1.917732 2.301279,0.383547 0,1.917732 2.684825,1.917732 0,0.767093 c 0,0 1.150639,1.534186 1.534185,3.451918 0.383547,1.917732 5.36965,1.917732 5.36965,1.917732 0,0 3.835464,-8.821568 6.903836,-13.424125 3.068371,-4.602557 6.520289,-6.136742 6.520289,-6.136742 l 3.451917,-0.767093 c 0,0 0.767093,0.383546 3.451918,2.301278 2.684825,1.917732 25.314064,21.862146 25.314064,21.862146 0,0 1.534185,0.767093 0.383546,1.917732 -1.150639,1.1506395 -4.986103,3.0683716 -4.986103,3.0683716 l 6.903835,1.1506392 8.821568,0 26.081158,-18.7937748 c 0,0 0.76709,-1.917732 3.45192,-1.534186 2.68482,0.383547 3.83546,4.219011 3.83546,4.219011 l 0,11.122846 c 0,0 0.38355,-0.767092 0,2.3012789 -0.38355,3.0683713 -4.21901,7.6709283 -4.21901,7.6709283 0,0 -0.38355,1.15063927 -0.38355,2.6848249 0,1.5341857 3.45192,5.7531963 3.45192,5.7531963 l 0.76709,1.917732 1.15064,8.4380206 -0.38354,9.205114 -3.06838,2.301279 c 0,0 -12.65703,-4.602557 -14.57476,-6.520289 -1.91773,-1.917733 -12.273484,-10.355754 -12.273484,-10.355754 0,0 -2.301279,-3.4519166 -3.451918,-3.4519166 -1.150639,0 -21.862146,3.4519166 -21.862146,3.4519166 l 0,1.534186 2.301279,3.835464 -5.36965,5.753196 -4.602557,7.670929 c 0,0 0,1.534185 -1.150639,3.451917 -1.150639,1.917732 -4.986104,2.684825 -7.287382,2.301279 -2.301279,-0.383547 -6.520289,-4.219011 -6.520289,-4.219011 L 42.957198,18.704617 c 0,0 -11.889938,1.917732 -21.095052,2.301278 -9.205114,0.383547 -19.9444139,0.383547 -25.3140637,0 -5.3696498,-0.383546 -4.9861034,0 -4.9861034,0 0,0 4.602557,2.301279 5.7531962,4.219011 1.1506392,1.917732 1.91773207,4.21901 1.91773207,4.21901 0,0 0.76709283,2.684825 -1.15063927,3.835465 -1.917732,1.150639 -5.3696498,2.684824 -6.1367426,4.986103 -0.7670928,2.301278 -0.3835464,5.753196 -2.6848253,5.753196 -2.301278,0 -7.670928,-6.136742 -7.670928,-8.054475 0,-1.917732 -4.602557,-12.657031 -4.21901,-13.80767 0.383546,-1.15064 -16.492496,-2.684825 -21.862146,-4.219011 -5.36965,-1.534186 -20.32796,-5.753196 -20.32796,-5.753196 L -75.94219,10.266596 c 0,0 0,-0.3835456 -1.150639,-1.9177316 -1.150639,-1.534186 -1e-6,-4.219011 -1e-6,-4.219011 z" id="walleye" transform="scale(-1,1)"/>
    <path d="m -84.380212,4.5133995 4.602557,-4.21901102 7.670929,-6.13674198 9.58866,-3.835464 19.177321,-10.7392995 c 0,0 15.341852,-4.986104 23.012782,-5.36965 7.67093,-0.383547 1.91773,-4.986104 1.91773,-4.986104 l 2.68483,0.383547 0.38355,-3.835465 2.68482,2.684825 4.2190103,-4.986103 0.76709,3.451918 4.60256,-6.136743 1.53419,-1.150639 1.5341800262923,0 -1.5341800262923,4.602557 5.36965,-2.684825 1.53418,1.917732 -1.53418,3.068371 4.60255,-0.767093 -0.38354,3.068372 2.6848197,0 0.7671,2.301278 3.06837,-0.767093 1.53418,1.917733 0.38355,0.767092 2.68482,0 1.53419,1.15064 c 0,0 8.43802,-8.054475 18.02668,-10.7393 9.58866,-2.684825 19.17732,1.534186 19.17732,1.534186 0,0 5.7532,2.684825 6.13674,8.054474 0.38355,5.36965 0.7671,8.054475 -0.76709,9.588661 -1.53418,1.534185 -8.82157,2.684825 -8.82157,2.684825 l -0.38354,2.684825 c 0,0 6.13674,2.6848245 15.34185,1.917732 9.20512,-0.767093 9.58866,-0.767093 9.58866,-0.767093 l 9.97221,-5.753196 c 0,0 12.657033,-7.670929 17.259593,-8.054475 4.60256,-0.383547 5.7532,0 5.7532,0 0,0 4.9861,5.753196 4.60255,9.205114 -0.38354,3.451918 -5.75319,8.8215675 -6.90383,11.8899395 -1.15064,3.06837098 0.76709,6.520289 0.76709,6.520289 0,0 4.60256,6.520286 4.60256,9.9722055 0,3.45192 -1.15064,7.67093 -3.06837,8.82157 -1.91774,1.15064 -6.52029,1.53418 -8.05448,1.15064 -1.53418,-0.38355 -22.245693,-11.5064 -22.245693,-11.5064 0,0 -11.50639,-2.6848195 -19.17732,-1.9177295 -7.67093,0.7670995 -7.28738,2.3012795 -7.28738,2.3012795 l 8.43802,2.68483 c 0,0 2.68482,1.15064 2.68482,2.68482 0,1.53419 -0.76709,9.20511 -3.06837,11.88994 -2.30128,2.68482 -5.7532,5.7532 -10.35575,5.7532 -4.60256,0 -11.88994,-3.45192 -11.88994,-3.45192 L 27.615337,25.992 26.081157,23.30717 c 0,0 -2.30128,1.53419 -12.27349,2.68483 -9.9721997,1.15064 -30.30016,-0.76709 -30.30016,-0.76709 0,0 7.2873803,1.91773 8.4380203,3.45191 1.15064,1.53419 1.15064,4.98611 1.15064,4.98611 0,0 0.38354,2.68482 1.15064,4.21901 0.76709,1.53418 0.76709,5.36965 -1.15064,4.9861 -1.91773,-0.38355 -10.3557603,-4.9861 -13.0405803,-8.43802 -2.68483,-3.45192 -5.36965,-7.28738 -5.36965,-7.28738 0,0 -17.25959,0.76709 -19.560868,-0.38355 -2.301278,-1.15064 -14.191217,-4.60256 -14.191217,-4.60256 0,0 -5.753196,-0.38354 -9.205114,-1.15063 -3.451918,-0.7671 -9.972207,-4.60256 -9.972207,-4.60256 l -6.520289,-5.7532 c 0,0 -1.917732,-0.38354 -2.301278,-1.9177295 -0.383547,-1.534186 2.684824,-4.219011 2.684824,-4.219011 z" id="largemouth-bass"/>
    </defs>
</svg>