<?xml version="1.0" encoding="UTF-8"?>
<svg xmlns="http://www.w3.org/2000/svg" xmlns:xlink="http://www.w3.org/1999/xlink" viewBox="0 0 504.00 504.00">
  <defs>
    <style type="text/css"><![CDATA[
    line, polyline, path, rect, circle {
      fill: none;
      stroke: #000000;
      stroke-linecap: round;
      stroke-linejoin: round;
      stroke-miterlimit: 10.00;
    }
  ]]></style>
  </defs>
  <rect width="100%" height="100%" style="stroke: none; fill: #FFFFFF;"/>
  <rect x="0.00" y="0.00" width="504.00" height="504.00" style="stroke-width: 1.07; stroke: #FFFFFF; fill: #FFFFFF;"/>
  <defs>
    <clipPath id="cp1">
      <rect x="52.14" y="4.98" width="446.87" height="462.78"/>
    </clipPath>
  </defs>
  <rect x="52.14" y="4.98" width="446.87" height="462.78" style="stroke-width: 1.07; stroke: none; fill: #FFFFFF;" clip-path="url(#cp1)"/>
  <polyline points="52.14,412.50 499.02,412.50 " style="stroke-width: 1.07; stroke: #FAFAFA; stroke-linecap: butt;" clip-path="url(#cp1)"/>
  <polyline points="52.14,288.10 499.02,288.10 " style="stroke-width: 1.07; stroke: #FAFAFA; stroke-linecap: butt;" clip-path="url(#cp1)"/>
  <polyline points="52.14,163.71 499.02,163.71 " style="stroke-width: 1.07; stroke: #FAFAFA; stroke-linecap: butt;" clip-path="url(#cp1)"/>
  <polyline points="52.14,39.32 499.02,39.32 " style="stroke-width: 1.07; stroke: #FAFAFA; stroke-linecap: butt;" clip-path="url(#cp1)"/>
  <polyline points="52.14,350.30 499.02,350.30 " style="stroke-width: 0.53; stroke: #E5E5E5; stroke-linecap: butt;" clip-path="url(#cp1)"/>
  <polyline points="52.14,225.91 499.02,225.91 " style="stroke-width: 0.53; stroke: #E5E5E5; stroke-linecap: butt;" clip-path="url(#cp1)"/>
  <polyline points="52.14,101.52 499.02,101.52 " style="stroke-width: 0.53; stroke: #E5E5E5; stroke-linecap: butt;" clip-path="url(#cp1)"/>
  <polyline points="72.46,360.99 76.15,364.67 79.84,377.72 83.54,370.39 87.23,360.80 90.92,361.25 94.62,356.56 98.31,356.56 102.00,353.76 105.70,349.65 109.39,350.30 113.08,345.34 116.77,344.09 120.47,346.41 124.16,341.89 127.85,336.81 131.55,334.81 135.24,334.27 138.93,335.86 142.63,333.73 146.32,332.10 150.01,329.18 153.71,325.62 157.40,324.97 161.09,323.04 164.79,319.49 168.48,315.26 172.17,312.47 175.87,310.54 179.56,309.38 183.25,304.69 186.95,310.81 190.64,308.46 194.33,304.22 198.02,299.92 201.72,298.74 205.41,303.06 209.10,305.25 212.80,299.66 216.49,291.40 220.18,291.42 223.88,285.46 227.57,280.08 231.26,280.22 234.96,280.59 238.65,281.10 242.34,272.78 246.04,274.01 249.73,268.68 253.42,269.97 257.12,265.36 260.81,259.86 264.50,255.71 268.20,255.46 271.89,254.19 275.58,249.97 279.27,244.57 282.97,244.03 286.66,240.10 290.35,233.33 294.05,234.25 297.74,235.74 301.43,228.26 305.13,220.45 308.82,217.73 312.51,220.07 316.21,215.75 319.90,214.41 323.59,209.08 327.29,198.22 330.98,192.88 334.67,191.15 338.37,192.35 342.06,189.76 345.75,186.07 349.44,188.78 353.14,175.56 356.83,175.69 360.52,167.43 364.22,164.57 367.91,157.42 371.60,154.71 375.30,149.30 378.99,149.47 382.68,142.25 386.38,133.94 390.07,129.06 393.76,129.39 397.46,121.19 401.15,116.75 404.84,114.04 408.54,109.26 412.23,103.56 415.92,95.42 419.62,94.45 423.31,95.54 427.00,92.74 430.69,80.99 434.39,75.04 438.08,77.11 441.77,69.17 445.47,70.32 449.16,62.75 452.85,65.03 456.55,50.35 460.24,43.70 463.93,49.32 467.63,40.15 471.32,26.66 475.01,26.02 475.01,77.50 471.32,83.60 467.63,84.82 463.93,80.71 460.24,91.60 456.55,96.75 452.85,103.86 449.16,104.58 445.47,107.73 441.77,107.44 438.08,115.10 434.39,110.62 430.69,117.13 427.00,122.51 423.31,117.00 419.62,120.76 415.92,136.45 412.23,130.53 408.54,141.86 404.84,152.40 401.15,141.47 397.46,152.01 393.76,168.98 390.07,151.87 386.38,165.21 382.68,166.60 378.99,175.99 375.30,169.84 371.60,190.21 367.91,187.39 364.22,188.24 360.52,188.32 356.83,204.49 353.14,196.94 349.44,203.38 345.75,217.38 342.06,211.56 338.37,210.76 334.67,220.31 330.98,221.52 327.29,234.20 323.59,235.11 319.90,233.17 316.21,232.77 312.51,233.22 308.82,234.81 305.13,240.13 301.43,244.33 297.74,262.39 294.05,263.10 290.35,252.34 286.66,261.88 282.97,268.69 279.27,267.81 275.58,268.01 271.89,269.72 268.20,276.98 264.50,273.39 260.81,275.82 257.12,281.18 253.42,285.04 249.73,289.14 246.04,289.71 242.34,289.52 238.65,293.58 234.96,296.40 231.26,296.24 227.57,296.39 223.88,305.89 220.18,308.74 216.49,312.81 212.80,311.98 209.10,313.30 205.41,316.08 201.72,316.62 198.02,321.07 194.33,315.96 190.64,320.97 186.95,317.80 183.25,324.35 179.56,328.53 175.87,330.51 172.17,332.68 168.48,326.69 164.79,330.97 161.09,332.87 157.40,333.77 153.71,336.09 150.01,337.82 146.32,342.05 142.63,345.90 138.93,345.02 135.24,347.29 131.55,345.01 127.85,349.75 124.16,347.47 120.47,357.77 116.77,355.84 113.08,352.61 109.39,350.30 105.70,359.51 102.00,366.83 98.31,363.98 94.62,368.35 90.92,373.71 87.23,375.72 83.54,384.78 79.84,401.38 76.15,380.70 72.46,370.96 " style="stroke-width: 1.07; stroke: #D2691E; fill: #D2691E; fill-opacity: 0.50;" clip-path="url(#cp1)"/>
  <polyline points="72.46,358.24 76.15,361.78 79.84,366.49 83.54,359.57 87.23,362.57 90.92,358.41 94.62,354.61 98.31,356.43 102.00,351.24 105.70,349.16 109.39,350.30 113.08,348.19 116.77,343.85 120.47,341.16 124.16,339.50 127.85,337.49 131.55,336.34 135.24,333.64 138.93,333.69 142.63,330.62 146.32,327.55 150.01,323.35 153.71,321.94 157.40,324.17 161.09,317.76 164.79,319.62 168.48,315.46 172.17,312.08 175.87,309.02 179.56,311.39 183.25,305.51 186.95,298.15 190.64,306.71 194.33,304.33 198.02,299.74 201.72,299.32 205.41,303.41 209.10,300.06 212.80,298.61 216.49,299.10 220.18,291.94 223.88,290.92 227.57,290.11 231.26,290.46 234.96,286.41 238.65,288.60 242.34,289.92 246.04,285.06 249.73,281.26 253.42,283.45 257.12,279.30 260.81,274.33 264.50,276.51 268.20,274.12 271.89,267.69 275.58,271.94 279.27,267.81 282.97,263.83 286.66,261.80 290.35,266.40 294.05,264.13 297.74,264.84 301.43,251.10 305.13,251.90 308.82,252.92 312.51,248.82 316.21,247.62 319.90,248.44 323.59,238.14 327.29,235.04 330.98,239.60 334.67,235.40 338.37,235.94 342.06,231.62 345.75,232.47 349.44,226.62 353.14,224.79 356.83,231.56 360.52,230.69 364.22,230.11 367.91,226.30 371.60,213.74 375.30,212.14 378.99,222.08 382.68,216.23 386.38,211.73 390.07,213.52 393.76,214.27 397.46,206.56 401.15,215.06 404.84,212.75 408.54,203.46 412.23,200.26 415.92,203.07 419.62,202.29 423.31,211.48 427.00,208.79 430.69,202.23 434.39,209.91 438.08,202.33 441.77,196.05 445.47,196.79 449.16,208.26 452.85,201.89 456.55,191.68 460.24,201.83 463.93,197.82 467.63,190.23 471.32,186.48 475.01,199.16 478.71,209.78 478.71,209.78 475.01,226.52 471.32,230.90 467.63,230.57 463.93,228.89 460.24,237.00 456.55,232.64 452.85,238.03 449.16,233.40 445.47,234.10 441.77,228.63 438.08,232.25 434.39,235.40 430.69,229.22 427.00,233.99 423.31,241.26 419.62,237.35 415.92,233.68 412.23,236.58 408.54,232.27 404.84,238.99 401.15,237.83 397.46,243.56 393.76,241.57 390.07,244.08 386.38,244.82 382.68,243.09 378.99,248.46 375.30,246.87 371.60,247.96 367.91,253.04 364.22,247.22 360.52,246.17 356.83,250.91 353.14,255.62 349.44,248.53 345.75,258.67 342.06,256.01 338.37,258.98 334.67,257.54 330.98,264.14 327.29,259.48 323.59,263.96 319.90,269.21 316.21,272.13 312.51,271.79 308.82,273.29 305.13,269.80 301.43,281.63 297.74,279.83 294.05,285.02 290.35,284.52 286.66,289.13 282.97,288.55 279.27,285.21 275.58,290.61 271.89,287.79 268.20,287.02 264.50,293.21 260.81,292.90 257.12,292.19 253.42,297.60 249.73,295.56 246.04,300.22 242.34,300.30 238.65,299.18 234.96,302.39 231.26,302.59 227.57,304.26 223.88,308.03 220.18,311.83 216.49,307.63 212.80,313.04 209.10,311.93 205.41,317.94 201.72,314.41 198.02,315.37 194.33,318.03 190.64,319.90 186.95,320.40 183.25,322.40 179.56,322.94 175.87,322.35 172.17,327.64 168.48,327.55 164.79,328.53 161.09,334.06 157.40,333.23 153.71,333.05 150.01,334.16 146.32,343.05 142.63,350.47 138.93,346.08 135.24,343.12 131.55,346.85 127.85,346.31 124.16,350.34 120.47,347.61 116.77,349.90 113.08,350.64 109.39,350.30 105.70,356.74 102.00,360.94 98.31,361.28 94.62,365.08 90.92,372.12 87.23,376.21 83.54,383.81 79.84,394.61 76.15,378.10 72.46,370.10 " style="stroke-width: 1.07; stroke: #1E90FF; fill: #1E90FF; fill-opacity: 0.50;" clip-path="url(#cp1)"/>
  <polyline points="72.46,365.63 76.15,371.49 79.84,386.39 83.54,375.69 87.23,368.67 90.92,366.73 94.62,362.43 98.31,359.83 102.00,359.81 105.70,356.04 109.39,350.30 113.08,349.36 116.77,349.77 120.47,350.22 124.16,345.90 127.85,341.96 131.55,339.87 135.24,339.80 138.93,338.56 142.63,339.53 146.32,335.34 150.01,332.32 153.71,331.96 157.40,331.98 161.09,329.09 164.79,326.07 168.48,321.37 172.17,323.47 175.87,323.64 179.56,318.93 183.25,318.11 186.95,317.19 190.64,314.29 194.33,310.53 198.02,310.02 201.72,306.21 205.41,308.24 209.10,308.91 212.80,304.87 216.49,303.59 220.18,300.71 223.88,298.49 227.57,293.25 231.26,289.10 234.96,287.86 238.65,287.79 242.34,281.63 246.04,282.02 249.73,279.64 253.42,277.84 257.12,274.97 260.81,268.98 264.50,266.98 268.20,265.54 271.89,262.99 275.58,259.27 279.27,257.99 282.97,256.30 286.66,250.69 290.35,245.98 294.05,247.96 297.74,244.42 301.43,237.40 305.13,231.94 308.82,229.56 312.51,229.17 316.21,225.60 319.90,220.80 323.59,220.30 327.29,214.84 330.98,209.54 334.67,207.12 338.37,203.65 342.06,198.81 345.75,199.49 349.44,195.30 353.14,188.13 356.83,185.37 360.52,181.84 364.22,177.68 367.91,171.79 371.60,171.18 375.30,161.50 378.99,161.46 382.68,158.99 386.38,150.70 390.07,145.96 393.76,146.73 397.46,141.14 401.15,134.56 404.84,133.52 408.54,127.13 412.23,121.10 415.92,117.61 419.62,111.59 423.31,109.52 427.00,110.09 430.69,105.86 434.39,100.26 438.08,96.30 441.77,92.21 445.47,91.16 449.16,83.58 452.85,82.24 456.55,76.63 460.24,73.09 463.93,67.12 467.63,64.80 471.32,58.80 475.01,53.90 " style="stroke-width: 3.20; stroke: #D2691E; stroke-linecap: butt;" clip-path="url(#cp1)"/>
  <polyline points="72.46,364.57 76.15,369.77 79.84,381.37 83.54,374.12 87.23,368.39 90.92,365.02 94.62,360.85 98.31,358.34 102.00,357.39 105.70,354.27 109.39,350.30 113.08,350.90 116.77,348.65 120.47,345.22 124.16,341.57 127.85,342.69 131.55,342.43 135.24,338.82 138.93,338.14 142.63,339.26 146.32,334.43 150.01,326.56 153.71,327.55 157.40,329.32 161.09,323.23 164.79,322.33 168.48,319.75 172.17,318.10 175.87,315.25 179.56,315.33 183.25,312.54 186.95,307.87 190.64,309.51 194.33,309.80 198.02,305.40 201.72,307.17 205.41,307.15 209.10,303.58 212.80,303.37 216.49,300.87 220.18,297.76 223.88,296.40 227.57,294.97 231.26,294.18 234.96,292.46 238.65,292.67 242.34,292.72 246.04,289.91 249.73,286.09 253.42,285.44 257.12,283.58 260.81,281.43 264.50,280.51 268.20,277.32 271.89,275.79 275.58,276.93 279.27,274.22 282.97,271.58 286.66,270.03 290.35,269.59 294.05,269.49 297.74,266.70 301.43,260.92 305.13,260.10 308.82,261.12 312.51,259.86 316.21,257.37 319.90,255.81 323.59,249.74 327.29,247.23 330.98,249.17 334.67,247.09 338.37,245.68 342.06,242.65 345.75,242.17 349.44,237.94 353.14,238.31 356.83,239.42 360.52,234.15 364.22,234.17 367.91,233.22 371.60,228.37 375.30,228.31 378.99,232.84 382.68,229.39 386.38,225.47 390.07,226.83 393.76,222.75 397.46,223.68 401.15,223.82 404.84,220.95 408.54,219.49 412.23,217.73 415.92,217.83 419.62,217.67 423.31,217.14 427.00,217.10 430.69,213.49 434.39,215.90 438.08,213.89 441.77,209.93 445.47,210.35 449.16,213.33 452.85,212.47 456.55,208.99 460.24,207.32 463.93,207.89 467.63,207.79 471.32,205.56 475.01,206.86 478.71,209.78 " style="stroke-width: 3.20; stroke: #1E90FF; stroke-linecap: butt;" clip-path="url(#cp1)"/>
  <line x1="168.48" y1="467.76" x2="168.48" y2="4.98" style="stroke-width: 1.07; stroke-linecap: butt;" clip-path="url(#cp1)"/>
  <defs>
    <clipPath id="cp2">
      <rect x="0.00" y="0.00" width="504.00" height="504.00"/>
    </clipPath>
  </defs>
  <polyline points="52.14,467.76 52.14,4.98 " style="stroke-width: 1.07; stroke-linecap: butt;" clip-path="url(#cp2)"/>
  <g clip-path="url(#cp2)">
    <text x="25.42" y="356.04" style="font-size: 12.00pt; font-family: Helvetica;">0.0</text>
  </g>
  <g clip-path="url(#cp2)">
    <text x="25.42" y="231.65" style="font-size: 12.00pt; font-family: Helvetica;">2.5</text>
  </g>
  <g clip-path="url(#cp2)">
    <text x="25.42" y="107.25" style="font-size: 12.00pt; font-family: Helvetica;">5.0</text>
  </g>
  <polyline points="49.65,350.30 52.14,350.30 " style="stroke-width: 1.07; stroke-linecap: butt;" clip-path="url(#cp2)"/>
  <polyline points="49.65,225.91 52.14,225.91 " style="stroke-width: 1.07; stroke-linecap: butt;" clip-path="url(#cp2)"/>
  <polyline points="49.65,101.52 52.14,101.52 " style="stroke-width: 1.07; stroke-linecap: butt;" clip-path="url(#cp2)"/>
  <polyline points="52.14,467.76 499.02,467.76 " style="stroke-width: 1.07; stroke-linecap: butt;" clip-path="url(#cp2)"/>
  <polyline points="72.46,470.25 72.46,467.76 " style="stroke-width: 1.07; stroke-linecap: butt;" clip-path="url(#cp2)"/>
  <polyline points="146.32,470.25 146.32,467.76 " style="stroke-width: 1.07; stroke-linecap: butt;" clip-path="url(#cp2)"/>
  <polyline points="220.18,470.25 220.18,467.76 " style="stroke-width: 1.07; stroke-linecap: butt;" clip-path="url(#cp2)"/>
  <polyline points="294.05,470.25 294.05,467.76 " style="stroke-width: 1.07; stroke-linecap: butt;" clip-path="url(#cp2)"/>
  <polyline points="367.91,470.25 367.91,467.76 " style="stroke-width: 1.07; stroke-linecap: butt;" clip-path="url(#cp2)"/>
  <polyline points="441.77,470.25 441.77,467.76 " style="stroke-width: 1.07; stroke-linecap: butt;" clip-path="url(#cp2)"/>
  <g clip-path="url(#cp2)">
    <text x="54.66" y="483.72" style="font-size: 12.00pt; font-family: Helvetica;">1990</text>
  </g>
  <g clip-path="url(#cp2)">
    <text x="128.52" y="483.72" style="font-size: 12.00pt; font-family: Helvetica;">2010</text>
  </g>
  <g clip-path="url(#cp2)">
    <text x="202.39" y="483.72" style="font-size: 12.00pt; font-family: Helvetica;">2030</text>
  </g>
  <g clip-path="url(#cp2)">
    <text x="276.25" y="483.72" style="font-size: 12.00pt; font-family: Helvetica;">2050</text>
  </g>
  <g clip-path="url(#cp2)">
    <text x="350.11" y="483.72" style="font-size: 12.00pt; font-family: Helvetica;">2070</text>
  </g>
  <g clip-path="url(#cp2)">
    <text x="423.98" y="483.72" style="font-size: 12.00pt; font-family: Helvetica;">2090</text>
  </g>
  <g clip-path="url(#cp2)">
    <text x="253.05" y="499.02" style="font-size: 16.00pt; font-family: Helvetica;">Year</text>
  </g>
  <g clip-path="url(#cp2)">
    <text transform="translate(20.70,368.10) rotate(-90)" style="font-size: 16.00pt; font-family: Helvetica;">C</text>
  </g>
  <g clip-path="url(#cp2)">
    <text transform="translate(20.70,352.69) rotate(-90)" style="font-size: 16.00pt; font-family: Helvetica;">h</text>
  </g>
  <g clip-path="url(#cp2)">
    <text transform="translate(20.70,340.83) rotate(-90)" style="font-size: 16.00pt; font-family: Helvetica;">a</text>
  </g>
  <g clip-path="url(#cp2)">
    <text transform="translate(20.70,328.96) rotate(-90)" style="font-size: 16.00pt; font-family: Helvetica;">n</text>
  </g>
  <g clip-path="url(#cp2)">
    <text transform="translate(20.70,317.10) rotate(-90)" style="font-size: 16.00pt; font-family: Helvetica;">g</text>
  </g>
  <g clip-path="url(#cp2)">
    <text transform="translate(20.70,305.23) rotate(-90)" style="font-size: 16.00pt; font-family: Helvetica;">e</text>
  </g>
  <g clip-path="url(#cp2)">
    <text transform="translate(20.70,293.37) rotate(-90)" style="font-size: 16.00pt; font-family: symbol;"> </text>
  </g>
  <g clip-path="url(#cp2)">
    <text transform="translate(20.70,288.04) rotate(-90)" style="font-size: 16.00pt; font-family: Helvetica;">f</text>
  </g>
  <g clip-path="url(#cp2)">
    <text transform="translate(20.70,282.11) rotate(-90)" style="font-size: 16.00pt; font-family: Helvetica;">r</text>
  </g>
  <g clip-path="url(#cp2)">
    <text transform="translate(20.70,275.00) rotate(-90)" style="font-size: 16.00pt; font-family: Helvetica;">o</text>
  </g>
  <g clip-path="url(#cp2)">
    <text transform="translate(20.70,263.14) rotate(-90)" style="font-size: 16.00pt; font-family: Helvetica;">m</text>
  </g>
  <g clip-path="url(#cp2)">
    <text transform="translate(20.70,245.37) rotate(-90)" style="font-size: 16.00pt; font-family: symbol;"> </text>
  </g>
  <g clip-path="url(#cp2)">
    <text transform="translate(20.70,240.04) rotate(-90)" style="font-size: 16.00pt; font-family: Helvetica;">y</text>
  </g>
  <g clip-path="url(#cp2)">
    <text transform="translate(20.70,229.37) rotate(-90)" style="font-size: 16.00pt; font-family: Helvetica;">e</text>
  </g>
  <g clip-path="url(#cp2)">
    <text transform="translate(20.70,217.50) rotate(-90)" style="font-size: 16.00pt; font-family: Helvetica;">a</text>
  </g>
  <g clip-path="url(#cp2)">
    <text transform="translate(20.70,205.64) rotate(-90)" style="font-size: 16.00pt; font-family: Helvetica;">r</text>
  </g>
  <g clip-path="url(#cp2)">
    <text transform="translate(20.70,198.54) rotate(-90)" style="font-size: 16.00pt; font-family: symbol;"> </text>
  </g>
  <g clip-path="url(#cp2)">
    <text transform="translate(20.70,193.20) rotate(-90)" style="font-size: 16.00pt; font-family: Helvetica;">2000</text>
  </g>
  <g clip-path="url(#cp2)">
    <text transform="translate(20.70,145.74) rotate(-90)" style="font-size: 16.00pt; font-family: symbol;"> </text>
  </g>
  <g clip-path="url(#cp2)">
    <text transform="translate(20.70,140.41) rotate(-90)" style="font-size: 16.00pt; font-family: Helvetica;">(</text>
  </g>
  <g clip-path="url(#cp2)">
    <text transform="translate(20.70,133.31) rotate(-90)" style="font-size: 16.00pt; font-family: symbol;">°</text>
  </g>
  <g clip-path="url(#cp2)">
    <text transform="translate(20.70,124.78) rotate(-90)" style="font-size: 16.00pt; font-family: Helvetica;">F</text>
  </g>
  <g clip-path="url(#cp2)">
    <text transform="translate(20.70,111.74) rotate(-90)" style="font-size: 16.00pt; font-family: Helvetica;">)</text>
  </g>
  <rect x="63.40" y="19.92" width="290.30" height="62.69" style="stroke-width: 1.07; stroke: none; fill: #FFFFFF;" clip-path="url(#cp2)"/>
  <g clip-path="url(#cp2)">
    <text x="67.65" y="39.47" style="font-size: 16.00pt; font-family: Helvetica;">Warming Scenario</text>
  </g>
  <rect x="67.65" y="43.79" width="17.28" height="17.28" style="stroke-width: 1.07; stroke: #FFFFFF; fill: #FFFFFF;" clip-path="url(#cp2)"/>
  <rect x="68.36" y="44.50" width="15.86" height="15.86" style="stroke-width: 1.07; stroke: none; stroke-linejoin: miter; fill: #D2691E; fill-opacity: 0.50;" clip-path="url(#cp2)"/>
  <rect x="67.65" y="61.07" width="17.28" height="17.28" style="stroke-width: 1.07; stroke: #FFFFFF; fill: #FFFFFF;" clip-path="url(#cp2)"/>
  <rect x="68.36" y="61.78" width="15.86" height="15.86" style="stroke-width: 1.07; stroke: none; stroke-linejoin: miter; fill: #1E90FF; fill-opacity: 0.50;" clip-path="url(#cp2)"/>
  <g clip-path="url(#cp2)">
    <text x="87.09" y="58.17" style="font-size: 12.00pt; font-family: Helvetica;">High greenhouse gas emissions (A2)</text>
  </g>
  <g clip-path="url(#cp2)">
    <text x="87.09" y="75.45" style="font-size: 12.00pt; font-family: Helvetica;">Low greenhouse gas emissions (B1)</text>
  </g>
</svg>
