<?xml version="1.0" encoding="UTF-8" standalone="no"?>
<!-- Created with Inkscape (http://www.inkscape.org/) -->

<svg
   xmlns:dc="http://purl.org/dc/elements/1.1/"
   xmlns:cc="http://creativecommons.org/ns#"
   xmlns:rdf="http://www.w3.org/1999/02/22-rdf-syntax-ns#"
   xmlns:svg="http://www.w3.org/2000/svg"
   xmlns="http://www.w3.org/2000/svg"
   xmlns:sodipodi="http://sodipodi.sourceforge.net/DTD/sodipodi-0.dtd"
   xmlns:inkscape="http://www.inkscape.org/namespaces/inkscape"
   width="210mm"
   height="297mm"
   viewBox="0 0 744.09448819 1052.3622047"
   id="svg2"
   version="1.1"
   inkscape:version="0.91 r13725"
   sodipodi:docname="lake_trout.svg">
  <defs
     id="defs4" />
  <sodipodi:namedview
     id="base"
     pagecolor="#ffffff"
     bordercolor="#666666"
     borderopacity="1.0"
     inkscape:pageopacity="0.0"
     inkscape:pageshadow="2"
     inkscape:zoom="6.4949498"
     inkscape:cx="29.724847"
     inkscape:cy="1050.3419"
     inkscape:document-units="px"
     inkscape:current-layer="layer1"
     showgrid="false"
     inkscape:window-width="1680"
     inkscape:window-height="1001"
     inkscape:window-x="0"
     inkscape:window-y="1"
     inkscape:window-maximized="1" />
  <metadata
     id="metadata7">
    <rdf:RDF>
      <cc:Work
         rdf:about="">
        <dc:format>image/svg+xml</dc:format>
        <dc:type
           rdf:resource="http://purl.org/dc/dcmitype/StillImage" />
        <dc:title></dc:title>
      </cc:Work>
    </rdf:RDF>
  </metadata>
  <g
     inkscape:label="Layer 1"
     inkscape:groupmode="layer"
     id="layer1">
    <path
       style="fill:none;fill-rule:evenodd;stroke:#000000;stroke-width:1.16198349px;stroke-linecap:butt;stroke-linejoin:miter;stroke-opacity:1"
       d="m -76.432423,3.646062 c 0,-4.4520503 1.035264,-5.1940586 2.24307,-6.4925732 1.207808,-1.2985146 13.458421,-8.1620918 18.117106,-10.0171118 4.658684,-1.855021 11.215351,-5.008557 17.254386,-6.121569 6.039034,-1.113013 21.05035,-4.266549 30.5402626,-4.266549 9.4899123,0 24.5012284,0.371005 24.5012284,0.371005 0,0 0.172543,-3.52454 6.211579,-10.573619 6.039035,-7.049079 10.525175,-11.130125 10.525175,-11.130125 0,0 0.862719,-0.742009 1.725439,-0.742009 0.862719,0 2.415614,1.113013 3.105789,1.855021 0.690175,0.742008 5.176315,7.04908 6.384123,9.275104 1.207807,2.226025 4.313596,6.307072 4.48614,7.420084 0.172544,1.113013 2.24307,2.040523 1.035264,3.524539 -1.207808,1.484017 -4.831229,3.52454 -4.831229,3.52454 0,0 7.074298,0.185503 11.905526,0.92751 4.187453,0.643133 22.258158,5.379561 22.258158,5.379561 0,0 2.24307,-1.669519 3.968509,-2.782531 1.725439,-1.113013 3.623421,-1.113013 4.141053,-1.113013 0.517631,0 2.24307,1.113013 2.24307,1.113013 l -0.517632,3.153535 c 0,0 -0.690176,-0.185502 -0.172543,0.927511 0.517631,1.113012 1.552894,0.92751 1.552894,0.92751 l 8.454645,0.92751 5.52141,0 11.56044,-11.68663 c 0,0 1.38035,-3.339038 8.79974,-7.420085 7.41937,-4.081045 11.21534,-5.194057 11.21534,-5.194057 l 1.38036,0.371003 c 0,0 1.89798,4.081046 -0.17255,9.831611 -2.07053,5.750565 -6.90175,15.7676772 -7.59193,16.5096855 -0.69018,0.7420083 -1.89799,2.9680334 -2.41561,4.8230542 -0.51763,1.8550209 0,4.0810459 0.86272,5.9360663 0.86271,1.855021 1.55289,5.936067 3.62342,10.202615 2.07053,4.266548 3.79596,5.750565 3.96851,7.420084 0.17254,1.669518 1.03525,5.008556 0.17254,5.565062 -0.86272,0.556507 -3.79596,0.556507 -5.17632,0 -1.38034,-0.556506 -9.31736,-4.081046 -13.28587,-7.605586 -3.96851,-3.52454 -10.35264,-8.347593 -11.3879,-9.275104 -1.03526,-0.92751 -2.93324,-1.669519 -2.93324,-1.669519 0,0 -7.0743,0.185503 -8.28211,0.556507 -1.207805,0.371004 -1.552893,1.855021 -1.552893,1.855021 0,0 0.517631,4.452049 0.517631,6.863576 0,2.411527 -0.690175,8.718599 -1.035263,9.646109 -0.345088,0.927511 -0.690175,2.968033 -2.24307,3.153536 -1.552894,0.185502 -3.795965,0.742008 -5.866491,0.185502 -2.070526,-0.556507 -6.556667,-2.968034 -8.282105,-4.081046 -1.725439,-1.113013 -7.591931,-5.565063 -7.591931,-5.565063 l 0,-1.113012 c 0,0 -3.968508,1.298514 -5.693946,1.484017 -1.725439,0.185502 -14.321141,0.556505 -14.321141,0.556505 0,0 -0.345087,1.669519 0,2.968034 0.345088,1.298514 1.380351,5.936067 1.725439,7.420084 0.345087,1.484016 0.862719,2.597029 0.517631,3.710041 -0.345087,1.113013 -4.658684,0.556507 -4.658684,0.556507 0,0 0.345088,1.484016 -2.760701,-1.298516 -3.10579,-2.78253 -11.387896,-7.791086 -11.732983,-9.089602 -0.345088,-1.298514 -1.207807,-2.411526 -1.207807,-2.411526 0,0 -13.285878,1.855021 -17.081842,1.855021 -3.795965,0 -20.5327192,-0.371005 -21.5679824,-0.556507 -1.0352634,-0.185502 -1.2078075,0.92751 -1.2078075,0.92751 0,0 1.2078075,2.226026 1.2078075,4.452051 l 0,4.266548 -2.4156136,0.185502 c 0,0 -1.552895,0.185501 -2.760702,-0.371005 -1.207807,-0.556506 -5.521403,-3.52454 -9.489912,-7.976589 -3.968509,-4.45205 -4.831228,-5.750564 -4.831228,-5.750564 0,0 -10.007544,-0.371005 -20.360176,-2.411528 -10.352632,-2.040523 -19.67,-3.710041 -21.740526,-5.194058 -2.070526,-1.484017 -5.693948,-2.226025 -6.211579,-4.45205 -0.517631,-2.226025 -0.345088,-4.266548 -0.345088,-4.266548 z"
       id="path3479"
       inkscape:connector-curvature="0"
       sodipodi:nodetypes="csssscscssssscscssccsccccsccsssssssssscscsssssccscssscsscsscsccsscsssc" />
  </g>
</svg>
