<?xml version="1.0" encoding="utf-8"?>
<!-- Generator: Adobe Illustrator 20.0.0, SVG Export Plug-In . SVG Version: 6.00 Build 0)  -->
<!DOCTYPE svg PUBLIC "-//W3C//DTD SVG 1.1//EN" "http://www.w3.org/Graphics/SVG/1.1/DTD/svg11.dtd">
<svg version="1.1" id="Layer_1" xmlns="http://www.w3.org/2000/svg" xmlns:xlink="http://www.w3.org/1999/xlink" x="0px" y="0px"
	 viewBox="0 0 1820 504" style="enable-background:new 0 0 1820 504;" xml:space="preserve">
<style type="text/css">
	.st0{fill:#E0B2B2;fill-opacity:0.75;stroke:#FFFFFF;stroke-width:2;}
	.st1{fill:#B2E7E2;fill-opacity:0.75;stroke:#FFFFFF;stroke-width:2;}
</style>
<g id="all-bass" transform="translate(820,0)">
	<g id="bass-1" transform="scale(0.831441818448988)">
		<path id="bass" class="st0" d="M194.5,64.2l1.9-1.8l3.2-2.6l4-1.6l8-4.5c0,0,6.4-2.1,9.6-2.2c3.2-0.2,0.8-2.1,0.8-2.1l1.1,0.2
			l0.2-1.6l1.1,1.1l1.8-2.1l0.3,1.4l1.9-2.6l0.6-0.5h0.6l-0.6,1.9l2.2-1.1l0.6,0.8l-0.6,1.3l1.9-0.3l-0.2,1.3h1.1l0.3,1l1.3-0.3
			l0.6,0.8l0.2,0.3h1.1l0.6,0.5c0,0,3.5-3.3,7.5-4.5s8,0.6,8,0.6s2.4,1.1,2.6,3.3s0.3,3.3-0.3,4c-0.6,0.6-3.7,1.1-3.7,1.1l-0.2,1.1
			c0,0,2.6,1.1,6.4,0.8c3.8-0.3,4-0.3,4-0.3l4.1-2.4c0,0,5.3-3.2,7.2-3.3c1.9-0.2,2.4,0,2.4,0s2.1,2.4,1.9,3.8
			c-0.2,1.4-2.4,3.7-2.9,4.9c-0.5,1.3,0.3,2.7,0.3,2.7s1.9,2.7,1.9,4.1s-0.5,3.2-1.3,3.7s-2.7,0.6-3.3,0.5c-0.6-0.2-9.2-4.8-9.2-4.8
			s-4.8-1.1-8-0.8c-3.2,0.3-3,1-3,1l3.5,1.1c0,0,1.1,0.5,1.1,1.1c0,0.6-0.3,3.8-1.3,4.9c-1,1.1-2.4,2.4-4.3,2.4s-4.9-1.4-4.9-1.4
			l-5.6-2.2l-0.6-1.1c0,0-1,0.6-5.1,1.1c-4.1,0.5-12.6-0.3-12.6-0.3s3,0.8,3.5,1.4c0.5,0.6,0.5,2.1,0.5,2.1s0.2,1.1,0.5,1.8
			s0.3,2.2-0.5,2.1c-0.8-0.2-4.3-2.1-5.4-3.5c-1.1-1.4-2.2-3-2.2-3s-7.2,0.3-8.1-0.2c-1-0.5-5.9-1.9-5.9-1.9s-2.4-0.2-3.8-0.5
			c-1.4-0.3-4.1-1.9-4.1-1.9l-2.7-2.4c0,0-0.8-0.2-1-0.8C193.3,65.3,194.5,64.2,194.5,64.2z"/>
	</g>
	<g id="bass-2" transform="scale(1.10814623880156)">
		<path id="bass_1_" class="st0" d="M553.7,374.7l2.6-2.3l4.3-3.4l5.3-2.1l10.6-6c0,0,8.5-2.8,12.8-3c4.3-0.2,1.1-2.8,1.1-2.8
			l1.5,0.2l0.2-2.1l1.5,1.5l2.3-2.8l0.4,1.9l2.6-3.4l0.9-0.6h0.9l-0.9,2.6l3-1.5l0.9,1.1l-0.9,1.7l2.6-0.4l-0.2,1.7h1.5l0.4,1.3
			l1.7-0.4l0.9,1.1l0.2,0.4h1.5l0.9,0.6c0,0,4.7-4.5,10-6c5.3-1.5,10.6,0.9,10.6,0.9s3.2,1.5,3.4,4.5c0.2,3,0.4,4.5-0.4,5.3
			c-0.9,0.9-4.9,1.5-4.9,1.5l-0.2,1.5c0,0,3.4,1.5,8.5,1.1c5.1-0.4,5.3-0.4,5.3-0.4l5.5-3.2c0,0,7-4.3,9.6-4.5s3.2,0,3.2,0
			s2.8,3.2,2.6,5.1c-0.2,1.9-3.2,4.9-3.8,6.6c-0.6,1.7,0.4,3.6,0.4,3.6s2.6,3.6,2.6,5.5c0,1.9-0.6,4.3-1.7,4.9s-3.6,0.9-4.5,0.6
			c-0.9-0.2-12.3-6.4-12.3-6.4s-6.4-1.5-10.6-1.1s-4,1.3-4,1.3l4.7,1.5c0,0,1.5,0.6,1.5,1.5c0,0.9-0.4,5.1-1.7,6.6
			c-1.3,1.5-3.2,3.2-5.7,3.2c-2.6,0-6.6-1.9-6.6-1.9l-7.4-3l-0.9-1.5c0,0-1.3,0.9-6.8,1.5c-5.5,0.6-16.8-0.4-16.8-0.4s4,1.1,4.7,1.9
			c0.6,0.9,0.6,2.8,0.6,2.8s0.2,1.5,0.6,2.3c0.4,0.9,0.4,3-0.6,2.8c-1.1-0.2-5.7-2.8-7.2-4.7c-1.5-1.9-3-4-3-4s-9.6,0.4-10.8-0.2
			c-1.3-0.6-7.9-2.6-7.9-2.6s-3.2-0.2-5.1-0.6c-1.9-0.4-5.5-2.6-5.5-2.6l-3.6-3.2c0,0-1.1-0.2-1.3-1.1
			C552,376.2,553.7,374.7,553.7,374.7z"/>
	</g>
	<g id="bass-3" transform="scale(0.963565637868283)">
		<path id="bass_2_" class="st0" d="M368.1,214l2.2-2l3.7-3l4.6-1.8l9.2-5.2c0,0,7.4-2.4,11.1-2.6c3.7-0.2,0.9-2.4,0.9-2.4l1.3,0.2
			l0.2-1.8l1.3,1.3l2-2.4l0.4,1.7l2.2-3l0.7-0.6h0.7l-0.7,2.2l2.6-1.3l0.7,0.9l-0.7,1.5l2.2-0.4l-0.2,1.5h1.3l0.4,1.1l1.5-0.4
			l0.7,0.9l0.2,0.4h1.3l0.7,0.6c0,0,4.1-3.9,8.7-5.2s9.2,0.7,9.2,0.7s2.8,1.3,3,3.9s0.4,3.9-0.4,4.6c-0.7,0.7-4.3,1.3-4.3,1.3
			l-0.2,1.3c0,0,3,1.3,7.4,0.9c4.4-0.4,4.6-0.4,4.6-0.4l4.8-2.8c0,0,6.1-3.7,8.3-3.9c2.2-0.2,2.8,0,2.8,0s2.4,2.8,2.2,4.4
			c-0.2,1.7-2.8,4.3-3.3,5.7s0.4,3.1,0.4,3.1s2.2,3.1,2.2,4.8s-0.6,3.7-1.5,4.3c-0.9,0.6-3.1,0.7-3.9,0.6
			c-0.7-0.2-10.7-5.5-10.7-5.5s-5.5-1.3-9.2-0.9c-3.7,0.4-3.5,1.1-3.5,1.1l4.1,1.3c0,0,1.3,0.6,1.3,1.3c0,0.7-0.4,4.4-1.5,5.7
			c-1.1,1.3-2.8,2.8-5,2.8c-2.2,0-5.7-1.7-5.7-1.7l-6.5-2.6l-0.7-1.3c0,0-1.1,0.7-5.9,1.3c-4.8,0.6-14.6-0.4-14.6-0.4
			s3.5,0.9,4.1,1.7c0.6,0.7,0.6,2.4,0.6,2.4s0.2,1.3,0.6,2c0.4,0.7,0.4,2.6-0.6,2.4c-0.9-0.2-5-2.4-6.3-4.1
			c-1.3-1.7-2.6-3.5-2.6-3.5s-8.3,0.4-9.4-0.2c-1.1-0.6-6.8-2.2-6.8-2.2s-2.8-0.2-4.4-0.6c-1.7-0.4-4.8-2.2-4.8-2.2l-3.1-2.8
			c0,0-0.9-0.2-1.1-0.9C366.6,215.3,368.1,214,368.1,214z"/>
	</g>
	<g id="bass-4" transform="scale(1.03403363542762)">
		<path id="bass_3_" class="st0" d="M231.8,98.6l2.4-2.2l4-3.2l5-2l9.9-5.6c0,0,7.9-2.6,11.9-2.8s1-2.6,1-2.6l1.4,0.2l0.2-2l1.4,1.4
			l2.2-2.6l0.4,1.8l2.4-3.2l0.8-0.6h0.8l-0.8,2.4l2.8-1.4l0.8,1l-0.8,1.6l2.4-0.4l-0.2,1.6h1.4l0.4,1.2l1.6-0.4l0.8,1l0.2,0.4h1.4
			l0.8,0.6c0,0,4.4-4.2,9.3-5.6c5-1.4,9.9,0.8,9.9,0.8s3,1.4,3.2,4.2s0.4,4.2-0.4,5c-0.8,0.8-4.6,1.4-4.6,1.4l-0.2,1.4
			c0,0,3.2,1.4,7.9,1c4.8-0.4,5-0.4,5-0.4l5.2-3c0,0,6.5-4,8.9-4.2c2.4-0.2,3,0,3,0s2.6,3,2.4,4.8s-3,4.6-3.6,6.1
			c-0.6,1.6,0.4,3.4,0.4,3.4s2.4,3.4,2.4,5.2s-0.6,4-1.6,4.6c-1,0.6-3.4,0.8-4.2,0.6c-0.8-0.2-11.5-5.9-11.5-5.9s-5.9-1.4-9.9-1
			s-3.8,1.2-3.8,1.2l4.4,1.4c0,0,1.4,0.6,1.4,1.4c0,0.8-0.4,4.8-1.6,6.1s-3,3-5.4,3s-6.1-1.8-6.1-1.8l-6.9-2.8l-0.8-1.4
			c0,0-1.2,0.8-6.3,1.4c-5.2,0.6-15.7-0.4-15.7-0.4s3.8,1,4.4,1.8c0.6,0.8,0.6,2.6,0.6,2.6s0.2,1.4,0.6,2.2c0.4,0.8,0.4,2.8-0.6,2.6
			s-5.4-2.6-6.7-4.4c-1.4-1.8-2.8-3.8-2.8-3.8s-8.9,0.4-10.1-0.2s-7.3-2.4-7.3-2.4s-3-0.2-4.8-0.6c-1.8-0.4-5.2-2.4-5.2-2.4l-3.4-3
			c0,0-1-0.2-1.2-1C230.2,100,231.8,98.6,231.8,98.6z"/>
	</g>
	<g id="bass-5" transform="scale(0.935503008429121)">
		<path id="bass_4_" class="st0" d="M542.2,255l2.2-2l3.6-2.9l4.5-1.8l9-5c0,0,7.2-2.3,10.8-2.5c3.6-0.2,0.9-2.3,0.9-2.3l1.3,0.2
			l0.2-1.8l1.3,1.3l2-2.3l0.4,1.6l2.2-2.9l0.7-0.5h0.7l-0.7,2.2l2.5-1.3l0.7,0.9l-0.7,1.4l2.2-0.4l-0.2,1.4h1.3l0.4,1.1l1.4-0.4
			l0.7,0.9l0.2,0.4h1.3l0.7,0.5c0,0,3.9-3.8,8.4-5c4.5-1.3,9,0.7,9,0.7s2.7,1.3,2.9,3.8s0.4,3.8-0.4,4.5c-0.7,0.7-4.1,1.3-4.1,1.3
			l-0.2,1.3c0,0,2.9,1.3,7.2,0.9c4.3-0.4,4.5-0.4,4.5-0.4l4.7-2.7c0,0,5.9-3.6,8.1-3.8c2.2-0.2,2.7,0,2.7,0s2.3,2.7,2.2,4.3
			c-0.2,1.6-2.7,4.1-3.2,5.6c-0.5,1.4,0.4,3,0.4,3s2.2,3,2.2,4.7c0,1.6-0.5,3.6-1.4,4.1c-0.9,0.5-3,0.7-3.8,0.5
			c-0.7-0.2-10.4-5.4-10.4-5.4s-5.4-1.3-9-0.9c-3.6,0.4-3.4,1.1-3.4,1.1l3.9,1.3c0,0,1.3,0.5,1.3,1.3s-0.4,4.3-1.4,5.6
			s-2.7,2.7-4.8,2.7c-2.2,0-5.6-1.6-5.6-1.6l-6.3-2.5l-0.7-1.3c0,0-1.1,0.7-5.7,1.3c-4.7,0.5-14.2-0.4-14.2-0.4s3.4,0.9,3.9,1.6
			s0.5,2.3,0.5,2.3s0.2,1.3,0.5,2s0.4,2.5-0.5,2.3s-4.8-2.3-6.1-3.9c-1.3-1.6-2.5-3.4-2.5-3.4s-8.1,0.4-9.1-0.2
			c-1.1-0.5-6.6-2.2-6.6-2.2s-2.7-0.2-4.3-0.5c-1.6-0.4-4.7-2.2-4.7-2.2l-3-2.7c0,0-0.9-0.2-1.1-0.9
			C540.8,256.3,542.2,255,542.2,255z"/>
	</g>
	<g id="bass-6" transform="scale(0.870627269009828)">
		<path id="bass_5_" class="st0" d="M315,53.9l2-1.8l3.3-2.7l4.2-1.7l8.3-4.7c0,0,6.7-2.2,10-2.3c3.3-0.2,0.8-2.2,0.8-2.2l1.2,0.2
			L345,37l1.2,1.2L348,36l0.3,1.5l2-2.7l0.7-0.5h0.7l-0.7,2l2.3-1.2L354,36l-0.7,1.3l2-0.3l-0.2,1.3h1.2l0.3,1L358,39l0.7,0.8
			l0.2,0.3h1.2l0.7,0.5c0,0,3.7-3.5,7.8-4.7c4.2-1.2,8.3,0.7,8.3,0.7s2.5,1.2,2.7,3.5c0.2,2.3,0.3,3.5-0.3,4.2
			c-0.7,0.7-3.8,1.2-3.8,1.2l-0.2,1.2c0,0,2.7,1.2,6.7,0.8s4.2-0.3,4.2-0.3l4.3-2.5c0,0,5.5-3.3,7.5-3.5c2-0.2,2.5,0,2.5,0
			s2.2,2.5,2,4c-0.2,1.5-2.5,3.8-3,5.2c-0.5,1.3,0.3,2.8,0.3,2.8s2,2.8,2,4.3s-0.5,3.3-1.3,3.8c-0.8,0.5-2.8,0.7-3.5,0.5
			s-9.7-5-9.7-5s-5-1.2-8.3-0.8s-3.2,1-3.2,1l3.7,1.2c0,0,1.2,0.5,1.2,1.2c0,0.7-0.3,4-1.3,5.2s-2.5,2.5-4.5,2.5
			c-2,0-5.2-1.5-5.2-1.5l-5.8-2.3l-0.7-1.2c0,0-1,0.7-5.3,1.2c-4.3,0.5-13.2-0.3-13.2-0.3s3.2,0.8,3.7,1.5c0.5,0.7,0.5,2.2,0.5,2.2
			s0.2,1.2,0.5,1.8c0.3,0.7,0.3,2.3-0.5,2.2c-0.8-0.2-4.5-2.2-5.7-3.7c-1.2-1.5-2.3-3.2-2.3-3.2s-7.5,0.3-8.5-0.2
			c-1-0.5-6.2-2-6.2-2s-2.5-0.2-4-0.5c-1.5-0.3-4.3-2-4.3-2l-2.8-2.5c0,0-0.8-0.2-1-0.8C313.6,55.1,315,53.9,315,53.9z"/>
	</g>
	<g id="bass-7" transform="scale(0.832929116970745)">
		<path id="bass_6_" class="st0" d="M713.7,359.4l1.9-1.8l3.2-2.6l4-1.6l8-4.5c0,0,6.4-2.1,9.6-2.2c3.2-0.2,0.8-2.1,0.8-2.1l1.1,0.2
			l0.2-1.6l1.1,1.1l1.8-2.1l0.3,1.4l1.9-2.6l0.6-0.5h0.6l-0.6,1.9l2.2-1.1l0.6,0.8l-0.6,1.3l1.9-0.3l-0.2,1.3h1.1l0.3,1l1.3-0.3
			l0.6,0.8l0.2,0.3h1.1l0.6,0.5c0,0,3.5-3.4,7.5-4.5s8,0.6,8,0.6s2.4,1.1,2.6,3.4c0.2,2.2,0.3,3.4-0.3,4c-0.6,0.6-3.7,1.1-3.7,1.1
			l-0.2,1.1c0,0,2.6,1.1,6.4,0.8s4-0.3,4-0.3l4.2-2.4c0,0,5.3-3.2,7.2-3.4c1.9-0.2,2.4,0,2.4,0s2.1,2.4,1.9,3.8s-2.4,3.7-2.9,5
			c-0.5,1.3,0.3,2.7,0.3,2.7s1.9,2.7,1.9,4.2c0,1.4-0.5,3.2-1.3,3.7c-0.8,0.5-2.7,0.6-3.4,0.5c-0.6-0.2-9.3-4.8-9.3-4.8
			s-4.8-1.1-8-0.8c-3.2,0.3-3,1-3,1l3.5,1.1c0,0,1.1,0.5,1.1,1.1c0,0.6-0.3,3.8-1.3,5c-1,1.1-2.4,2.4-4.3,2.4s-5-1.4-5-1.4l-5.6-2.2
			l-0.6-1.1c0,0-1,0.6-5.1,1.1c-4.2,0.5-12.6-0.3-12.6-0.3s3,0.8,3.5,1.4c0.5,0.6,0.5,2.1,0.5,2.1s0.2,1.1,0.5,1.8
			c0.3,0.6,0.3,2.2-0.5,2.1c-0.8-0.2-4.3-2.1-5.4-3.5s-2.2-3-2.2-3s-7.2,0.3-8.1-0.2c-1-0.5-5.9-1.9-5.9-1.9s-2.4-0.2-3.8-0.5
			c-1.4-0.3-4.2-1.9-4.2-1.9l-2.7-2.4c0,0-0.8-0.2-1-0.8C712.4,360.5,713.7,359.4,713.7,359.4z"/>
	</g>
	<g id="bass-8" transform="scale(1.07089678679586)">
		<path id="bass_7_" class="st0" d="M430,293.8l2.5-2.3l4.1-3.3l5.1-2.1l10.3-5.8c0,0,8.2-2.7,12.3-2.9c4.1-0.2,1-2.7,1-2.7l1.4,0.2
			l0.2-2.1l1.4,1.4l2.3-2.7l0.4,1.8l2.5-3.3l0.8-0.6h0.8l-0.8,2.5l2.9-1.4l0.8,1l-0.8,1.6l2.5-0.4l-0.2,1.6h1.4l0.4,1.2l1.6-0.4
			l0.8,1l0.2,0.4h1.4l0.8,0.6c0,0,4.5-4.3,9.7-5.8c5.1-1.4,10.3,0.8,10.3,0.8s3.1,1.4,3.3,4.3c0.2,2.9,0.4,4.3-0.4,5.1
			c-0.8,0.8-4.7,1.4-4.7,1.4l-0.2,1.4c0,0,3.3,1.4,8.2,1c4.9-0.4,5.1-0.4,5.1-0.4l5.3-3.1c0,0,6.8-4.1,9.2-4.3c2.5-0.2,3.1,0,3.1,0
			s2.7,3.1,2.5,4.9s-3.1,4.7-3.7,6.4c-0.6,1.6,0.4,3.5,0.4,3.5s2.5,3.5,2.5,5.3s-0.6,4.1-1.6,4.7c-1,0.6-3.5,0.8-4.3,0.6
			c-0.8-0.2-11.9-6.2-11.9-6.2s-6.2-1.4-10.3-1s-3.9,1.2-3.9,1.2l4.5,1.4c0,0,1.4,0.6,1.4,1.4s-0.4,4.9-1.6,6.4
			c-1.2,1.4-3.1,3.1-5.5,3.1c-2.5,0-6.4-1.8-6.4-1.8l-7.2-2.9l-0.8-1.4c0,0-1.2,0.8-6.6,1.4c-5.3,0.6-16.2-0.4-16.2-0.4
			s3.9,1,4.5,1.8c0.6,0.8,0.6,2.7,0.6,2.7s0.2,1.4,0.6,2.3s0.4,2.9-0.6,2.7c-1-0.2-5.5-2.7-7-4.5c-1.4-1.8-2.9-3.9-2.9-3.9
			s-9.2,0.4-10.5-0.2c-1.2-0.6-7.6-2.5-7.6-2.5s-3.1-0.2-4.9-0.6c-1.8-0.4-5.3-2.5-5.3-2.5l-3.5-3.1c0,0-1-0.2-1.2-1
			S430,293.8,430,293.8z"/>
	</g>
	<g id="bass-9" transform="scale(0.933189055341256)">
		<path id="bass_8_" class="st0" d="M368.9,35.3l2.1-2l3.6-2.9l4.5-1.8l8.9-5c0,0,7.2-2.3,10.7-2.5c3.6-0.2,0.9-2.3,0.9-2.3l1.3,0.2
			l0.2-1.8l1.3,1.3l2-2.3l0.4,1.6l2.1-2.9l0.7-0.5h0.7l-0.7,2.1l2.5-1.3l0.7,0.9l-0.7,1.4l2.1-0.4l-0.2,1.4h1.3l0.4,1.1l1.4-0.4
			l0.7,0.9l0.2,0.4h1.3l0.7,0.5c0,0,3.9-3.8,8.4-5c4.5-1.3,8.9,0.7,8.9,0.7s2.7,1.3,2.9,3.8c0.2,2.5,0.4,3.8-0.4,4.5
			c-0.7,0.7-4.1,1.3-4.1,1.3l-0.2,1.3c0,0,2.9,1.3,7.2,0.9s4.5-0.4,4.5-0.4l4.7-2.7c0,0,5.9-3.6,8.1-3.8c2.1-0.2,2.7,0,2.7,0
			s2.3,2.7,2.1,4.3c-0.2,1.6-2.7,4.1-3.2,5.5c-0.5,1.4,0.4,3,0.4,3s2.1,3,2.1,4.7s-0.5,3.6-1.4,4.1c-0.9,0.5-3,0.7-3.8,0.5
			c-0.7-0.2-10.4-5.4-10.4-5.4s-5.4-1.3-8.9-0.9c-3.6,0.4-3.4,1.1-3.4,1.1L438,40c0,0,1.3,0.5,1.3,1.3c0,0.7-0.4,4.3-1.4,5.5
			s-2.7,2.7-4.8,2.7s-5.5-1.6-5.5-1.6l-6.3-2.5l-0.7-1.3c0,0-1.1,0.7-5.7,1.3c-4.7,0.5-14.1-0.4-14.1-0.4s3.4,0.9,3.9,1.6
			c0.5,0.7,0.5,2.3,0.5,2.3s0.2,1.3,0.5,2c0.4,0.7,0.4,2.5-0.5,2.3s-4.8-2.3-6.1-3.9c-1.3-1.6-2.5-3.4-2.5-3.4s-8.1,0.4-9.1-0.2
			c-1.1-0.5-6.6-2.1-6.6-2.1s-2.7-0.2-4.3-0.5c-1.6-0.4-4.7-2.1-4.7-2.1l-3-2.7c0,0-0.9-0.2-1.1-0.9
			C367.5,36.6,368.9,35.3,368.9,35.3z"/>
	</g>
	<g id="bass-10" transform="scale(1.02508980575588)">
		<path id="bass_9_" class="st0" d="M467.1,41.9l2.4-2.2l3.9-3.1l4.9-2l9.8-5.5c0,0,7.9-2.6,11.8-2.8c3.9-0.2,1-2.6,1-2.6l1.4,0.2
			l0.2-2l1.4,1.4l2.2-2.6l0.4,1.8l2.4-3.1l0.8-0.6h0.8l-0.8,2.4l2.8-1.4l0.8,1l-0.8,1.6l2.4-0.4l-0.2,1.6h1.4l0.4,1.2l1.6-0.4l0.8,1
			l0.2,0.4h1.4l0.8,0.6c0,0,4.3-4.1,9.2-5.5c4.9-1.4,9.8,0.8,9.8,0.8s2.9,1.4,3.1,4.1c0.2,2.8,0.4,4.1-0.4,4.9s-4.5,1.4-4.5,1.4
			l-0.2,1.4c0,0,3.1,1.4,7.9,1c4.7-0.4,4.9-0.4,4.9-0.4l5.1-2.9c0,0,6.5-3.9,8.8-4.1c2.4-0.2,2.9,0,2.9,0s2.6,2.9,2.4,4.7
			s-2.9,4.5-3.5,6.1c-0.6,1.6,0.4,3.3,0.4,3.3s2.4,3.3,2.4,5.1c0,1.8-0.6,3.9-1.6,4.5s-3.3,0.8-4.1,0.6c-0.8-0.2-11.4-5.9-11.4-5.9
			s-5.9-1.4-9.8-1c-3.9,0.4-3.7,1.2-3.7,1.2l4.3,1.4c0,0,1.4,0.6,1.4,1.4c0,0.8-0.4,4.7-1.6,6.1c-1.2,1.4-2.9,2.9-5.3,2.9
			s-6.1-1.8-6.1-1.8l-6.9-2.8l-0.8-1.4c0,0-1.2,0.8-6.3,1.4s-15.5-0.4-15.5-0.4s3.7,1,4.3,1.8c0.6,0.8,0.6,2.6,0.6,2.6
			s0.2,1.4,0.6,2.2c0.4,0.8,0.4,2.8-0.6,2.6c-1-0.2-5.3-2.6-6.7-4.3s-2.8-3.7-2.8-3.7s-8.8,0.4-10-0.2c-1.2-0.6-7.3-2.4-7.3-2.4
			s-2.9-0.2-4.7-0.6c-1.8-0.4-5.1-2.4-5.1-2.4l-3.3-2.9c0,0-1-0.2-1.2-1C465.5,43.3,467.1,41.9,467.1,41.9z"/>
	</g>
	<g id="bass-11" transform="scale(1.19886288499758)">
		<path id="bass_10_" class="st0" d="M486.6,170.9l2.8-2.5l4.6-3.7l5.7-2.3l11.5-6.4c0,0,9.2-3,13.8-3.2c4.6-0.2,1.1-3,1.1-3
			l1.6,0.2l0.2-2.3l1.6,1.6l2.5-3l0.5,2.1l2.8-3.7l0.9-0.7h0.9l-0.9,2.8l3.2-1.6l0.9,1.1l-0.9,1.8l2.8-0.5l-0.2,1.8h1.6l0.5,1.4
			l1.8-0.5l0.9,1.1l0.2,0.5h1.6l0.9,0.7c0,0,5.1-4.8,10.8-6.4s11.5,0.9,11.5,0.9s3.4,1.6,3.7,4.8s0.5,4.8-0.5,5.7
			c-0.9,0.9-5.3,1.6-5.3,1.6l-0.2,1.6c0,0,3.7,1.6,9.2,1.1c5.5-0.5,5.7-0.5,5.7-0.5l6-3.4c0,0,7.6-4.6,10.3-4.8c2.8-0.2,3.4,0,3.4,0
			s3,3.4,2.8,5.5c-0.2,2.1-3.4,5.3-4.1,7.1c-0.7,1.8,0.5,3.9,0.5,3.9s2.8,3.9,2.8,6c0,2.1-0.7,4.6-1.8,5.3s-3.9,0.9-4.8,0.7
			c-0.9-0.2-13.3-6.9-13.3-6.9s-6.9-1.6-11.5-1.1c-4.6,0.5-4.4,1.4-4.4,1.4l5.1,1.6c0,0,1.6,0.7,1.6,1.6c0,0.9-0.5,5.5-1.8,7.1
			c-1.4,1.6-3.4,3.4-6.2,3.4s-7.1-2.1-7.1-2.1l-8-3.2l-0.9-1.6c0,0-1.4,0.9-7.4,1.6c-6,0.7-18.2-0.5-18.2-0.5s4.4,1.1,5.1,2.1
			c0.7,0.9,0.7,3,0.7,3s0.2,1.6,0.7,2.5c0.5,0.9,0.5,3.2-0.7,3c-1.1-0.2-6.2-3-7.8-5.1c-1.6-2.1-3.2-4.4-3.2-4.4s-10.3,0.5-11.7-0.2
			c-1.4-0.7-8.5-2.8-8.5-2.8s-3.4-0.2-5.5-0.7s-6-2.8-6-2.8l-3.9-3.4c0,0-1.1-0.2-1.4-1.1C484.7,172.5,486.6,170.9,486.6,170.9z"/>
	</g>
	<g id="bass-12" transform="scale(0.926632902537429)">
		<path id="bass_11_" class="st0" d="M667.3,184.6l2.1-2l3.6-2.8l4.4-1.8l8.9-5c0,0,7.1-2.3,10.7-2.5c3.6-0.2,0.9-2.3,0.9-2.3
			l1.2,0.2l0.2-1.8l1.2,1.2l2-2.3l0.4,1.6l2.1-2.8l0.7-0.5h0.7l-0.7,2.1l2.5-1.2l0.7,0.9l-0.7,1.4l2.1-0.4l-0.2,1.4h1.2l0.4,1.1
			l1.4-0.4l0.7,0.9l0.2,0.4h1.2l0.7,0.5c0,0,3.9-3.7,8.4-5c4.4-1.2,8.9,0.7,8.9,0.7s2.7,1.2,2.8,3.7c0.2,2.5,0.4,3.7-0.4,4.4
			s-4.1,1.2-4.1,1.2l-0.2,1.2c0,0,2.8,1.2,7.1,0.9c4.3-0.4,4.4-0.4,4.4-0.4l4.6-2.7c0,0,5.9-3.6,8-3.7s2.7,0,2.7,0s2.3,2.7,2.1,4.3
			c-0.2,1.6-2.7,4.1-3.2,5.5c-0.5,1.4,0.4,3,0.4,3s2.1,3,2.1,4.6c0,1.6-0.5,3.6-1.4,4.1c-0.9,0.5-3,0.7-3.7,0.5s-10.3-5.3-10.3-5.3
			s-5.3-1.2-8.9-0.9S732,188,732,188l3.9,1.2c0,0,1.2,0.5,1.2,1.2c0,0.7-0.4,4.3-1.4,5.5s-2.7,2.7-4.8,2.7s-5.5-1.6-5.5-1.6
			l-6.2-2.5l-0.7-1.2c0,0-1.1,0.7-5.7,1.2c-4.6,0.5-14-0.4-14-0.4s3.4,0.9,3.9,1.6c0.5,0.7,0.5,2.3,0.5,2.3s0.2,1.2,0.5,2
			s0.4,2.5-0.5,2.3c-0.9-0.2-4.8-2.3-6-3.9c-1.2-1.6-2.5-3.4-2.5-3.4s-8,0.4-9.1-0.2s-6.6-2.1-6.6-2.1s-2.7-0.2-4.3-0.5
			c-1.6-0.4-4.6-2.1-4.6-2.1l-3-2.7c0,0-0.9-0.2-1.1-0.9S667.3,184.6,667.3,184.6z"/>
	</g>
	<g id="bass-13" transform="scale(1.09739412730543)">
		<path id="bass_12_" class="st0" d="M506.9,89.7l2.5-2.3l4.2-3.4l5.3-2.1l10.5-5.9c0,0,8.4-2.7,12.6-2.9c4.2-0.2,1.1-2.7,1.1-2.7
			l1.5,0.2l0.2-2.1l1.5,1.5l2.3-2.7L549,69l2.5-3.4l0.8-0.6h0.8l-0.8,2.5l2.9-1.5l0.8,1.1l-0.8,1.7l2.5-0.4l-0.2,1.7h1.5l0.4,1.3
			l1.7-0.4L562,72l0.2,0.4h1.5l0.8,0.6c0,0,4.6-4.4,9.9-5.9C579.7,65.7,585,68,585,68s3.2,1.5,3.4,4.4c0.2,2.9,0.4,4.4-0.4,5.3
			c-0.8,0.8-4.8,1.5-4.8,1.5l-0.2,1.5c0,0,3.4,1.5,8.4,1.1c5.1-0.4,5.3-0.4,5.3-0.4l5.5-3.2c0,0,6.9-4.2,9.5-4.4
			c2.5-0.2,3.2,0,3.2,0s2.7,3.2,2.5,5.1c-0.2,1.9-3.2,4.8-3.8,6.5c-0.6,1.7,0.4,3.6,0.4,3.6s2.5,3.6,2.5,5.5s-0.6,4.2-1.7,4.8
			c-1.1,0.6-3.6,0.8-4.4,0.6S598,93.5,598,93.5s-6.3-1.5-10.5-1.1c-4.2,0.4-4,1.3-4,1.3l4.6,1.5c0,0,1.5,0.6,1.5,1.5
			c0,0.8-0.4,5.1-1.7,6.5s-3.2,3.2-5.7,3.2c-2.5,0-6.5-1.9-6.5-1.9l-7.4-2.9l-0.8-1.5c0,0-1.3,0.8-6.7,1.5
			c-5.5,0.6-16.6-0.4-16.6-0.4s4,1.1,4.6,1.9s0.6,2.7,0.6,2.7s0.2,1.5,0.6,2.3c0.4,0.8,0.4,2.9-0.6,2.7c-1.1-0.2-5.7-2.7-7.2-4.6
			s-2.9-4-2.9-4s-9.5,0.4-10.7-0.2c-1.3-0.6-7.8-2.5-7.8-2.5s-3.2-0.2-5.1-0.6c-1.9-0.4-5.5-2.5-5.5-2.5l-3.6-3.2
			c0,0-1.1-0.2-1.3-1.1S506.9,89.7,506.9,89.7z"/>
	</g>
	<g id="bass-14" transform="scale(0.983323306910881)">
		<path id="bass_13_" class="st0" d="M653.3,158l2.3-2.1l3.8-3l4.7-1.9l9.4-5.3c0,0,7.5-2.5,11.3-2.6c3.8-0.2,0.9-2.5,0.9-2.5
			l1.3,0.2l0.2-1.9l1.3,1.3l2.1-2.5l0.4,1.7l2.3-3l0.8-0.6h0.8l-0.8,2.3l2.6-1.3l0.8,0.9l-0.8,1.5l2.3-0.4l-0.2,1.5h1.3l0.4,1.1
			l1.5-0.4l0.8,0.9l0.2,0.4h1.3l0.8,0.6c0,0,4.1-4,8.9-5.3c4.7-1.3,9.4,0.8,9.4,0.8s2.8,1.3,3,4c0.2,2.6,0.4,4-0.4,4.7
			c-0.8,0.8-4.3,1.3-4.3,1.3l-0.2,1.3c0,0,3,1.3,7.5,0.9s4.7-0.4,4.7-0.4l4.9-2.8c0,0,6.2-3.8,8.5-4c2.3-0.2,2.8,0,2.8,0
			s2.5,2.8,2.3,4.5c-0.2,1.7-2.8,4.3-3.4,5.8s0.4,3.2,0.4,3.2s2.3,3.2,2.3,4.9c0,1.7-0.6,3.8-1.5,4.3c-0.9,0.6-3.2,0.8-4,0.6
			c-0.8-0.2-10.9-5.7-10.9-5.7s-5.7-1.3-9.4-0.9c-3.8,0.4-3.6,1.1-3.6,1.1l4.1,1.3c0,0,1.3,0.6,1.3,1.3s-0.4,4.5-1.5,5.8
			c-1.1,1.3-2.8,2.8-5.1,2.8c-2.3,0-5.8-1.7-5.8-1.7l-6.6-2.6l-0.8-1.3c0,0-1.1,0.8-6,1.3s-14.9-0.4-14.9-0.4s3.6,0.9,4.1,1.7
			s0.6,2.5,0.6,2.5s0.2,1.3,0.6,2.1c0.4,0.8,0.4,2.6-0.6,2.5c-0.9-0.2-5.1-2.5-6.4-4.1c-1.3-1.7-2.6-3.6-2.6-3.6s-8.5,0.4-9.6-0.2
			c-1.1-0.6-7-2.3-7-2.3s-2.8-0.2-4.5-0.6c-1.7-0.4-4.9-2.3-4.9-2.3l-3.2-2.8c0,0-0.9-0.2-1.1-0.9C651.8,159.4,653.3,158,653.3,158z
			"/>
	</g>
	<g id="bass-15" transform="scale(0.913892685493731)">
		<path id="bass_14_" class="st0" d="M335.5,237.2l2.1-1.9l3.5-2.8l4.4-1.8l8.8-4.9c0,0,7-2.3,10.5-2.5c3.5-0.2,0.9-2.3,0.9-2.3
			l1.2,0.2l0.2-1.8l1.2,1.2l1.9-2.3l0.4,1.6l2.1-2.8l0.7-0.5h0.7l-0.7,2.1l2.5-1.2l0.7,0.9l-0.7,1.4l2.1-0.4l-0.2,1.4h1.2l0.4,1.1
			l1.4-0.4l0.7,0.9l0.2,0.4h1.2l0.7,0.5c0,0,3.9-3.7,8.2-4.9c4.4-1.2,8.8,0.7,8.8,0.7s2.6,1.2,2.8,3.7s0.4,3.7-0.4,4.4
			c-0.7,0.7-4,1.2-4,1.2l-0.2,1.2c0,0,2.8,1.2,7,0.9s4.4-0.4,4.4-0.4l4.6-2.6c0,0,5.8-3.5,7.9-3.7c2.1-0.2,2.6,0,2.6,0
			s2.3,2.6,2.1,4.2c-0.2,1.6-2.6,4-3.2,5.4c-0.5,1.4,0.4,3,0.4,3s2.1,3,2.1,4.6s-0.5,3.5-1.4,4c-0.9,0.5-3,0.7-3.7,0.5
			s-10.2-5.3-10.2-5.3s-5.3-1.2-8.8-0.9c-3.5,0.4-3.3,1.1-3.3,1.1l3.9,1.2c0,0,1.2,0.5,1.2,1.2c0,0.7-0.4,4.2-1.4,5.4
			c-1.1,1.2-2.6,2.6-4.7,2.6s-5.4-1.6-5.4-1.6l-6.1-2.5l-0.7-1.2c0,0-1.1,0.7-5.6,1.2c-4.6,0.5-13.8-0.4-13.8-0.4s3.3,0.9,3.9,1.6
			c0.5,0.7,0.5,2.3,0.5,2.3s0.2,1.2,0.5,1.9c0.4,0.7,0.4,2.5-0.5,2.3c-0.9-0.2-4.7-2.3-6-3.9c-1.2-1.6-2.5-3.3-2.5-3.3
			s-7.9,0.4-8.9-0.2c-1.1-0.5-6.5-2.1-6.5-2.1s-2.6-0.2-4.2-0.5c-1.6-0.4-4.6-2.1-4.6-2.1l-3-2.6c0,0-0.9-0.2-1.1-0.9
			C334.1,238.4,335.5,237.2,335.5,237.2z"/>
	</g>
	<g id="bass-16" transform="scale(1.05481272501767)">
		<path id="bass_15_" class="st0" d="M605,65.5l2.4-2.2l4-3.2l5.1-2l10.1-5.7c0,0,8.1-2.6,12.1-2.8c4-0.2,1-2.6,1-2.6l1.4,0.2l0.2-2
			l1.4,1.4l2.2-2.6l0.4,1.8l2.4-3.2l0.8-0.6h0.8l-0.8,2.4l2.8-1.4l0.8,1l-0.8,1.6l2.4-0.4l-0.2,1.6h1.4l0.4,1.2l1.6-0.4l0.8,1
			l0.2,0.4h1.4l0.8,0.6c0,0,4.5-4.2,9.5-5.7c5.1-1.4,10.1,0.8,10.1,0.8s3,1.4,3.2,4.2c0.2,2.8,0.4,4.2-0.4,5.1s-4.7,1.4-4.7,1.4
			l-0.2,1.4c0,0,3.2,1.4,8.1,1c4.9-0.4,5.1-0.4,5.1-0.4l5.3-3c0,0,6.7-4,9.1-4.2c2.4-0.2,3,0,3,0s2.6,3,2.4,4.9
			c-0.2,1.8-3,4.7-3.6,6.3c-0.6,1.6,0.4,3.4,0.4,3.4s2.4,3.4,2.4,5.3s-0.6,4-1.6,4.7s-3.4,0.8-4.2,0.6c-0.8-0.2-11.7-6.1-11.7-6.1
			s-6.1-1.4-10.1-1c-4,0.4-3.8,1.2-3.8,1.2l4.5,1.4c0,0,1.4,0.6,1.4,1.4c0,0.8-0.4,4.9-1.6,6.3c-1.2,1.4-3,3-5.5,3
			c-2.4,0-6.3-1.8-6.3-1.8l-7.1-2.8l-0.8-1.4c0,0-1.2,0.8-6.5,1.4c-5.3,0.6-16-0.4-16-0.4s3.8,1,4.5,1.8c0.6,0.8,0.6,2.6,0.6,2.6
			s0.2,1.4,0.6,2.2c0.4,0.8,0.4,2.8-0.6,2.6c-1-0.2-5.5-2.6-6.9-4.5c-1.4-1.8-2.8-3.8-2.8-3.8s-9.1,0.4-10.3-0.2
			c-1.2-0.6-7.5-2.4-7.5-2.4s-3-0.2-4.9-0.6s-5.3-2.4-5.3-2.4l-3.4-3c0,0-1-0.2-1.2-1C603.4,66.9,605,65.5,605,65.5z"/>
	</g>
	<g id="bass-17" transform="scale(0.972557443449365)">
		<path id="bass_16_" class="st0" d="M475.5,158.6l2.2-2.1l3.7-3l4.7-1.9l9.3-5.2c0,0,7.5-2.4,11.2-2.6c3.7-0.2,0.9-2.4,0.9-2.4
			l1.3,0.2l0.2-1.9l1.3,1.3l2.1-2.4l0.4,1.7l2.2-3l0.7-0.6h0.7l-0.7,2.2l2.6-1.3l0.7,0.9l-0.7,1.5l2.2-0.4l-0.2,1.5h1.3l0.4,1.1
			l1.5-0.4l0.7,0.9l0.2,0.4h1.3l0.7,0.6c0,0,4.1-3.9,8.8-5.2c4.7-1.3,9.3,0.7,9.3,0.7s2.8,1.3,3,3.9c0.2,2.6,0.4,3.9-0.4,4.7
			c-0.7,0.7-4.3,1.3-4.3,1.3l-0.2,1.3c0,0,3,1.3,7.5,0.9s4.7-0.4,4.7-0.4l4.8-2.8c0,0,6.2-3.7,8.4-3.9c2.2-0.2,2.8,0,2.8,0
			s2.4,2.8,2.2,4.5c-0.2,1.7-2.8,4.3-3.4,5.8c-0.6,1.5,0.4,3.2,0.4,3.2s2.2,3.2,2.2,4.8s-0.6,3.7-1.5,4.3c-0.9,0.6-3.2,0.7-3.9,0.6
			c-0.7-0.2-10.8-5.6-10.8-5.6s-5.6-1.3-9.3-0.9c-3.7,0.4-3.5,1.1-3.5,1.1l4.1,1.3c0,0,1.3,0.6,1.3,1.3c0,0.7-0.4,4.5-1.5,5.8
			s-2.8,2.8-5,2.8c-2.2,0-5.8-1.7-5.8-1.7l-6.5-2.6l-0.7-1.3c0,0-1.1,0.7-6,1.3c-4.8,0.6-14.7-0.4-14.7-0.4s3.5,0.9,4.1,1.7
			c0.6,0.7,0.6,2.4,0.6,2.4s0.2,1.3,0.6,2.1c0.4,0.7,0.4,2.6-0.6,2.4c-0.9-0.2-5-2.4-6.3-4.1c-1.3-1.7-2.6-3.5-2.6-3.5
			s-8.4,0.4-9.5-0.2c-1.1-0.6-6.9-2.2-6.9-2.2s-2.8-0.2-4.5-0.6s-4.8-2.2-4.8-2.2l-3.2-2.8c0,0-0.9-0.2-1.1-0.9
			C474,159.9,475.5,158.6,475.5,158.6z"/>
	</g>
	<g id="bass-18" transform="scale(1.00828897489842)">
		<path id="bass_17_" class="st0" d="M704.8,284.4l2.3-2.1l3.9-3.1l4.8-1.9l9.7-5.4c0,0,7.7-2.5,11.6-2.7c3.9-0.2,1-2.5,1-2.5
			l1.4,0.2l0.2-1.9l1.4,1.4l2.1-2.5l0.4,1.7l2.3-3.1l0.8-0.6h0.8l-0.8,2.3l2.7-1.4l0.8,1l-0.8,1.5l2.3-0.4l-0.2,1.5h1.4l0.4,1.2
			l1.5-0.4l0.8,1l0.2,0.4h1.4l0.8,0.6c0,0,4.3-4.1,9.1-5.4c4.8-1.4,9.7,0.8,9.7,0.8s2.9,1.4,3.1,4.1c0.2,2.7,0.4,4.1-0.4,4.8
			c-0.8,0.8-4.4,1.4-4.4,1.4l-0.2,1.4c0,0,3.1,1.4,7.7,1c4.6-0.4,4.8-0.4,4.8-0.4l5-2.9c0,0,6.4-3.9,8.7-4.1s2.9,0,2.9,0
			s2.5,2.9,2.3,4.6s-2.9,4.4-3.5,6c-0.6,1.5,0.4,3.3,0.4,3.3s2.3,3.3,2.3,5s-0.6,3.9-1.5,4.4c-1,0.6-3.3,0.8-4.1,0.6
			c-0.8-0.2-11.2-5.8-11.2-5.8s-5.8-1.4-9.7-1c-3.9,0.4-3.7,1.2-3.7,1.2l4.3,1.4c0,0,1.4,0.6,1.4,1.4c0,0.8-0.4,4.6-1.5,6
			c-1.2,1.4-2.9,2.9-5.2,2.9s-6-1.7-6-1.7l-6.8-2.7l-0.8-1.4c0,0-1.2,0.8-6.2,1.4c-5,0.6-15.3-0.4-15.3-0.4s3.7,1,4.3,1.7
			c0.6,0.8,0.6,2.5,0.6,2.5s0.2,1.4,0.6,2.1c0.4,0.8,0.4,2.7-0.6,2.5c-1-0.2-5.2-2.5-6.6-4.3c-1.4-1.7-2.7-3.7-2.7-3.7
			s-8.7,0.4-9.9-0.2c-1.2-0.6-7.2-2.3-7.2-2.3s-2.9-0.2-4.6-0.6c-1.7-0.4-5-2.3-5-2.3l-3.3-2.9c0,0-1-0.2-1.2-1
			C703.3,285.8,704.8,284.4,704.8,284.4z"/>
	</g>
	<g id="bass-19" transform="scale(1.16118684980381)">
		<path id="bass_18_" class="st0" d="M632.7,374.8l2.7-2.4l4.5-3.6l5.6-2.2l11.1-6.2c0,0,8.9-2.9,13.4-3.1c4.5-0.2,1.1-2.9,1.1-2.9
			l1.6,0.2l0.2-2.2l1.6,1.6l2.4-2.9l0.4,2l2.7-3.6l0.9-0.7h0.9l-0.9,2.7l3.1-1.6l0.9,1.1l-0.9,1.8l2.7-0.4l-0.2,1.8h1.6l0.4,1.3
			l1.8-0.4l0.9,1.1l0.2,0.4h1.6l0.9,0.7c0,0,4.9-4.7,10.5-6.2c5.6-1.6,11.1,0.9,11.1,0.9s3.3,1.6,3.6,4.7c0.2,3.1,0.4,4.7-0.4,5.6
			c-0.9,0.9-5.1,1.6-5.1,1.6l-0.2,1.6c0,0,3.6,1.6,8.9,1.1s5.6-0.4,5.6-0.4l5.8-3.3c0,0,7.3-4.5,10-4.7c2.7-0.2,3.3,0,3.3,0
			s2.9,3.3,2.7,5.3c-0.2,2-3.3,5.1-4,6.9c-0.7,1.8,0.4,3.8,0.4,3.8s2.7,3.8,2.7,5.8c0,2-0.7,4.5-1.8,5.1s-3.8,0.9-4.7,0.7
			s-12.9-6.7-12.9-6.7s-6.7-1.6-11.1-1.1c-4.5,0.4-4.2,1.3-4.2,1.3l4.9,1.6c0,0,1.6,0.7,1.6,1.6s-0.4,5.3-1.8,6.9
			c-1.3,1.6-3.3,3.3-6,3.3c-2.7,0-6.9-2-6.9-2l-7.8-3.1l-0.9-1.6c0,0-1.3,0.9-7.1,1.6c-5.8,0.7-17.6-0.4-17.6-0.4s4.2,1.1,4.9,2
			c0.7,0.9,0.7,2.9,0.7,2.9s0.2,1.6,0.7,2.4c0.4,0.9,0.4,3.1-0.7,2.9c-1.1-0.2-6-2.9-7.6-4.9c-1.6-2-3.1-4.2-3.1-4.2
			s-10,0.4-11.4-0.2c-1.3-0.7-8.2-2.7-8.2-2.7s-3.3-0.2-5.3-0.7c-2-0.4-5.8-2.7-5.8-2.7l-3.8-3.3c0,0-1.1-0.2-1.3-1.1
			C630.9,376.4,632.7,374.8,632.7,374.8z"/>
	</g>
	<g id="bass-20" transform="scale(1.03976359373897)">
		<path id="bass_19_" class="st0" d="M624.7,297.1l2.4-2.2l4-3.2l5-2l10-5.6c0,0,8-2.6,12-2.8s1-2.6,1-2.6l1.4,0.2l0.2-2l1.4,1.4
			l2.2-2.6l0.4,1.8l2.4-3.2l0.8-0.6h0.8l-0.8,2.4l2.8-1.4l0.8,1l-0.8,1.6l2.4-0.4l-0.2,1.6h1.4l0.4,1.2l1.6-0.4l0.8,1l0.2,0.4h1.4
			l0.8,0.6c0,0,4.4-4.2,9.4-5.6c5-1.4,10,0.8,10,0.8s3,1.4,3.2,4.2s0.4,4.2-0.4,5c-0.8,0.8-4.6,1.4-4.6,1.4l-0.2,1.4
			c0,0,3.2,1.4,8,1c4.8-0.4,5-0.4,5-0.4l5.2-3c0,0,6.6-4,9-4.2c2.4-0.2,3,0,3,0s2.6,3,2.4,4.8c-0.2,1.8-3,4.6-3.6,6.2
			s0.4,3.4,0.4,3.4s2.4,3.4,2.4,5.2c0,1.8-0.6,4-1.6,4.6c-1,0.6-3.4,0.8-4.2,0.6s-11.6-6-11.6-6s-6-1.4-10-1c-4,0.4-3.8,1.2-3.8,1.2
			l4.4,1.4c0,0,1.4,0.6,1.4,1.4c0,0.8-0.4,4.8-1.6,6.2c-1.2,1.4-3,3-5.4,3c-2.4,0-6.2-1.8-6.2-1.8l-7-2.8l-0.8-1.4
			c0,0-1.2,0.8-6.4,1.4s-15.8-0.4-15.8-0.4s3.8,1,4.4,1.8c0.6,0.8,0.6,2.6,0.6,2.6s0.2,1.4,0.6,2.2c0.4,0.8,0.4,2.8-0.6,2.6
			c-1-0.2-5.4-2.6-6.8-4.4c-1.4-1.8-2.8-3.8-2.8-3.8s-9,0.4-10.2-0.2c-1.2-0.6-7.4-2.4-7.4-2.4s-3-0.2-4.8-0.6
			c-1.8-0.4-5.2-2.4-5.2-2.4l-3.4-3c0,0-1-0.2-1.2-1C623.1,298.5,624.7,297.1,624.7,297.1z"/>
	</g>
	<g id="bass-21" transform="scale(1.01754209157513)">
		<path id="bass_20_" class="st0" d="M237.7,186.2l2.3-2.1l3.9-3.1l4.9-2l9.8-5.5c0,0,7.8-2.5,11.7-2.7c3.9-0.2,1-2.5,1-2.5l1.4,0.2
			l0.2-2l1.4,1.4l2.1-2.5l0.4,1.8l2.3-3.1l0.8-0.6h0.8l-0.8,2.3l2.7-1.4l0.8,1l-0.8,1.6l2.3-0.4l-0.2,1.6h1.4l0.4,1.2l1.6-0.4l0.8,1
			l0.2,0.4h1.4l0.8,0.6c0,0,4.3-4.1,9.2-5.5c4.9-1.4,9.8,0.8,9.8,0.8s2.9,1.4,3.1,4.1c0.2,2.7,0.4,4.1-0.4,4.9s-4.5,1.4-4.5,1.4
			l-0.2,1.4c0,0,3.1,1.4,7.8,1s4.9-0.4,4.9-0.4l5.1-2.9c0,0,6.4-3.9,8.8-4.1c2.3-0.2,2.9,0,2.9,0s2.5,2.9,2.3,4.7
			c-0.2,1.8-2.9,4.5-3.5,6s0.4,3.3,0.4,3.3s2.3,3.3,2.3,5.1s-0.6,3.9-1.6,4.5c-1,0.6-3.3,0.8-4.1,0.6c-0.8-0.2-11.3-5.9-11.3-5.9
			s-5.9-1.4-9.8-1s-3.7,1.2-3.7,1.2l4.3,1.4c0,0,1.4,0.6,1.4,1.4s-0.4,4.7-1.6,6c-1.2,1.4-2.9,2.9-5.3,2.9s-6-1.8-6-1.8l-6.8-2.7
			l-0.8-1.4c0,0-1.2,0.8-6.2,1.4c-5.1,0.6-15.4-0.4-15.4-0.4s3.7,1,4.3,1.8s0.6,2.5,0.6,2.5s0.2,1.4,0.6,2.1
			c0.4,0.8,0.4,2.7-0.6,2.5c-1-0.2-5.3-2.5-6.6-4.3c-1.4-1.8-2.7-3.7-2.7-3.7s-8.8,0.4-10-0.2c-1.2-0.6-7.2-2.3-7.2-2.3
			s-2.9-0.2-4.7-0.6s-5.1-2.3-5.1-2.3l-3.3-2.9c0,0-1-0.2-1.2-1C236.1,187.6,237.7,186.2,237.7,186.2z"/>
	</g>
	<g id="bass-22" transform="scale(1.07514547782616)">
		<path id="bass_21_" class="st0" d="M736.8,420.3l2.5-2.3l4.1-3.3l5.2-2.1l10.3-5.8c0,0,8.2-2.7,12.4-2.9c4.1-0.2,1-2.7,1-2.7
			l1.4,0.2l0.2-2.1l1.4,1.4l2.3-2.7l0.4,1.9l2.5-3.3l0.8-0.6h0.8l-0.8,2.5l2.9-1.4l0.8,1l-0.8,1.6l2.5-0.4l-0.2,1.6h1.4l0.4,1.2
			l1.6-0.4l0.8,1l0.2,0.4h1.4l0.8,0.6c0,0,4.5-4.3,9.7-5.8s10.3,0.8,10.3,0.8s3.1,1.4,3.3,4.3c0.2,2.9,0.4,4.3-0.4,5.2
			s-4.7,1.4-4.7,1.4l-0.2,1.4c0,0,3.3,1.4,8.2,1c4.9-0.4,5.2-0.4,5.2-0.4l5.4-3.1c0,0,6.8-4.1,9.3-4.3c2.5-0.2,3.1,0,3.1,0
			s2.7,3.1,2.5,4.9c-0.2,1.9-3.1,4.7-3.7,6.4c-0.6,1.6,0.4,3.5,0.4,3.5s2.5,3.5,2.5,5.4s-0.6,4.1-1.6,4.7s-3.5,0.8-4.3,0.6
			c-0.8-0.2-12-6.2-12-6.2s-6.2-1.4-10.3-1c-4.1,0.4-3.9,1.2-3.9,1.2l4.5,1.4c0,0,1.4,0.6,1.4,1.4s-0.4,4.9-1.6,6.4
			c-1.2,1.4-3.1,3.1-5.6,3.1c-2.5,0-6.4-1.9-6.4-1.9l-7.2-2.9l-0.8-1.4c0,0-1.2,0.8-6.6,1.4c-5.4,0.6-16.3-0.4-16.3-0.4
			s3.9,1,4.5,1.9c0.6,0.8,0.6,2.7,0.6,2.7s0.2,1.4,0.6,2.3c0.4,0.8,0.4,2.9-0.6,2.7s-5.6-2.7-7-4.5c-1.4-1.9-2.9-3.9-2.9-3.9
			s-9.3,0.4-10.5-0.2c-1.2-0.6-7.6-2.5-7.6-2.5s-3.1-0.2-4.9-0.6c-1.9-0.4-5.4-2.5-5.4-2.5l-3.5-3.1c0,0-1-0.2-1.2-1
			S736.8,420.3,736.8,420.3z"/>
	</g>
	<g id="bass-23" transform="scale(1.06792605657757)">
		<path id="bass_22_" class="st0" d="M673.5,87.8l2.5-2.3l4.1-3.3l5.1-2l10.2-5.7c0,0,8.2-2.7,12.3-2.9c4.1-0.2,1-2.7,1-2.7l1.4,0.2
			l0.2-2l1.4,1.4l2.3-2.7l0.4,1.8l2.5-3.3l0.8-0.6h0.8l-0.8,2.5l2.9-1.4l0.8,1l-0.8,1.6l2.5-0.4l-0.2,1.6h1.4l0.4,1.2l1.6-0.4l0.8,1
			l0.2,0.4h1.4l0.8,0.6c0,0,4.5-4.3,9.6-5.7c5.1-1.4,10.2,0.8,10.2,0.8s3.1,1.4,3.3,4.3c0.2,2.9,0.4,4.3-0.4,5.1
			c-0.8,0.8-4.7,1.4-4.7,1.4l-0.2,1.4c0,0,3.3,1.4,8.2,1c4.9-0.4,5.1-0.4,5.1-0.4l5.3-3.1c0,0,6.8-4.1,9.2-4.3c2.5-0.2,3.1,0,3.1,0
			s2.7,3.1,2.5,4.9c-0.2,1.8-3.1,4.7-3.7,6.3s0.4,3.5,0.4,3.5s2.5,3.5,2.5,5.3c0,1.8-0.6,4.1-1.6,4.7c-1,0.6-3.5,0.8-4.3,0.6
			c-0.8-0.2-11.9-6.1-11.9-6.1s-6.1-1.4-10.2-1c-4.1,0.4-3.9,1.2-3.9,1.2l4.5,1.4c0,0,1.4,0.6,1.4,1.4c0,0.8-0.4,4.9-1.6,6.3
			c-1.2,1.4-3.1,3.1-5.5,3.1s-6.3-1.8-6.3-1.8l-7.2-2.9l-0.8-1.4c0,0-1.2,0.8-6.6,1.4c-5.3,0.6-16.2-0.4-16.2-0.4s3.9,1,4.5,1.8
			s0.6,2.7,0.6,2.7s0.2,1.4,0.6,2.3c0.4,0.8,0.4,2.9-0.6,2.7c-1-0.2-5.5-2.7-7-4.5c-1.4-1.8-2.9-3.9-2.9-3.9s-9.2,0.4-10.4-0.2
			s-7.6-2.5-7.6-2.5s-3.1-0.2-4.9-0.6s-5.3-2.5-5.3-2.5l-3.5-3.1c0,0-1-0.2-1.2-1C671.9,89.2,673.5,87.8,673.5,87.8z"/>
	</g>
	<g id="bass-24" transform="scale(1.06692977827938)">
		<path id="bass_23_" class="st0" d="M580.5,22.9l2.5-2.3l4.1-3.3l5.1-2l10.2-5.7c0,0,8.2-2.7,12.3-2.9s1-2.7,1-2.7l1.4,0.2l0.2-2
			l1.4,1.4L621,1l0.4,1.8l2.5-3.3l0.8-0.6h0.8l-0.8,2.5l2.9-1.4l0.8,1l-0.8,1.6l2.5-0.4l-0.2,1.6h1.4l0.4,1.2l1.6-0.4l0.8,1l0.2,0.4
			h1.4l0.8,0.6c0,0,4.5-4.3,9.6-5.7c5.1-1.4,10.2,0.8,10.2,0.8s3.1,1.4,3.3,4.3c0.2,2.9,0.4,4.3-0.4,5.1c-0.8,0.8-4.7,1.4-4.7,1.4
			l-0.2,1.4c0,0,3.3,1.4,8.2,1s5.1-0.4,5.1-0.4l5.3-3.1c0,0,6.8-4.1,9.2-4.3c2.5-0.2,3.1,0,3.1,0s2.7,3.1,2.5,4.9
			c-0.2,1.8-3.1,4.7-3.7,6.3c-0.6,1.6,0.4,3.5,0.4,3.5s2.5,3.5,2.5,5.3s-0.6,4.1-1.6,4.7c-1,0.6-3.5,0.8-4.3,0.6
			c-0.8-0.2-11.9-6.1-11.9-6.1s-6.1-1.4-10.2-1c-4.1,0.4-3.9,1.2-3.9,1.2l4.5,1.4c0,0,1.4,0.6,1.4,1.4c0,0.8-0.4,4.9-1.6,6.3
			c-1.2,1.4-3.1,3.1-5.5,3.1c-2.5,0-6.3-1.8-6.3-1.8l-7.2-2.9l-0.8-1.4c0,0-1.2,0.8-6.5,1.4S616.7,34,616.7,34s3.9,1,4.5,1.8
			c0.6,0.8,0.6,2.7,0.6,2.7s0.2,1.4,0.6,2.3c0.4,0.8,0.4,2.9-0.6,2.7c-1-0.2-5.5-2.7-7-4.5C613.4,37,612,35,612,35
			s-9.2,0.4-10.4-0.2c-1.2-0.6-7.6-2.5-7.6-2.5s-3.1-0.2-4.9-0.6c-1.8-0.4-5.3-2.5-5.3-2.5l-3.5-3.1c0,0-1-0.2-1.2-1
			S580.5,22.9,580.5,22.9z"/>
	</g>
	<g id="bass-25" transform="scale(1.32399746362759)">
		<path id="bass_24_" class="st0" d="M309.2,124.8l3-2.8l5.1-4.1l6.3-2.5l12.7-7.1c0,0,10.2-3.3,15.2-3.6c5.1-0.3,1.3-3.3,1.3-3.3
			l1.8,0.3l0.3-2.5l1.8,1.8l2.8-3.3l0.5,2.3l3-4.1l1-0.8h1l-1,3l3.6-1.8l1,1.3l-1,2l3-0.5l-0.3,2h1.8l0.5,1.5l2-0.5l1,1.3l0.3,0.5
			h1.8l1,0.8c0,0,5.6-5.3,11.9-7.1c6.3-1.8,12.7,1,12.7,1s3.8,1.8,4.1,5.3c0.3,3.6,0.5,5.3-0.5,6.3c-1,1-5.8,1.8-5.8,1.8l-0.3,1.8
			c0,0,4.1,1.8,10.2,1.3s6.3-0.5,6.3-0.5l6.6-3.8c0,0,8.4-5.1,11.4-5.3c3-0.3,3.8,0,3.8,0s3.3,3.8,3,6.1c-0.3,2.3-3.8,5.8-4.6,7.9
			s0.5,4.3,0.5,4.3s3,4.3,3,6.6c0,2.3-0.8,5.1-2,5.8c-1.3,0.8-4.3,1-5.3,0.8s-14.7-7.6-14.7-7.6s-7.6-1.8-12.7-1.3
			c-5.1,0.5-4.8,1.5-4.8,1.5l5.6,1.8c0,0,1.8,0.8,1.8,1.8c0,1-0.5,6.1-2,7.9c-1.5,1.8-3.8,3.8-6.9,3.8c-3,0-7.9-2.3-7.9-2.3
			l-8.9-3.6l-1-1.8c0,0-1.5,1-8.1,1.8c-6.6,0.8-20.1-0.5-20.1-0.5s4.8,1.3,5.6,2.3c0.8,1,0.8,3.3,0.8,3.3s0.3,1.8,0.8,2.8
			c0.5,1,0.5,3.6-0.8,3.3c-1.3-0.3-6.9-3.3-8.6-5.6c-1.8-2.3-3.6-4.8-3.6-4.8s-11.4,0.5-12.9-0.3c-1.5-0.8-9.4-3-9.4-3
			s-3.8-0.3-6.1-0.8c-2.3-0.5-6.6-3-6.6-3l-4.3-3.8c0,0-1.3-0.3-1.5-1.3C307.2,126.6,309.2,124.8,309.2,124.8z"/>
	</g>
	<g id="bass-26" transform="scale(0.876515697906834)">
		<path id="bass_25_" class="st0" d="M528.2,54l2-1.8l3.4-2.7l4.2-1.7l8.4-4.7c0,0,6.7-2.2,10.1-2.4c3.4-0.2,0.8-2.2,0.8-2.2
			l1.2,0.2l0.2-1.7l1.2,1.2l1.8-2.2l0.3,1.5l2-2.7l0.7-0.5h0.7l-0.7,2l2.4-1.2l0.7,0.8l-0.7,1.3l2-0.3l-0.2,1.3h1.2l0.3,1l1.3-0.3
			l0.7,0.8l0.2,0.3h1.2l0.7,0.5c0,0,3.7-3.5,7.9-4.7c4.2-1.2,8.4,0.7,8.4,0.7s2.5,1.2,2.7,3.5s0.3,3.5-0.3,4.2
			c-0.7,0.7-3.9,1.2-3.9,1.2l-0.2,1.2c0,0,2.7,1.2,6.7,0.8s4.2-0.3,4.2-0.3l4.4-2.5c0,0,5.5-3.4,7.6-3.5s2.5,0,2.5,0s2.2,2.5,2,4
			s-2.5,3.9-3,5.2c-0.5,1.3,0.3,2.9,0.3,2.9s2,2.9,2,4.4c0,1.5-0.5,3.4-1.3,3.9c-0.8,0.5-2.9,0.7-3.5,0.5c-0.7-0.2-9.7-5-9.7-5
			s-5-1.2-8.4-0.8c-3.4,0.3-3.2,1-3.2,1l3.7,1.2c0,0,1.2,0.5,1.2,1.2c0,0.7-0.3,4-1.3,5.2c-1,1.2-2.5,2.5-4.5,2.5s-5.2-1.5-5.2-1.5
			l-5.9-2.4l-0.7-1.2c0,0-1,0.7-5.4,1.2C566.9,63.9,558,63,558,63s3.2,0.8,3.7,1.5c0.5,0.7,0.5,2.2,0.5,2.2s0.2,1.2,0.5,1.8
			c0.3,0.7,0.3,2.4-0.5,2.2c-0.8-0.2-4.5-2.2-5.7-3.7c-1.2-1.5-2.4-3.2-2.4-3.2s-7.6,0.3-8.6-0.2c-1-0.5-6.2-2-6.2-2s-2.5-0.2-4-0.5
			c-1.5-0.3-4.4-2-4.4-2l-2.9-2.5c0,0-0.8-0.2-1-0.8C526.9,55.1,528.2,54,528.2,54z"/>
	</g>
	<g id="bass-27" transform="scale(0.785642387465478)">
		<path id="bass_26_" class="st0" d="M718.8,165.6l1.8-1.7l3-2.4l3.8-1.5l7.5-4.2c0,0,6-2,9-2.1c3-0.2,0.8-2,0.8-2l1.1,0.2l0.2-1.5
			l1.1,1.1l1.7-2l0.3,1.4l1.8-2.4l0.6-0.5h0.6l-0.6,1.8l2.1-1.1l0.6,0.8l-0.6,1.2l1.8-0.3l-0.2,1.2h1.1l0.3,0.9l1.2-0.3l0.6,0.8
			l0.2,0.3h1.1l0.6,0.5c0,0,3.3-3.2,7.1-4.2c3.8-1.1,7.5,0.6,7.5,0.6s2.3,1.1,2.4,3.2c0.2,2.1,0.3,3.2-0.3,3.8s-3.5,1.1-3.5,1.1
			l-0.2,1.1c0,0,2.4,1.1,6,0.8s3.8-0.3,3.8-0.3l3.9-2.3c0,0,5-3,6.8-3.2s2.3,0,2.3,0s2,2.3,1.8,3.6c-0.2,1.4-2.3,3.5-2.7,4.7
			c-0.5,1.2,0.3,2.6,0.3,2.6s1.8,2.6,1.8,3.9s-0.5,3-1.2,3.5c-0.8,0.5-2.6,0.6-3.2,0.5s-8.7-4.5-8.7-4.5s-4.5-1.1-7.5-0.8
			s-2.9,0.9-2.9,0.9l3.3,1.1c0,0,1.1,0.5,1.1,1.1s-0.3,3.6-1.2,4.7s-2.3,2.3-4.1,2.3c-1.8,0-4.7-1.4-4.7-1.4l-5.3-2.1l-0.6-1.1
			c0,0-0.9,0.6-4.8,1.1s-11.9-0.3-11.9-0.3s2.9,0.8,3.3,1.4c0.5,0.6,0.5,2,0.5,2s0.2,1.1,0.5,1.7s0.3,2.1-0.5,2
			c-0.8-0.2-4.1-2-5.1-3.3c-1.1-1.4-2.1-2.9-2.1-2.9s-6.8,0.3-7.7-0.2s-5.6-1.8-5.6-1.8s-2.3-0.2-3.6-0.5c-1.4-0.3-3.9-1.8-3.9-1.8
			l-2.6-2.3c0,0-0.8-0.2-0.9-0.8C717.6,166.7,718.8,165.6,718.8,165.6z"/>
	</g>
	<g id="bass-28" transform="scale(1.09006907663362)">
		<path id="bass_27_" class="st0" d="M534.5,49.1l2.5-2.3l4.2-3.3l5.2-2.1l10.5-5.9c0,0,8.4-2.7,12.5-2.9c4.2-0.2,1-2.7,1-2.7
			l1.5,0.2l0.2-2.1l1.5,1.5l2.3-2.7l0.4,1.9l2.5-3.3l0.8-0.6h0.8l-0.8,2.5l2.9-1.5l0.8,1l-0.8,1.7l2.5-0.4l-0.2,1.7h1.5l0.4,1.3
			l1.7-0.4l0.8,1l0.2,0.4h1.5l0.8,0.6c0,0,4.6-4.4,9.8-5.9c5.2-1.5,10.5,0.8,10.5,0.8s3.1,1.5,3.3,4.4s0.4,4.4-0.4,5.2
			s-4.8,1.5-4.8,1.5l-0.2,1.5c0,0,3.3,1.5,8.4,1s5.2-0.4,5.2-0.4l5.4-3.1c0,0,6.9-4.2,9.4-4.4s3.1,0,3.1,0s2.7,3.1,2.5,5
			c-0.2,1.9-3.1,4.8-3.8,6.5c-0.6,1.7,0.4,3.6,0.4,3.6s2.5,3.6,2.5,5.4c0,1.9-0.6,4.2-1.7,4.8c-1,0.6-3.6,0.8-4.4,0.6
			c-0.8-0.2-12.1-6.3-12.1-6.3s-6.3-1.5-10.5-1c-4.2,0.4-4,1.3-4,1.3l4.6,1.5c0,0,1.5,0.6,1.5,1.5c0,0.8-0.4,5-1.7,6.5
			s-3.1,3.1-5.6,3.1s-6.5-1.9-6.5-1.9l-7.3-2.9l-0.8-1.5c0,0-1.3,0.8-6.7,1.5c-5.4,0.6-16.5-0.4-16.5-0.4s4,1,4.6,1.9
			c0.6,0.8,0.6,2.7,0.6,2.7s0.2,1.5,0.6,2.3c0.4,0.8,0.4,2.9-0.6,2.7c-1-0.2-5.6-2.7-7.1-4.6c-1.5-1.9-2.9-4-2.9-4
			s-9.4,0.4-10.7-0.2c-1.3-0.6-7.7-2.5-7.7-2.5s-3.1-0.2-5-0.6c-1.9-0.4-5.4-2.5-5.4-2.5l-3.6-3.1c0,0-1-0.2-1.3-1
			S534.5,49.1,534.5,49.1z"/>
	</g>
	<g id="bass-29" transform="scale(0.910627843105283)">
		<path id="bass_28_" class="st0" d="M162.5,482l2.1-1.9l3.5-2.8l4.4-1.7l8.7-4.9c0,0,7-2.3,10.5-2.4c3.5-0.2,0.9-2.3,0.9-2.3
			l1.2,0.2l0.2-1.7l1.2,1.2l1.9-2.3l0.3,1.6l2.1-2.8l0.7-0.5h0.7l-0.7,2.1l2.4-1.2l0.7,0.9l-0.7,1.4l2.1-0.3l-0.2,1.4h1.2l0.3,1
			l1.4-0.3l0.7,0.9l0.2,0.3h1.2l0.7,0.5c0,0,3.8-3.7,8.2-4.9c4.4-1.2,8.7,0.7,8.7,0.7s2.6,1.2,2.8,3.7s0.3,3.7-0.3,4.4
			c-0.7,0.7-4,1.2-4,1.2l-0.2,1.2c0,0,2.8,1.2,7,0.9c4.2-0.3,4.4-0.3,4.4-0.3l4.5-2.6c0,0,5.8-3.5,7.9-3.7c2.1-0.2,2.6,0,2.6,0
			s2.3,2.6,2.1,4.2c-0.2,1.6-2.6,4-3.1,5.4c-0.5,1.4,0.3,3,0.3,3s2.1,3,2.1,4.5c0,1.6-0.5,3.5-1.4,4c-0.9,0.5-3,0.7-3.7,0.5
			c-0.7-0.2-10.1-5.2-10.1-5.2s-5.2-1.2-8.7-0.9c-3.5,0.3-3.3,1-3.3,1l3.8,1.2c0,0,1.2,0.5,1.2,1.2s-0.3,4.2-1.4,5.4
			c-1,1.2-2.6,2.6-4.7,2.6c-2.1,0-5.4-1.6-5.4-1.6l-6.1-2.4l-0.7-1.2c0,0-1,0.7-5.6,1.2s-13.8-0.3-13.8-0.3s3.3,0.9,3.8,1.6
			c0.5,0.7,0.5,2.3,0.5,2.3s0.2,1.2,0.5,1.9c0.3,0.7,0.3,2.4-0.5,2.3c-0.9-0.2-4.7-2.3-5.9-3.8c-1.2-1.6-2.4-3.3-2.4-3.3
			s-7.9,0.3-8.9-0.2c-1-0.5-6.5-2.1-6.5-2.1s-2.6-0.2-4.2-0.5c-1.6-0.3-4.5-2.1-4.5-2.1l-3-2.6c0,0-0.9-0.2-1-0.9
			S162.5,482,162.5,482z"/>
	</g>
	<g id="bass-30" transform="scale(0.957465443054319)">
		<path id="bass_29_" class="st0" d="M270.2,441.2l2.2-2l3.7-2.9l4.6-1.8l9.2-5.1c0,0,7.3-2.4,11-2.6s0.9-2.4,0.9-2.4l1.3,0.2
			l0.2-1.8l1.3,1.3l2-2.4l0.4,1.7l2.2-2.9l0.7-0.6h0.7l-0.7,2.2l2.6-1.3l0.7,0.9l-0.7,1.5l2.2-0.4l-0.2,1.5h1.3l0.4,1.1l1.5-0.4
			l0.7,0.9l0.2,0.4h1.3l0.7,0.6c0,0,4-3.9,8.6-5.1c4.6-1.3,9.2,0.7,9.2,0.7s2.8,1.3,2.9,3.9s0.4,3.9-0.4,4.6
			c-0.7,0.7-4.2,1.3-4.2,1.3l-0.2,1.3c0,0,2.9,1.3,7.3,0.9c4.4-0.4,4.6-0.4,4.6-0.4l4.8-2.8c0,0,6.1-3.7,8.3-3.9
			c2.2-0.2,2.8,0,2.8,0s2.4,2.8,2.2,4.4c-0.2,1.7-2.8,4.2-3.3,5.7c-0.6,1.5,0.4,3.1,0.4,3.1s2.2,3.1,2.2,4.8c0,1.7-0.6,3.7-1.5,4.2
			c-0.9,0.6-3.1,0.7-3.9,0.6c-0.7-0.2-10.6-5.5-10.6-5.5s-5.5-1.3-9.2-0.9c-3.7,0.4-3.5,1.1-3.5,1.1l4,1.3c0,0,1.3,0.6,1.3,1.3
			s-0.4,4.4-1.5,5.7c-1.1,1.3-2.8,2.8-5,2.8s-5.7-1.7-5.7-1.7l-6.4-2.6l-0.7-1.3c0,0-1.1,0.7-5.9,1.3c-4.8,0.6-14.5-0.4-14.5-0.4
			s3.5,0.9,4,1.7c0.6,0.7,0.6,2.4,0.6,2.4s0.2,1.3,0.6,2c0.4,0.7,0.4,2.6-0.6,2.4c-0.9-0.2-5-2.4-6.2-4c-1.3-1.7-2.6-3.5-2.6-3.5
			s-8.3,0.4-9.4-0.2c-1.1-0.6-6.8-2.2-6.8-2.2s-2.8-0.2-4.4-0.6c-1.7-0.4-4.8-2.2-4.8-2.2l-3.1-2.8c0,0-0.9-0.2-1.1-0.9
			C268.7,442.5,270.2,441.2,270.2,441.2z"/>
	</g>
	<g id="bass-31" transform="scale(0.963333949498522)">
		<path id="bass_30_" class="st0" d="M140.6,88.4l2.2-2l3.7-3l4.6-1.8l9.2-5.2c0,0,7.4-2.4,11.1-2.6c3.7-0.2,0.9-2.4,0.9-2.4
			l1.3,0.2l0.2-1.8l1.3,1.3l2-2.4l0.4,1.7l2.2-3l0.7-0.6h0.7l-0.7,2.2l2.6-1.3l0.7,0.9l-0.7,1.5l2.2-0.4l-0.2,1.5h1.3l0.4,1.1
			l1.5-0.4l0.7,0.9l0.2,0.4h1.3l0.7,0.6c0,0,4.1-3.9,8.7-5.2c4.6-1.3,9.2,0.7,9.2,0.7s2.8,1.3,3,3.9c0.2,2.6,0.4,3.9-0.4,4.6
			c-0.7,0.7-4.2,1.3-4.2,1.3l-0.2,1.3c0,0,3,1.3,7.4,0.9c4.4-0.4,4.6-0.4,4.6-0.4l4.8-2.8c0,0,6.1-3.7,8.3-3.9c2.2-0.2,2.8,0,2.8,0
			s2.4,2.8,2.2,4.4s-2.8,4.2-3.3,5.7s0.4,3.1,0.4,3.1s2.2,3.1,2.2,4.8s-0.6,3.7-1.5,4.2c-0.9,0.6-3.1,0.7-3.9,0.6
			c-0.7-0.2-10.7-5.5-10.7-5.5s-5.5-1.3-9.2-0.9s-3.5,1.1-3.5,1.1l4.1,1.3c0,0,1.3,0.6,1.3,1.3s-0.4,4.4-1.5,5.7
			c-1.1,1.3-2.8,2.8-5,2.8s-5.7-1.7-5.7-1.7l-6.5-2.6l-0.7-1.3c0,0-1.1,0.7-5.9,1.3c-4.8,0.6-14.6-0.4-14.6-0.4s3.5,0.9,4.1,1.7
			c0.6,0.7,0.6,2.4,0.6,2.4s0.2,1.3,0.6,2c0.4,0.7,0.4,2.6-0.6,2.4s-5-2.4-6.3-4.1c-1.3-1.7-2.6-3.5-2.6-3.5s-8.3,0.4-9.4-0.2
			c-1.1-0.6-6.8-2.2-6.8-2.2s-2.8-0.2-4.4-0.6c-1.7-0.4-4.8-2.2-4.8-2.2l-3.1-2.8c0,0-0.9-0.2-1.1-0.9
			C139.1,89.7,140.6,88.4,140.6,88.4z"/>
	</g>
	<g id="bass-32" transform="scale(0.883281675748748)">
		<path id="bass_31_" class="st0" d="M202.1,323.2l2-1.9l3.4-2.7l4.2-1.7l8.5-4.7c0,0,6.8-2.2,10.2-2.4c3.4-0.2,0.8-2.2,0.8-2.2
			l1.2,0.2l0.2-1.7l1.2,1.2l1.9-2.2l0.3,1.5l2-2.7l0.7-0.5h0.7l-0.7,2l2.4-1.2l0.7,0.8l-0.7,1.4l2-0.3l-0.2,1.4h1.2l0.3,1l1.4-0.3
			l0.7,0.8l0.2,0.3h1.2l0.7,0.5c0,0,3.7-3.6,8-4.7c4.2-1.2,8.5,0.7,8.5,0.7s2.5,1.2,2.7,3.6c0.2,2.4,0.3,3.6-0.3,4.2
			c-0.7,0.7-3.9,1.2-3.9,1.2l-0.2,1.2c0,0,2.7,1.2,6.8,0.8c4.1-0.3,4.2-0.3,4.2-0.3l4.4-2.5c0,0,5.6-3.4,7.6-3.6c2-0.2,2.5,0,2.5,0
			s2.2,2.5,2,4.1c-0.2,1.5-2.5,3.9-3,5.3c-0.5,1.4,0.3,2.9,0.3,2.9s2,2.9,2,4.4s-0.5,3.4-1.4,3.9c-0.8,0.5-2.9,0.7-3.6,0.5
			c-0.7-0.2-9.8-5.1-9.8-5.1s-5.1-1.2-8.5-0.8c-3.4,0.3-3.2,1-3.2,1l3.7,1.2c0,0,1.2,0.5,1.2,1.2c0,0.7-0.3,4.1-1.4,5.3
			c-1,1.2-2.5,2.5-4.6,2.5s-5.3-1.5-5.3-1.5l-5.9-2.4l-0.7-1.2c0,0-1,0.7-5.4,1.2c-4.4,0.5-13.4-0.3-13.4-0.3s3.2,0.8,3.7,1.5
			c0.5,0.7,0.5,2.2,0.5,2.2s0.2,1.2,0.5,1.9c0.3,0.7,0.3,2.4-0.5,2.2s-4.6-2.2-5.8-3.7c-1.2-1.5-2.4-3.2-2.4-3.2s-7.6,0.3-8.6-0.2
			c-1-0.5-6.3-2-6.3-2s-2.5-0.2-4.1-0.5c-1.5-0.3-4.4-2-4.4-2l-2.9-2.5c0,0-0.8-0.2-1-0.8C200.7,324.4,202.1,323.2,202.1,323.2z"/>
	</g>
	<g id="bass-33" transform="scale(0.865186800845662)">
		<path id="bass_32_" class="st0" d="M379.4,335.4l2-1.8l3.3-2.7l4.1-1.7l8.3-4.6c0,0,6.6-2.2,10-2.3s0.8-2.2,0.8-2.2l1.2,0.2
			l0.2-1.7l1.2,1.2l1.8-2.2l0.3,1.5l2-2.7l0.7-0.5h0.7l-0.7,2l2.3-1.2l0.7,0.8l-0.7,1.3l2-0.3l-0.2,1.3h1.2l0.3,1l1.3-0.3l0.7,0.8
			l0.2,0.3h1.2l0.7,0.5c0,0,3.7-3.5,7.8-4.6s8.3,0.7,8.3,0.7s2.5,1.2,2.7,3.5c0.2,2.3,0.3,3.5-0.3,4.1c-0.7,0.7-3.8,1.2-3.8,1.2
			l-0.2,1.2c0,0,2.7,1.2,6.6,0.8c4-0.3,4.1-0.3,4.1-0.3l4.3-2.5c0,0,5.5-3.3,7.5-3.5c2-0.2,2.5,0,2.5,0s2.2,2.5,2,4
			c-0.2,1.5-2.5,3.8-3,5.1s0.3,2.8,0.3,2.8s2,2.8,2,4.3c0,1.5-0.5,3.3-1.3,3.8c-0.8,0.5-2.8,0.7-3.5,0.5c-0.7-0.2-9.6-5-9.6-5
			s-5-1.2-8.3-0.8s-3.2,1-3.2,1l3.7,1.2c0,0,1.2,0.5,1.2,1.2s-0.3,4-1.3,5.1c-1,1.2-2.5,2.5-4.5,2.5c-2,0-5.1-1.5-5.1-1.5l-5.8-2.3
			l-0.7-1.2c0,0-1,0.7-5.3,1.2c-4.3,0.5-13.1-0.3-13.1-0.3s3.2,0.8,3.7,1.5c0.5,0.7,0.5,2.2,0.5,2.2s0.2,1.2,0.5,1.8
			s0.3,2.3-0.5,2.2c-0.8-0.2-4.5-2.2-5.6-3.7c-1.2-1.5-2.3-3.2-2.3-3.2s-7.5,0.3-8.5-0.2c-1-0.5-6.1-2-6.1-2s-2.5-0.2-4-0.5
			c-1.5-0.3-4.3-2-4.3-2l-2.8-2.5c0,0-0.8-0.2-1-0.8S379.4,335.4,379.4,335.4z"/>
	</g>
	<g id="bass-34" transform="scale(1.07934061439354)">
		<path id="bass_33_" class="st0" d="M156.2,132.7l2.5-2.3l4.1-3.3l5.2-2.1l10.3-5.8c0,0,8.3-2.7,12.4-2.9s1-2.7,1-2.7l1.4,0.2
			l0.2-2.1l1.4,1.4l2.3-2.7l0.4,1.9l2.5-3.3l0.8-0.6h0.8l-0.8,2.5l2.9-1.4l0.8,1l-0.8,1.7l2.5-0.4l-0.2,1.7h1.4l0.4,1.2l1.7-0.4
			l0.8,1l0.2,0.4h1.4l0.8,0.6c0,0,4.6-4.3,9.7-5.8c5.2-1.4,10.3,0.8,10.3,0.8s3.1,1.4,3.3,4.3s0.4,4.3-0.4,5.2s-4.8,1.4-4.8,1.4
			l-0.2,1.4c0,0,3.3,1.4,8.3,1s5.2-0.4,5.2-0.4l5.4-3.1c0,0,6.8-4.1,9.3-4.3c2.5-0.2,3.1,0,3.1,0s2.7,3.1,2.5,5
			c-0.2,1.9-3.1,4.8-3.7,6.4c-0.6,1.7,0.4,3.5,0.4,3.5s2.5,3.5,2.5,5.4s-0.6,4.1-1.7,4.8c-1,0.6-3.5,0.8-4.3,0.6
			c-0.8-0.2-12-6.2-12-6.2s-6.2-1.4-10.3-1c-4.1,0.4-3.9,1.2-3.9,1.2l4.6,1.4c0,0,1.4,0.6,1.4,1.4s-0.4,5-1.7,6.4
			c-1.2,1.4-3.1,3.1-5.6,3.1c-2.5,0-6.4-1.9-6.4-1.9l-7.2-2.9l-0.8-1.4c0,0-1.2,0.8-6.6,1.4c-5.4,0.6-16.4-0.4-16.4-0.4
			s3.9,1,4.6,1.9c0.6,0.8,0.6,2.7,0.6,2.7s0.2,1.4,0.6,2.3c0.4,0.8,0.4,2.9-0.6,2.7c-1-0.2-5.6-2.7-7-4.6c-1.4-1.9-2.9-3.9-2.9-3.9
			s-9.3,0.4-10.6-0.2s-7.7-2.5-7.7-2.5s-3.1-0.2-5-0.6c-1.9-0.4-5.4-2.5-5.4-2.5l-3.5-3.1c0,0-1-0.2-1.2-1
			C154.5,134.2,156.2,132.7,156.2,132.7z"/>
	</g>
	<g id="bass-35" transform="scale(0.903122353176025)">
		<path id="bass_34_" class="st0" d="M233.5,194.9l2.1-1.9l3.5-2.8l4.3-1.7l8.7-4.8c0,0,6.9-2.3,10.4-2.4c3.5-0.2,0.9-2.3,0.9-2.3
			l1.2,0.2l0.2-1.7l1.2,1.2l1.9-2.3l0.3,1.6l2.1-2.8l0.7-0.5h0.7l-0.7,2.1l2.4-1.2l0.7,0.9l-0.7,1.4l2.1-0.3l-0.2,1.4h1.2l0.3,1
			l1.4-0.3l0.7,0.9l0.2,0.3h1.2l0.7,0.5c0,0,3.8-3.6,8.1-4.8c4.3-1.2,8.7,0.7,8.7,0.7s2.6,1.2,2.8,3.6s0.3,3.6-0.3,4.3s-4,1.2-4,1.2
			l-0.2,1.2c0,0,2.8,1.2,6.9,0.9c4.2-0.3,4.3-0.3,4.3-0.3l4.5-2.6c0,0,5.7-3.5,7.8-3.6c2.1-0.2,2.6,0,2.6,0s2.3,2.6,2.1,4.2
			c-0.2,1.6-2.6,4-3.1,5.4s0.3,2.9,0.3,2.9s2.1,2.9,2.1,4.5c0,1.6-0.5,3.5-1.4,4c-0.9,0.5-2.9,0.7-3.6,0.5c-0.7-0.2-10-5.2-10-5.2
			s-5.2-1.2-8.7-0.9s-3.3,1-3.3,1l3.8,1.2c0,0,1.2,0.5,1.2,1.2s-0.3,4.2-1.4,5.4c-1,1.2-2.6,2.6-4.7,2.6s-5.4-1.6-5.4-1.6l-6.1-2.4
			l-0.7-1.2c0,0-1,0.7-5.5,1.2c-4.5,0.5-13.7-0.3-13.7-0.3s3.3,0.9,3.8,1.6c0.5,0.7,0.5,2.3,0.5,2.3s0.2,1.2,0.5,1.9
			c0.3,0.7,0.3,2.4-0.5,2.3c-0.9-0.2-4.7-2.3-5.9-3.8c-1.2-1.6-2.4-3.3-2.4-3.3s-7.8,0.3-8.8-0.2c-1-0.5-6.4-2.1-6.4-2.1
			s-2.6-0.2-4.2-0.5c-1.6-0.3-4.5-2.1-4.5-2.1l-2.9-2.6c0,0-0.9-0.2-1-0.9C232.1,196.1,233.5,194.9,233.5,194.9z"/>
	</g>
	<g id="bass-36" transform="scale(0.704928866598063)">
		<path id="bass_35_" class="st0" d="M190.1,383.5l1.6-1.5l2.7-2.2l3.4-1.4l6.8-3.8c0,0,5.4-1.8,8.1-1.9c2.7-0.1,0.7-1.8,0.7-1.8
			l0.9,0.1l0.1-1.4l0.9,0.9l1.5-1.8l0.3,1.2l1.6-2.2l0.5-0.4h0.5l-0.5,1.6l1.9-0.9l0.5,0.7l-0.5,1.1l1.6-0.3l-0.1,1.1h0.9l0.3,0.8
			l1.1-0.3l0.5,0.7l0.1,0.3h0.9l0.5,0.4c0,0,3-2.8,6.4-3.8c3.4-0.9,6.8,0.5,6.8,0.5s2,0.9,2.2,2.8c0.1,1.9,0.3,2.8-0.3,3.4
			c-0.5,0.5-3.1,0.9-3.1,0.9l-0.1,0.9c0,0,2.2,0.9,5.4,0.7c3.2-0.3,3.4-0.3,3.4-0.3l3.5-2c0,0,4.5-2.7,6.1-2.8c1.6-0.1,2,0,2,0
			s1.8,2,1.6,3.2c-0.1,1.2-2,3.1-2.4,4.2c-0.4,1.1,0.3,2.3,0.3,2.3s1.6,2.3,1.6,3.5s-0.4,2.7-1.1,3.1c-0.7,0.4-2.3,0.5-2.8,0.4
			c-0.5-0.1-7.8-4.1-7.8-4.1s-4.1-0.9-6.8-0.7s-2.6,0.8-2.6,0.8l3,0.9c0,0,0.9,0.4,0.9,0.9s-0.3,3.2-1.1,4.2c-0.8,0.9-2,2-3.7,2
			s-4.2-1.2-4.2-1.2l-4.7-1.9l-0.5-0.9c0,0-0.8,0.5-4.3,0.9c-3.5,0.4-10.7-0.3-10.7-0.3s2.6,0.7,3,1.2c0.4,0.5,0.4,1.8,0.4,1.8
			s0.1,0.9,0.4,1.5c0.3,0.5,0.3,1.9-0.4,1.8s-3.7-1.8-4.6-3s-1.9-2.6-1.9-2.6s-6.1,0.3-6.9-0.1c-0.8-0.4-5-1.6-5-1.6s-2-0.1-3.2-0.4
			c-1.2-0.3-3.5-1.6-3.5-1.6l-2.3-2c0,0-0.7-0.1-0.8-0.7C189,384.4,190.1,383.5,190.1,383.5z"/>
	</g>
	<g id="bass-37" transform="scale(0.950829851033861)">
		<path id="bass_36_" class="st0" d="M656.8,308.3l2.2-2l3.6-2.9l4.6-1.8l9.1-5.1c0,0,7.3-2.4,10.9-2.6c3.6-0.2,0.9-2.4,0.9-2.4
			l1.3,0.2l0.2-1.8l1.3,1.3l2-2.4l0.4,1.6l2.2-2.9l0.7-0.5h0.7l-0.7,2.2l2.6-1.3l0.7,0.9l-0.7,1.5l2.2-0.4l-0.2,1.5h1.3l0.4,1.1
			l1.5-0.4l0.7,0.9l0.2,0.4h1.3l0.7,0.5c0,0,4-3.8,8.6-5.1c4.6-1.3,9.1,0.7,9.1,0.7s2.7,1.3,2.9,3.8c0.2,2.6,0.4,3.8-0.4,4.6
			s-4.2,1.3-4.2,1.3l-0.2,1.3c0,0,2.9,1.3,7.3,0.9c4.4-0.4,4.6-0.4,4.6-0.4l4.7-2.7c0,0,6-3.6,8.2-3.8c2.2-0.2,2.7,0,2.7,0
			s2.4,2.7,2.2,4.4c-0.2,1.6-2.7,4.2-3.3,5.7c-0.5,1.5,0.4,3.1,0.4,3.1s2.2,3.1,2.2,4.7c0,1.6-0.5,3.6-1.5,4.2
			c-0.9,0.5-3.1,0.7-3.8,0.5s-10.6-5.5-10.6-5.5s-5.5-1.3-9.1-0.9c-3.6,0.4-3.5,1.1-3.5,1.1l4,1.3c0,0,1.3,0.5,1.3,1.3
			s-0.4,4.4-1.5,5.7s-2.7,2.7-4.9,2.7s-5.7-1.6-5.7-1.6l-6.4-2.6l-0.7-1.3c0,0-1.1,0.7-5.8,1.3c-4.7,0.5-14.4-0.4-14.4-0.4
			s3.5,0.9,4,1.6c0.5,0.7,0.5,2.4,0.5,2.4s0.2,1.3,0.5,2c0.4,0.7,0.4,2.6-0.5,2.4s-4.9-2.4-6.2-4c-1.3-1.6-2.6-3.5-2.6-3.5
			s-8.2,0.4-9.3-0.2c-1.1-0.5-6.7-2.2-6.7-2.2s-2.7-0.2-4.4-0.5s-4.7-2.2-4.7-2.2l-3.1-2.7c0,0-0.9-0.2-1.1-0.9
			C655.3,309.6,656.8,308.3,656.8,308.3z"/>
	</g>
	<g id="bass-38" transform="scale(0.939378745088911)">
		<path id="bass_37_" class="st0" d="M215.4,244.3l2.2-2l3.6-2.9l4.5-1.8l9-5c0,0,7.2-2.3,10.8-2.5c3.6-0.2,0.9-2.3,0.9-2.3l1.3,0.2
			l0.2-1.8l1.3,1.3l2-2.3l0.4,1.6l2.2-2.9l0.7-0.5h0.7l-0.7,2.2l2.5-1.3l0.7,0.9l-0.7,1.4l2.2-0.4l-0.2,1.4h1.3l0.4,1.1l1.4-0.4
			l0.7,0.9l0.2,0.4h1.3l0.7,0.5c0,0,4-3.8,8.5-5s9,0.7,9,0.7s2.7,1.3,2.9,3.8s0.4,3.8-0.4,4.5c-0.7,0.7-4.1,1.3-4.1,1.3l-0.2,1.3
			c0,0,2.9,1.3,7.2,0.9c4.3-0.4,4.5-0.4,4.5-0.4l4.7-2.7c0,0,5.9-3.6,8.1-3.8s2.7,0,2.7,0s2.3,2.7,2.2,4.3c-0.2,1.6-2.7,4.1-3.2,5.6
			c-0.5,1.4,0.4,3.1,0.4,3.1s2.2,3.1,2.2,4.7c0,1.6-0.5,3.6-1.4,4.1c-0.9,0.5-3.1,0.7-3.8,0.5c-0.7-0.2-10.4-5.4-10.4-5.4
			s-5.4-1.3-9-0.9c-3.6,0.4-3.4,1.1-3.4,1.1l4,1.3c0,0,1.3,0.5,1.3,1.3c0,0.7-0.4,4.3-1.4,5.6c-1.1,1.3-2.7,2.7-4.9,2.7
			s-5.6-1.6-5.6-1.6l-6.3-2.5l-0.7-1.3c0,0-1.1,0.7-5.8,1.3c-4.7,0.5-14.2-0.4-14.2-0.4s3.4,0.9,4,1.6c0.5,0.7,0.5,2.3,0.5,2.3
			s0.2,1.3,0.5,2c0.4,0.7,0.4,2.5-0.5,2.3c-0.9-0.2-4.9-2.3-6.1-4c-1.3-1.6-2.5-3.4-2.5-3.4s-8.1,0.4-9.2-0.2
			c-1.1-0.5-6.7-2.2-6.7-2.2s-2.7-0.2-4.3-0.5c-1.6-0.4-4.7-2.2-4.7-2.2l-3.1-2.7c0,0-0.9-0.2-1.1-0.9
			C213.9,245.6,215.4,244.3,215.4,244.3z"/>
	</g>
	<g id="bass-39" transform="scale(0.893456400638382)">
		<path id="bass_38_" class="st0" d="M681,432.9l2.1-1.9l3.4-2.7l4.3-1.7l8.6-4.8c0,0,6.9-2.2,10.3-2.4c3.4-0.2,0.9-2.2,0.9-2.2
			l1.2,0.2l0.2-1.7l1.2,1.2l1.9-2.2l0.3,1.5l2.1-2.7l0.7-0.5h0.7l-0.7,2.1l2.4-1.2l0.7,0.9l-0.7,1.4l2.1-0.3l-0.2,1.4h1.2l0.3,1
			l1.4-0.3l0.7,0.9l0.2,0.3h1.2l0.7,0.5c0,0,3.8-3.6,8.1-4.8c4.3-1.2,8.6,0.7,8.6,0.7s2.6,1.2,2.7,3.6c0.2,2.4,0.3,3.6-0.3,4.3
			s-3.9,1.2-3.9,1.2l-0.2,1.2c0,0,2.7,1.2,6.9,0.9s4.3-0.3,4.3-0.3l4.5-2.6c0,0,5.7-3.4,7.7-3.6c2.1-0.2,2.6,0,2.6,0
			s2.2,2.6,2.1,4.1c-0.2,1.5-2.6,3.9-3.1,5.3s0.3,2.9,0.3,2.9s2.1,2.9,2.1,4.5c0,1.5-0.5,3.4-1.4,3.9c-0.9,0.5-2.9,0.7-3.6,0.5
			c-0.7-0.2-9.9-5.1-9.9-5.1s-5.1-1.2-8.6-0.9s-3.3,1-3.3,1l3.8,1.2c0,0,1.2,0.5,1.2,1.2s-0.3,4.1-1.4,5.3c-1,1.2-2.6,2.6-4.6,2.6
			s-5.3-1.5-5.3-1.5l-6-2.4l-0.7-1.2c0,0-1,0.7-5.5,1.2c-4.5,0.5-13.5-0.3-13.5-0.3s3.3,0.9,3.8,1.5s0.5,2.2,0.5,2.2
			s0.2,1.2,0.5,1.9c0.3,0.7,0.3,2.4-0.5,2.2c-0.9-0.2-4.6-2.2-5.8-3.8c-1.2-1.5-2.4-3.3-2.4-3.3s-7.7,0.3-8.7-0.2
			c-1-0.5-6.3-2.1-6.3-2.1s-2.6-0.2-4.1-0.5s-4.5-2.1-4.5-2.1l-2.9-2.6c0,0-0.9-0.2-1-0.9C679.7,434.1,681,432.9,681,432.9z"/>
	</g>
	<g id="bass-40" transform="scale(0.931529388825761)">
		<path id="bass_39_" class="st0" d="M307.6,482.7l2.1-2l3.6-2.9l4.5-1.8l8.9-5c0,0,7.1-2.3,10.7-2.5s0.9-2.3,0.9-2.3l1.3,0.2
			l0.2-1.8l1.3,1.3l2-2.3l0.4,1.6l2.1-2.9l0.7-0.5h0.7l-0.7,2.1l2.5-1.3l0.7,0.9l-0.7,1.4l2.1-0.4l-0.2,1.4h1.3l0.4,1.1l1.4-0.4
			l0.7,0.9l0.2,0.4h1.3l0.7,0.5c0,0,3.9-3.8,8.4-5s8.9,0.7,8.9,0.7s2.7,1.3,2.9,3.8c0.2,2.5,0.4,3.8-0.4,4.5
			c-0.7,0.7-4.1,1.3-4.1,1.3l-0.2,1.3c0,0,2.9,1.3,7.1,0.9c4.3-0.4,4.5-0.4,4.5-0.4l4.6-2.7c0,0,5.9-3.6,8-3.8c2.1-0.2,2.7,0,2.7,0
			s2.3,2.7,2.1,4.3c-0.2,1.6-2.7,4.1-3.2,5.5c-0.5,1.4,0.4,3,0.4,3s2.1,3,2.1,4.6s-0.5,3.6-1.4,4.1c-0.9,0.5-3,0.7-3.8,0.5
			c-0.7-0.2-10.4-5.4-10.4-5.4s-5.4-1.3-8.9-0.9c-3.6,0.4-3.4,1.1-3.4,1.1l3.9,1.3c0,0,1.3,0.5,1.3,1.3c0,0.7-0.4,4.3-1.4,5.5
			c-1.1,1.3-2.7,2.7-4.8,2.7s-5.5-1.6-5.5-1.6l-6.3-2.5l-0.7-1.3c0,0-1.1,0.7-5.7,1.3c-4.6,0.5-14.1-0.4-14.1-0.4s3.4,0.9,3.9,1.6
			c0.5,0.7,0.5,2.3,0.5,2.3s0.2,1.3,0.5,2c0.4,0.7,0.4,2.5-0.5,2.3c-0.9-0.2-4.8-2.3-6.1-3.9s-2.5-3.4-2.5-3.4s-8,0.4-9.1-0.2
			c-1.1-0.5-6.6-2.1-6.6-2.1s-2.7-0.2-4.3-0.5c-1.6-0.4-4.6-2.1-4.6-2.1l-3-2.7c0,0-0.9-0.2-1.1-0.9S307.6,482.7,307.6,482.7z"/>
	</g>
	<g id="bass-41" transform="scale(0.931896264253354)">
		<path id="bass_40_" class="st0" d="M513.8,251.8l2.1-2l3.6-2.9l4.5-1.8l8.9-5c0,0,7.1-2.3,10.7-2.5c3.6-0.2,0.9-2.3,0.9-2.3
			l1.3,0.2l0.2-1.8l1.3,1.3l2-2.3l0.4,1.6l2.1-2.9l0.7-0.5h0.7l-0.7,2.1l2.5-1.3l0.7,0.9l-0.7,1.4l2.1-0.4l-0.2,1.4h1.3l0.4,1.1
			l1.4-0.4l0.7,0.9l0.2,0.4h1.3l0.7,0.5c0,0,3.9-3.8,8.4-5s8.9,0.7,8.9,0.7s2.7,1.3,2.9,3.8c0.2,2.5,0.4,3.8-0.4,4.5
			c-0.7,0.7-4.1,1.3-4.1,1.3l-0.2,1.3c0,0,2.9,1.3,7.1,0.9c4.3-0.4,4.5-0.4,4.5-0.4l4.6-2.7c0,0,5.9-3.6,8-3.8c2.1-0.2,2.7,0,2.7,0
			s2.3,2.7,2.1,4.3c-0.2,1.6-2.7,4.1-3.2,5.5s0.4,3,0.4,3s2.1,3,2.1,4.6c0,1.6-0.5,3.6-1.4,4.1c-0.9,0.5-3,0.7-3.8,0.5
			s-10.4-5.4-10.4-5.4s-5.4-1.3-8.9-0.9c-3.6,0.4-3.4,1.1-3.4,1.1l3.9,1.3c0,0,1.3,0.5,1.3,1.3s-0.4,4.3-1.4,5.5
			c-1.1,1.3-2.7,2.7-4.8,2.7s-5.5-1.6-5.5-1.6l-6.3-2.5l-0.7-1.3c0,0-1.1,0.7-5.7,1.3s-14.1-0.4-14.1-0.4s3.4,0.9,3.9,1.6
			c0.5,0.7,0.5,2.3,0.5,2.3s0.2,1.3,0.5,2c0.4,0.7,0.4,2.5-0.5,2.3c-0.9-0.2-4.8-2.3-6.1-3.9c-1.3-1.6-2.5-3.4-2.5-3.4
			s-8,0.4-9.1-0.2c-1.1-0.5-6.6-2.1-6.6-2.1s-2.7-0.2-4.3-0.5c-1.6-0.4-4.6-2.1-4.6-2.1l-3-2.7c0,0-0.9-0.2-1.1-0.9
			C512.4,253.1,513.8,251.8,513.8,251.8z"/>
	</g>
	<g id="bass-42" transform="scale(0.900730634199293)">
		<path id="bass_41_" class="st0" d="M278.7,468.9l2.1-1.9l3.5-2.8l4.3-1.7l8.6-4.8c0,0,6.9-2.2,10.4-2.4c3.5-0.2,0.9-2.2,0.9-2.2
			l1.2,0.2l0.2-1.7l1.2,1.2l1.9-2.2l0.3,1.6l2.1-2.8l0.7-0.5h0.7l-0.7,2.1l2.4-1.2l0.7,0.9l-0.7,1.4l2.1-0.3l-0.2,1.4h1.2l0.3,1
			l1.4-0.3l0.7,0.9l0.2,0.3h1.2l0.7,0.5c0,0,3.8-3.6,8.1-4.8c4.3-1.2,8.6,0.7,8.6,0.7s2.6,1.2,2.8,3.6s0.3,3.6-0.3,4.3s-4,1.2-4,1.2
			l-0.2,1.2c0,0,2.8,1.2,6.9,0.9s4.3-0.3,4.3-0.3l4.5-2.6c0,0,5.7-3.5,7.8-3.6c2.1-0.2,2.6,0,2.6,0s2.2,2.6,2.1,4.1s-2.6,4-3.1,5.4
			c-0.5,1.4,0.3,2.9,0.3,2.9s2.1,2.9,2.1,4.5s-0.5,3.5-1.4,4c-0.9,0.5-2.9,0.7-3.6,0.5s-10-5.2-10-5.2s-5.2-1.2-8.6-0.9
			c-3.5,0.3-3.3,1-3.3,1l3.8,1.2c0,0,1.2,0.5,1.2,1.2s-0.3,4.1-1.4,5.4c-1,1.2-2.6,2.6-4.7,2.6c-2.1,0-5.4-1.6-5.4-1.6l-6-2.4
			l-0.7-1.2c0,0-1,0.7-5.5,1.2c-4.5,0.5-13.6-0.3-13.6-0.3s3.3,0.9,3.8,1.6c0.5,0.7,0.5,2.2,0.5,2.2s0.2,1.2,0.5,1.9
			c0.3,0.7,0.3,2.4-0.5,2.2c-0.9-0.2-4.7-2.2-5.9-3.8c-1.2-1.6-2.4-3.3-2.4-3.3s-7.8,0.3-8.8-0.2c-1-0.5-6.4-2.1-6.4-2.1
			s-2.6-0.2-4.1-0.5c-1.6-0.3-4.5-2.1-4.5-2.1l-2.9-2.6c0,0-0.9-0.2-1-0.9S278.7,468.9,278.7,468.9z"/>
	</g>
	<g id="bass-43" transform="scale(1.42291863933809)">
		<path id="bass_42_" class="st0" d="M398.9,318.4l3.3-3l5.5-4.4l6.8-2.7l13.6-7.6c0,0,10.9-3.5,16.4-3.8c5.5-0.3,1.4-3.5,1.4-3.5
			l1.9,0.3l0.3-2.7l1.9,1.9l3-3.5l0.5,2.5l3.3-4.4l1.1-0.8h1.1l-1.1,3.3l3.8-1.9l1.1,1.4l-1.1,2.2l3.3-0.5l-0.3,2.2h1.9l0.5,1.6
			l2.2-0.5l1.1,1.4l0.3,0.5h1.9l1.1,0.8c0,0,6-5.7,12.8-7.6c6.8-1.9,13.6,1.1,13.6,1.1s4.1,1.9,4.4,5.7c0.3,3.8,0.5,5.7-0.5,6.8
			c-1.1,1.1-6.3,1.9-6.3,1.9l-0.3,1.9c0,0,4.4,1.9,10.9,1.4c6.5-0.5,6.8-0.5,6.8-0.5l7.1-4.1c0,0,9-5.5,12.3-5.7s4.1,0,4.1,0
			s3.5,4.1,3.3,6.5s-4.1,6.3-4.9,8.5c-0.8,2.2,0.5,4.6,0.5,4.6s3.3,4.6,3.3,7.1s-0.8,5.5-2.2,6.3s-4.6,1.1-5.7,0.8
			c-1.1-0.3-15.8-8.2-15.8-8.2s-8.2-1.9-13.6-1.4c-5.5,0.5-5.2,1.6-5.2,1.6l6,1.9c0,0,1.9,0.8,1.9,1.9c0,1.1-0.5,6.5-2.2,8.5
			c-1.6,1.9-4.1,4.1-7.4,4.1s-8.5-2.5-8.5-2.5l-9.6-3.8l-1.1-1.9c0,0-1.6,1.1-8.7,1.9c-7.1,0.8-21.6-0.5-21.6-0.5s5.2,1.4,6,2.5
			s0.8,3.5,0.8,3.5s0.3,1.9,0.8,3c0.5,1.1,0.5,3.8-0.8,3.5s-7.4-3.5-9.3-6c-1.9-2.5-3.8-5.2-3.8-5.2s-12.3,0.5-13.9-0.3
			s-10.1-3.3-10.1-3.3s-4.1-0.3-6.5-0.8c-2.5-0.5-7.1-3.3-7.1-3.3l-4.6-4.1c0,0-1.4-0.3-1.6-1.4
			C396.7,320.3,398.9,318.4,398.9,318.4z"/>
	</g>
	<g id="bass-44" transform="scale(1.07495894879546)">
		<path id="bass_43_" class="st0" d="M637.5,389.3l2.5-2.3l4.1-3.3l5.2-2.1l10.3-5.8c0,0,8.2-2.7,12.4-2.9s1-2.7,1-2.7l1.4,0.2
			l0.2-2.1l1.4,1.4l2.3-2.7l0.4,1.9l2.5-3.3l0.8-0.6h0.8l-0.8,2.5l2.9-1.4l0.8,1l-0.8,1.6l2.5-0.4l-0.2,1.6h1.4l0.4,1.2l1.6-0.4
			l0.8,1l0.2,0.4h1.4l0.8,0.6c0,0,4.5-4.3,9.7-5.8c5.2-1.4,10.3,0.8,10.3,0.8s3.1,1.4,3.3,4.3c0.2,2.9,0.4,4.3-0.4,5.2
			c-0.8,0.8-4.7,1.4-4.7,1.4l-0.2,1.4c0,0,3.3,1.4,8.2,1c4.9-0.4,5.2-0.4,5.2-0.4l5.4-3.1c0,0,6.8-4.1,9.3-4.3c2.5-0.2,3.1,0,3.1,0
			s2.7,3.1,2.5,4.9c-0.2,1.9-3.1,4.7-3.7,6.4c-0.6,1.6,0.4,3.5,0.4,3.5s2.5,3.5,2.5,5.4c0,1.9-0.6,4.1-1.6,4.7s-3.5,0.8-4.3,0.6
			s-12-6.2-12-6.2s-6.2-1.4-10.3-1c-4.1,0.4-3.9,1.2-3.9,1.2l4.5,1.4c0,0,1.4,0.6,1.4,1.4c0,0.8-0.4,4.9-1.6,6.4
			c-1.2,1.4-3.1,3.1-5.6,3.1c-2.5,0-6.4-1.9-6.4-1.9l-7.2-2.9l-0.8-1.4c0,0-1.2,0.8-6.6,1.4c-5.4,0.6-16.3-0.4-16.3-0.4
			s3.9,1,4.5,1.9c0.6,0.8,0.6,2.7,0.6,2.7s0.2,1.4,0.6,2.3s0.4,2.9-0.6,2.7c-1-0.2-5.6-2.7-7-4.5c-1.4-1.9-2.9-3.9-2.9-3.9
			s-9.3,0.4-10.5-0.2s-7.6-2.5-7.6-2.5s-3.1-0.2-4.9-0.6s-5.4-2.5-5.4-2.5l-3.5-3.1c0,0-1-0.2-1.2-1
			C635.8,390.8,637.5,389.3,637.5,389.3z"/>
	</g>
	<g id="bass-45" transform="scale(1.05129962124864)">
		<path id="bass_44_" class="st0" d="M436.7,55.5l2.4-2.2l4-3.2l5-2l10.1-5.6c0,0,8.1-2.6,12.1-2.8c4-0.2,1-2.6,1-2.6l1.4,0.2l0.2-2
			l1.4,1.4l2.2-2.6l0.4,1.8l2.4-3.2l0.8-0.6h0.8l-0.8,2.4l2.8-1.4l0.8,1l-0.8,1.6l2.4-0.4l-0.2,1.6h1.4l0.4,1.2l1.6-0.4l0.8,1
			l0.2,0.4h1.4l0.8,0.6c0,0,4.4-4.2,9.5-5.6s10.1,0.8,10.1,0.8s3,1.4,3.2,4.2c0.2,2.8,0.4,4.2-0.4,5s-4.6,1.4-4.6,1.4l-0.2,1.4
			c0,0,3.2,1.4,8.1,1c4.8-0.4,5-0.4,5-0.4l5.2-3c0,0,6.7-4,9.1-4.2c2.4-0.2,3,0,3,0s2.6,3,2.4,4.8s-3,4.6-3.6,6.2
			c-0.6,1.6,0.4,3.4,0.4,3.4s2.4,3.4,2.4,5.2s-0.6,4-1.6,4.6s-3.4,0.8-4.2,0.6c-0.8-0.2-11.7-6-11.7-6s-6-1.4-10.1-1
			c-4,0.4-3.8,1.2-3.8,1.2l4.4,1.4c0,0,1.4,0.6,1.4,1.4c0,0.8-0.4,4.8-1.6,6.2c-1.2,1.4-3,3-5.4,3s-6.2-1.8-6.2-1.8l-7.1-2.8
			l-0.8-1.4c0,0-1.2,0.8-6.5,1.4c-5.2,0.6-15.9-0.4-15.9-0.4s3.8,1,4.4,1.8c0.6,0.8,0.6,2.6,0.6,2.6s0.2,1.4,0.6,2.2
			c0.4,0.8,0.4,2.8-0.6,2.6c-1-0.2-5.4-2.6-6.9-4.4s-2.8-3.8-2.8-3.8s-9.1,0.4-10.3-0.2c-1.2-0.6-7.5-2.4-7.5-2.4s-3-0.2-4.8-0.6
			c-1.8-0.4-5.2-2.4-5.2-2.4l-3.4-3c0,0-1-0.2-1.2-1C435.1,56.9,436.7,55.5,436.7,55.5z"/>
	</g>
	<g id="bass-46" transform="scale(0.836385786516953)">
		<path id="bass_45_" class="st0" d="M311.7,283.3l1.9-1.8l3.2-2.6l4-1.6l8-4.5c0,0,6.4-2.1,9.6-2.2c3.2-0.2,0.8-2.1,0.8-2.1
			l1.1,0.2l0.2-1.6l1.1,1.1l1.8-2.1l0.3,1.4l1.9-2.6l0.6-0.5h0.6l-0.6,1.9l2.2-1.1l0.6,0.8l-0.6,1.3l1.9-0.3l-0.2,1.3h1.1l0.3,1
			l1.3-0.3l0.6,0.8l0.2,0.3h1.1l0.6,0.5c0,0,3.5-3.4,7.5-4.5c4-1.1,8,0.6,8,0.6s2.4,1.1,2.6,3.4c0.2,2.2,0.3,3.4-0.3,4
			c-0.6,0.6-3.7,1.1-3.7,1.1l-0.2,1.1c0,0,2.6,1.1,6.4,0.8c3.8-0.3,4-0.3,4-0.3l4.2-2.4c0,0,5.3-3.2,7.2-3.4c1.9-0.2,2.4,0,2.4,0
			s2.1,2.4,1.9,3.8s-2.4,3.7-2.9,5c-0.5,1.3,0.3,2.7,0.3,2.7s1.9,2.7,1.9,4.2c0,1.4-0.5,3.2-1.3,3.7c-0.8,0.5-2.7,0.6-3.4,0.5
			c-0.6-0.2-9.3-4.8-9.3-4.8s-4.8-1.1-8-0.8c-3.2,0.3-3,1-3,1l3.5,1.1c0,0,1.1,0.5,1.1,1.1c0,0.6-0.3,3.8-1.3,5
			c-1,1.1-2.4,2.4-4.3,2.4c-1.9,0-5-1.4-5-1.4l-5.6-2.2l-0.6-1.1c0,0-1,0.6-5.1,1.1c-4.2,0.5-12.7-0.3-12.7-0.3s3,0.8,3.5,1.4
			c0.5,0.6,0.5,2.1,0.5,2.1s0.2,1.1,0.5,1.8c0.3,0.6,0.3,2.2-0.5,2.1c-0.8-0.2-4.3-2.1-5.5-3.5s-2.2-3-2.2-3s-7.2,0.3-8.2-0.2
			c-1-0.5-5.9-1.9-5.9-1.9s-2.4-0.2-3.8-0.5c-1.4-0.3-4.2-1.9-4.2-1.9l-2.7-2.4c0,0-0.8-0.2-1-0.8
			C310.4,284.5,311.7,283.3,311.7,283.3z"/>
	</g>
	<g id="bass-47" transform="scale(0.706118557780579)">
		<path id="bass_46_" class="st0" d="M357.9,440.1l1.6-1.5l2.7-2.2l3.4-1.4l6.8-3.8c0,0,5.4-1.8,8.1-1.9c2.7-0.1,0.7-1.8,0.7-1.8
			l0.9,0.1l0.1-1.4l0.9,0.9l1.5-1.8l0.3,1.2l1.6-2.2l0.5-0.4h0.5l-0.5,1.6l1.9-0.9l0.5,0.7l-0.5,1.1l1.6-0.3l-0.1,1.1h0.9l0.3,0.8
			l1.1-0.3l0.5,0.7l0.1,0.3h0.9l0.5,0.4c0,0,3-2.8,6.4-3.8c3.4-0.9,6.8,0.5,6.8,0.5s2,0.9,2.2,2.8c0.1,1.9,0.3,2.8-0.3,3.4
			s-3.1,0.9-3.1,0.9l-0.1,0.9c0,0,2.2,0.9,5.4,0.7c3.2-0.3,3.4-0.3,3.4-0.3l3.5-2c0,0,4.5-2.7,6.1-2.8c1.6-0.1,2,0,2,0
			s1.8,2,1.6,3.2c-0.1,1.2-2,3.1-2.4,4.2c-0.4,1.1,0.3,2.3,0.3,2.3s1.6,2.3,1.6,3.5c0,1.2-0.4,2.7-1.1,3.1c-0.7,0.4-2.3,0.5-2.8,0.4
			s-7.9-4.1-7.9-4.1s-4.1-0.9-6.8-0.7c-2.7,0.3-2.6,0.8-2.6,0.8l3,0.9c0,0,0.9,0.4,0.9,0.9s-0.3,3.2-1.1,4.2c-0.8,0.9-2,2-3.7,2
			c-1.6,0-4.2-1.2-4.2-1.2l-4.7-1.9l-0.5-0.9c0,0-0.8,0.5-4.3,0.9c-3.5,0.4-10.7-0.3-10.7-0.3s2.6,0.7,3,1.2
			c0.4,0.5,0.4,1.8,0.4,1.8s0.1,0.9,0.4,1.5s0.3,1.9-0.4,1.8c-0.7-0.1-3.7-1.8-4.6-3c-0.9-1.2-1.9-2.6-1.9-2.6s-6.1,0.3-6.9-0.1
			c-0.8-0.4-5-1.6-5-1.6s-2-0.1-3.2-0.4c-1.2-0.3-3.5-1.6-3.5-1.6l-2.3-2c0,0-0.7-0.1-0.8-0.7C356.8,441,357.9,440.1,357.9,440.1z"
			/>
	</g>
	<g id="bass-48" transform="scale(1.36647528319679)">
		<path id="bass_47_" class="st0" d="M420.2,210.9l3.1-2.9l5.2-4.2l6.6-2.6l13.1-7.3c0,0,10.5-3.4,15.7-3.7c5.2-0.3,1.3-3.4,1.3-3.4
			l1.8,0.3l0.3-2.6l1.8,1.8l2.9-3.4l0.5,2.4l3.1-4.2l1-0.8h1l-1,3.1l3.7-1.8l1,1.3l-1,2.1l3.1-0.5l-0.3,2.1h1.8l0.5,1.6l2.1-0.5
			l1,1.3l0.3,0.5h1.8l1,0.8c0,0,5.8-5.5,12.3-7.3c6.6-1.8,13.1,1,13.1,1s3.9,1.8,4.2,5.5c0.3,3.7,0.5,5.5-0.5,6.6s-6,1.8-6,1.8
			l-0.3,1.8c0,0,4.2,1.8,10.5,1.3c6.3-0.5,6.6-0.5,6.6-0.5l6.8-3.9c0,0,8.6-5.2,11.8-5.5c3.1-0.3,3.9,0,3.9,0s3.4,3.9,3.1,6.3
			c-0.3,2.4-3.9,6-4.7,8.1c-0.8,2.1,0.5,4.5,0.5,4.5s3.1,4.5,3.1,6.8c0,2.4-0.8,5.2-2.1,6c-1.3,0.8-4.5,1-5.5,0.8
			c-1-0.3-15.2-7.9-15.2-7.9s-7.9-1.8-13.1-1.3s-5,1.6-5,1.6l5.8,1.8c0,0,1.8,0.8,1.8,1.8c0,1-0.5,6.3-2.1,8.1
			c-1.6,1.8-3.9,3.9-7.1,3.9s-8.1-2.4-8.1-2.4l-9.2-3.7l-1-1.8c0,0-1.6,1-8.4,1.8s-20.7-0.5-20.7-0.5s5,1.3,5.8,2.4
			c0.8,1,0.8,3.4,0.8,3.4s0.3,1.8,0.8,2.9c0.5,1,0.5,3.7-0.8,3.4s-7.1-3.4-8.9-5.8c-1.8-2.4-3.7-5-3.7-5s-11.8,0.5-13.4-0.3
			c-1.6-0.8-9.7-3.1-9.7-3.1s-3.9-0.3-6.3-0.8s-6.8-3.1-6.8-3.1l-4.5-3.9c0,0-1.3-0.3-1.6-1.3S420.2,210.9,420.2,210.9z"/>
	</g>
	<g id="bass-49" transform="scale(0.994921336544089)">
		<path id="bass_48_" class="st0" d="M539.5,284.7l2.3-2.1l3.8-3.1l4.8-1.9l9.5-5.3c0,0,7.6-2.5,11.4-2.7c3.8-0.2,1-2.5,1-2.5
			l1.3,0.2l0.2-1.9l1.3,1.3l2.1-2.5l0.4,1.7l2.3-3.1l0.8-0.6h0.8l-0.8,2.3l2.7-1.3l0.8,1l-0.8,1.5l2.3-0.4l-0.2,1.5h1.3l0.4,1.1
			l1.5-0.4l0.8,1l0.2,0.4h1.3l0.8,0.6c0,0,4.2-4,9-5.3s9.5,0.8,9.5,0.8s2.9,1.3,3.1,4c0.2,2.7,0.4,4-0.4,4.8
			c-0.8,0.8-4.4,1.3-4.4,1.3l-0.2,1.3c0,0,3.1,1.3,7.6,1c4.6-0.4,4.8-0.4,4.8-0.4l5-2.9c0,0,6.3-3.8,8.6-4c2.3-0.2,2.9,0,2.9,0
			s2.5,2.9,2.3,4.6s-2.9,4.4-3.4,5.9s0.4,3.2,0.4,3.2s2.3,3.2,2.3,5s-0.6,3.8-1.5,4.4c-1,0.6-3.2,0.8-4,0.6
			c-0.8-0.2-11.1-5.7-11.1-5.7s-5.7-1.3-9.5-1s-3.6,1.1-3.6,1.1l4.2,1.3c0,0,1.3,0.6,1.3,1.3c0,0.8-0.4,4.6-1.5,5.9
			c-1.1,1.3-2.9,2.9-5.2,2.9s-5.9-1.7-5.9-1.7l-6.7-2.7l-0.8-1.3c0,0-1.1,0.8-6.1,1.3c-5,0.6-15.1-0.4-15.1-0.4s3.6,1,4.2,1.7
			c0.6,0.8,0.6,2.5,0.6,2.5s0.2,1.3,0.6,2.1c0.4,0.8,0.4,2.7-0.6,2.5c-1-0.2-5.2-2.5-6.5-4.2c-1.3-1.7-2.7-3.6-2.7-3.6
			s-8.6,0.4-9.7-0.2s-7.1-2.3-7.1-2.3s-2.9-0.2-4.6-0.6c-1.7-0.4-5-2.3-5-2.3l-3.2-2.9c0,0-1-0.2-1.1-1
			C538,286,539.5,284.7,539.5,284.7z"/>
	</g>
	<g id="bass-50" transform="scale(0.970701746497911)">
		<path id="bass_49_" class="st0" d="M245.9,184.7l2.2-2l3.7-3l4.7-1.9l9.3-5.2c0,0,7.4-2.4,11.2-2.6s0.9-2.4,0.9-2.4l1.3,0.2
			l0.2-1.9l1.3,1.3l2-2.4l0.4,1.7l2.2-3l0.7-0.6h0.7l-0.7,2.2l2.6-1.3l0.7,0.9l-0.7,1.5l2.2-0.4l-0.2,1.5h1.3l0.4,1.1l1.5-0.4
			l0.7,0.9l0.2,0.4h1.3l0.7,0.6c0,0,4.1-3.9,8.7-5.2s9.3,0.7,9.3,0.7s2.8,1.3,3,3.9c0.2,2.6,0.4,3.9-0.4,4.7
			c-0.7,0.7-4.3,1.3-4.3,1.3l-0.2,1.3c0,0,3,1.3,7.4,0.9c4.5-0.4,4.7-0.4,4.7-0.4l4.8-2.8c0,0,6.1-3.7,8.4-3.9c2.2-0.2,2.8,0,2.8,0
			s2.4,2.8,2.2,4.5c-0.2,1.7-2.8,4.3-3.4,5.8c-0.6,1.5,0.4,3.2,0.4,3.2s2.2,3.2,2.2,4.8c0,1.7-0.6,3.7-1.5,4.3
			c-0.9,0.6-3.2,0.7-3.9,0.6s-10.8-5.6-10.8-5.6s-5.6-1.3-9.3-0.9c-3.7,0.4-3.5,1.1-3.5,1.1l4.1,1.3c0,0,1.3,0.6,1.3,1.3
			c0,0.7-0.4,4.5-1.5,5.8c-1.1,1.3-2.8,2.8-5,2.8s-5.8-1.7-5.8-1.7l-6.5-2.6l-0.7-1.3c0,0-1.1,0.7-6,1.3c-4.8,0.6-14.7-0.4-14.7-0.4
			s3.5,0.9,4.1,1.7c0.6,0.7,0.6,2.4,0.6,2.4s0.2,1.3,0.6,2s0.4,2.6-0.6,2.4c-0.9-0.2-5-2.4-6.3-4.1c-1.3-1.7-2.6-3.5-2.6-3.5
			s-8.4,0.4-9.5-0.2c-1.1-0.6-6.9-2.2-6.9-2.2s-2.8-0.2-4.5-0.6c-1.7-0.4-4.8-2.2-4.8-2.2l-3.2-2.8c0,0-0.9-0.2-1.1-0.9
			C244.4,186,245.9,184.7,245.9,184.7z"/>
	</g>
	<g id="bass-51" transform="scale(1.03103643689762)">
		<path id="bass_50_" class="st0" d="M676.1,51.4l2.4-2.2l4-3.2l4.9-2l9.9-5.5c0,0,7.9-2.6,11.9-2.8c4-0.2,1-2.6,1-2.6l1.4,0.2
			l0.2-2l1.4,1.4l2.2-2.6l0.4,1.8l2.4-3.2l0.8-0.6h0.8l-0.8,2.4l2.8-1.4l0.8,1l-0.8,1.6l2.4-0.4l-0.2,1.6h1.4l0.4,1.2l1.6-0.4l0.8,1
			l0.2,0.4h1.4l0.8,0.6c0,0,4.3-4.2,9.3-5.5c4.9-1.4,9.9,0.8,9.9,0.8s3,1.4,3.2,4.2c0.2,2.8,0.4,4.2-0.4,4.9
			c-0.8,0.8-4.5,1.4-4.5,1.4l-0.2,1.4c0,0,3.2,1.4,7.9,1s4.9-0.4,4.9-0.4l5.1-3c0,0,6.5-4,8.9-4.2c2.4-0.2,3,0,3,0s2.6,3,2.4,4.7
			c-0.2,1.8-3,4.5-3.6,6.1c-0.6,1.6,0.4,3.4,0.4,3.4s2.4,3.4,2.4,5.1s-0.6,4-1.6,4.5c-1,0.6-3.4,0.8-4.2,0.6
			c-0.8-0.2-11.5-5.9-11.5-5.9s-5.9-1.4-9.9-1c-4,0.4-3.8,1.2-3.8,1.2l4.3,1.4c0,0,1.4,0.6,1.4,1.4c0,0.8-0.4,4.7-1.6,6.1
			c-1.2,1.4-3,3-5.3,3s-6.1-1.8-6.1-1.8l-6.9-2.8l-0.8-1.4c0,0-1.2,0.8-6.3,1.4c-5.1,0.6-15.6-0.4-15.6-0.4s3.8,1,4.3,1.8
			c0.6,0.8,0.6,2.6,0.6,2.6s0.2,1.4,0.6,2.2s0.4,2.8-0.6,2.6c-1-0.2-5.3-2.6-6.7-4.3c-1.4-1.8-2.8-3.8-2.8-3.8s-8.9,0.4-10.1-0.2
			c-1.2-0.6-7.3-2.4-7.3-2.4s-3-0.2-4.7-0.6c-1.8-0.4-5.1-2.4-5.1-2.4l-3.4-3c0,0-1-0.2-1.2-1C674.5,52.8,676.1,51.4,676.1,51.4z"/>
	</g>
	<g id="bass-52" transform="scale(0.93859499244356)">
		<path id="bass_51_" class="st0" d="M441.7,293.7l2.2-2l3.6-2.9l4.5-1.8l9-5c0,0,7.2-2.3,10.8-2.5c3.6-0.2,0.9-2.3,0.9-2.3l1.3,0.2
			l0.2-1.8l1.3,1.3l2-2.3l0.4,1.6l2.2-2.9l0.7-0.5h0.7l-0.7,2.2l2.5-1.3l0.7,0.9l-0.7,1.4l2.2-0.4l-0.2,1.4h1.3l0.4,1.1l1.4-0.4
			l0.7,0.9l0.2,0.4h1.3l0.7,0.5c0,0,4-3.8,8.5-5c4.5-1.3,9,0.7,9,0.7s2.7,1.3,2.9,3.8s0.4,3.8-0.4,4.5c-0.7,0.7-4.1,1.3-4.1,1.3
			l-0.2,1.3c0,0,2.9,1.3,7.2,0.9s4.5-0.4,4.5-0.4l4.7-2.7c0,0,5.9-3.6,8.1-3.8s2.7,0,2.7,0s2.3,2.7,2.2,4.3
			c-0.2,1.6-2.7,4.1-3.2,5.6c-0.5,1.4,0.4,3.1,0.4,3.1s2.2,3.1,2.2,4.7c0,1.6-0.5,3.6-1.4,4.1c-0.9,0.5-3.1,0.7-3.8,0.5
			c-0.7-0.2-10.4-5.4-10.4-5.4s-5.4-1.3-9-0.9c-3.6,0.4-3.4,1.1-3.4,1.1l4,1.3c0,0,1.3,0.5,1.3,1.3c0,0.7-0.4,4.3-1.4,5.6
			c-1.1,1.3-2.7,2.7-4.9,2.7s-5.6-1.6-5.6-1.6l-6.3-2.5l-0.7-1.3c0,0-1.1,0.7-5.8,1.3c-4.7,0.5-14.2-0.4-14.2-0.4s3.4,0.9,4,1.6
			c0.5,0.7,0.5,2.3,0.5,2.3s0.2,1.3,0.5,2c0.4,0.7,0.4,2.5-0.5,2.3c-0.9-0.2-4.9-2.3-6.1-4c-1.3-1.6-2.5-3.4-2.5-3.4
			s-8.1,0.4-9.2-0.2c-1.1-0.5-6.7-2.2-6.7-2.2s-2.7-0.2-4.3-0.5c-1.6-0.4-4.7-2.2-4.7-2.2l-3.1-2.7c0,0-0.9-0.2-1.1-0.9
			C440.3,295,441.7,293.7,441.7,293.7z"/>
	</g>
	<g id="bass-53" transform="scale(0.961771060575972)">
		<path id="bass_52_" class="st0" d="M214.7,461.8l2.2-2l3.7-3l4.6-1.8l9.2-5.2c0,0,7.4-2.4,11.1-2.6c3.7-0.2,0.9-2.4,0.9-2.4
			l1.3,0.2l0.2-1.8l1.3,1.3l2-2.4l0.4,1.7l2.2-3l0.7-0.6h0.7l-0.7,2.2l2.6-1.3l0.7,0.9l-0.7,1.5l2.2-0.4l-0.2,1.5h1.3l0.4,1.1
			l1.5-0.4l0.7,0.9l0.2,0.4h1.3l0.7,0.6c0,0,4.1-3.9,8.7-5.2c4.6-1.3,9.2,0.7,9.2,0.7s2.8,1.3,3,3.9c0.2,2.6,0.4,3.9-0.4,4.6
			s-4.2,1.3-4.2,1.3l-0.2,1.3c0,0,3,1.3,7.4,0.9s4.6-0.4,4.6-0.4l4.8-2.8c0,0,6.1-3.7,8.3-3.9c2.2-0.2,2.8,0,2.8,0s2.4,2.8,2.2,4.4
			s-2.8,4.2-3.3,5.7c-0.6,1.5,0.4,3.1,0.4,3.1s2.2,3.1,2.2,4.8c0,1.7-0.6,3.7-1.5,4.2c-0.9,0.6-3.1,0.7-3.9,0.6s-10.7-5.5-10.7-5.5
			s-5.5-1.3-9.2-0.9c-3.7,0.4-3.5,1.1-3.5,1.1l4.1,1.3c0,0,1.3,0.6,1.3,1.3c0,0.7-0.4,4.4-1.5,5.7c-1.1,1.3-2.8,2.8-5,2.8
			c-2.2,0-5.7-1.7-5.7-1.7l-6.5-2.6l-0.7-1.3c0,0-1.1,0.7-5.9,1.3c-4.8,0.6-14.6-0.4-14.6-0.4s3.5,0.9,4.1,1.7s0.6,2.4,0.6,2.4
			s0.2,1.3,0.6,2c0.4,0.7,0.4,2.6-0.6,2.4c-0.9-0.2-5-2.4-6.3-4.1s-2.6-3.5-2.6-3.5s-8.3,0.4-9.4-0.2c-1.1-0.6-6.8-2.2-6.8-2.2
			s-2.8-0.2-4.4-0.6c-1.7-0.4-4.8-2.2-4.8-2.2l-3.1-2.8c0,0-0.9-0.2-1.1-0.9C213.2,463.1,214.7,461.8,214.7,461.8z"/>
	</g>
	<g id="bass-54" transform="scale(0.943960448549098)">
		<path id="bass_53_" class="st0" d="M553.9,451.4l2.2-2l3.6-2.9l4.5-1.8l9.1-5.1c0,0,7.2-2.4,10.9-2.5s0.9-2.4,0.9-2.4l1.3,0.2
			l0.2-1.8l1.3,1.3l2-2.4l0.4,1.6l2.2-2.9l0.7-0.5h0.7l-0.7,2.2l2.5-1.3l0.7,0.9l-0.7,1.4l2.2-0.4l-0.2,1.4h1.3l0.4,1.1l1.4-0.4
			l0.7,0.9l0.2,0.4h1.3l0.7,0.5c0,0,4-3.8,8.5-5.1s9.1,0.7,9.1,0.7s2.7,1.3,2.9,3.8s0.4,3.8-0.4,4.5c-0.7,0.7-4.2,1.3-4.2,1.3
			l-0.2,1.3c0,0,2.9,1.3,7.2,0.9c4.3-0.4,4.5-0.4,4.5-0.4l4.7-2.7c0,0,6-3.6,8.1-3.8c2.2-0.2,2.7,0,2.7,0s2.4,2.7,2.2,4.3
			s-2.7,4.2-3.3,5.6s0.4,3.1,0.4,3.1s2.2,3.1,2.2,4.7c0,1.6-0.5,3.6-1.4,4.2c-0.9,0.5-3.1,0.7-3.8,0.5s-10.5-5.4-10.5-5.4
			s-5.4-1.3-9.1-0.9s-3.4,1.1-3.4,1.1l4,1.3c0,0,1.3,0.5,1.3,1.3c0,0.7-0.4,4.3-1.4,5.6c-1.1,1.3-2.7,2.7-4.9,2.7
			c-2.2,0-5.6-1.6-5.6-1.6l-6.3-2.5l-0.7-1.3c0,0-1.1,0.7-5.8,1.3c-4.7,0.5-14.3-0.4-14.3-0.4s3.4,0.9,4,1.6
			c0.5,0.7,0.5,2.4,0.5,2.4s0.2,1.3,0.5,2c0.4,0.7,0.4,2.5-0.5,2.4c-0.9-0.2-4.9-2.4-6.2-4c-1.3-1.6-2.5-3.4-2.5-3.4
			s-8.1,0.4-9.2-0.2c-1.1-0.5-6.7-2.2-6.7-2.2s-2.7-0.2-4.3-0.5s-4.7-2.2-4.7-2.2l-3.1-2.7c0,0-0.9-0.2-1.1-0.9
			C552.5,452.6,553.9,451.4,553.9,451.4z"/>
	</g>
	<g id="bass-55" transform="scale(0.929944892188625)">
		<path id="bass_54_" class="st0" d="M349.1,79.7l2.1-2l3.6-2.9l4.5-1.8l8.9-5c0,0,7.1-2.3,10.7-2.5s0.9-2.3,0.9-2.3l1.2,0.2
			l0.2-1.8l1.2,1.2l2-2.3l0.4,1.6l2.1-2.9l0.7-0.5h0.7l-0.7,2.1l2.5-1.2l0.7,0.9l-0.7,1.4l2.1-0.4l-0.2,1.4h1.2l0.4,1.1l1.4-0.4
			l0.7,0.9L396,65h1.2l0.7,0.5c0,0,3.9-3.7,8.4-5c4.5-1.2,8.9,0.7,8.9,0.7s2.7,1.2,2.9,3.7c0.2,2.5,0.4,3.7-0.4,4.5
			c-0.7,0.7-4.1,1.2-4.1,1.2l-0.2,1.2c0,0,2.9,1.2,7.1,0.9s4.5-0.4,4.5-0.4l4.6-2.7c0,0,5.9-3.6,8-3.7c2.1-0.2,2.7,0,2.7,0
			s2.3,2.7,2.1,4.3c-0.2,1.6-2.7,4.1-3.2,5.5c-0.5,1.4,0.4,3,0.4,3s2.1,3,2.1,4.6s-0.5,3.6-1.4,4.1c-0.9,0.5-3,0.7-3.7,0.5
			s-10.3-5.4-10.3-5.4s-5.4-1.2-8.9-0.9c-3.6,0.4-3.4,1.1-3.4,1.1l3.9,1.2c0,0,1.2,0.5,1.2,1.2c0,0.7-0.4,4.3-1.4,5.5
			s-2.7,2.7-4.8,2.7c-2.1,0-5.5-1.6-5.5-1.6l-6.2-2.5l-0.7-1.2c0,0-1.1,0.7-5.7,1.2c-4.6,0.5-14.1-0.4-14.1-0.4s3.4,0.9,3.9,1.6
			c0.5,0.7,0.5,2.3,0.5,2.3s0.2,1.2,0.5,2c0.4,0.7,0.4,2.5-0.5,2.3c-0.9-0.2-4.8-2.3-6.1-3.9c-1.2-1.6-2.5-3.4-2.5-3.4
			s-8,0.4-9.1-0.2c-1.1-0.5-6.6-2.1-6.6-2.1s-2.7-0.2-4.3-0.5c-1.6-0.4-4.6-2.1-4.6-2.1l-3-2.7c0,0-0.9-0.2-1.1-0.9
			C347.7,80.9,349.1,79.7,349.1,79.7z"/>
	</g>
	<g id="bass-56" transform="scale(0.850598224573319)">
		<path id="bass_55_" class="st0" d="M334.9,370l2-1.8l3.3-2.6l4.1-1.6l8.2-4.6c0,0,6.5-2.1,9.8-2.3c3.3-0.2,0.8-2.1,0.8-2.1
			l1.1,0.2l0.2-1.6l1.1,1.1l1.8-2.1l0.3,1.5l2-2.6l0.7-0.5h0.7l-0.7,2l2.3-1.1l0.7,0.8l-0.7,1.3l2-0.3l-0.2,1.3h1.1l0.3,1l1.3-0.3
			l0.7,0.8l0.2,0.3h1.1l0.7,0.5c0,0,3.6-3.4,7.7-4.6c4.1-1.1,8.2,0.7,8.2,0.7s2.4,1.1,2.6,3.4c0.2,2.3,0.3,3.4-0.3,4.1
			c-0.7,0.7-3.8,1.1-3.8,1.1l-0.2,1.1c0,0,2.6,1.1,6.5,0.8s4.1-0.3,4.1-0.3l4.2-2.4c0,0,5.4-3.3,7.3-3.4s2.4,0,2.4,0s2.1,2.4,2,3.9
			c-0.2,1.5-2.4,3.8-2.9,5.1c-0.5,1.3,0.3,2.8,0.3,2.8s2,2.8,2,4.2c0,1.5-0.5,3.3-1.3,3.8s-2.8,0.7-3.4,0.5
			c-0.7-0.2-9.5-4.9-9.5-4.9s-4.9-1.1-8.2-0.8c-3.3,0.3-3.1,1-3.1,1l3.6,1.1c0,0,1.1,0.5,1.1,1.1s-0.3,3.9-1.3,5.1
			c-1,1.1-2.4,2.4-4.4,2.4s-5.1-1.5-5.1-1.5l-5.7-2.3l-0.7-1.1c0,0-1,0.7-5.2,1.1c-4.2,0.5-12.9-0.3-12.9-0.3s3.1,0.8,3.6,1.5
			c0.5,0.7,0.5,2.1,0.5,2.1s0.2,1.1,0.5,1.8c0.3,0.7,0.3,2.3-0.5,2.1s-4.4-2.1-5.5-3.6s-2.3-3.1-2.3-3.1s-7.3,0.3-8.3-0.2
			c-1-0.5-6-2-6-2s-2.4-0.2-3.9-0.5c-1.5-0.3-4.2-2-4.2-2l-2.8-2.4c0,0-0.8-0.2-1-0.8C333.6,371.1,334.9,370,334.9,370z"/>
	</g>
	<g id="bass-57" transform="scale(0.957257131454318)">
		<path id="bass_56_" class="st0" d="M725.8,202.7l2.2-2l3.7-2.9l4.6-1.8l9.2-5.1c0,0,7.3-2.4,11-2.6s0.9-2.4,0.9-2.4l1.3,0.2
			l0.2-1.8l1.3,1.3l2-2.4l0.4,1.7l2.2-2.9l0.7-0.6h0.7l-0.7,2.2l2.6-1.3l0.7,0.9l-0.7,1.5l2.2-0.4l-0.2,1.5h1.3l0.4,1.1l1.5-0.4
			l0.7,0.9l0.2,0.4h1.3l0.7,0.6c0,0,4-3.9,8.6-5.1s9.2,0.7,9.2,0.7s2.8,1.3,2.9,3.9c0.2,2.6,0.4,3.9-0.4,4.6
			c-0.7,0.7-4.2,1.3-4.2,1.3l-0.2,1.3c0,0,2.9,1.3,7.3,0.9c4.4-0.4,4.6-0.4,4.6-0.4l4.8-2.8c0,0,6.1-3.7,8.3-3.9
			c2.2-0.2,2.8,0,2.8,0s2.4,2.8,2.2,4.4c-0.2,1.7-2.8,4.2-3.3,5.7s0.4,3.1,0.4,3.1s2.2,3.1,2.2,4.8c0,1.7-0.6,3.7-1.5,4.2
			c-0.9,0.6-3.1,0.7-3.9,0.6c-0.7-0.2-10.6-5.5-10.6-5.5s-5.5-1.3-9.2-0.9c-3.7,0.4-3.5,1.1-3.5,1.1l4,1.3c0,0,1.3,0.6,1.3,1.3
			c0,0.7-0.4,4.4-1.5,5.7c-1.1,1.3-2.8,2.8-5,2.8c-2.2,0-5.7-1.7-5.7-1.7l-6.4-2.6l-0.7-1.3c0,0-1.1,0.7-5.9,1.3
			c-4.8,0.6-14.5-0.4-14.5-0.4s3.5,0.9,4,1.7c0.6,0.7,0.6,2.4,0.6,2.4s0.2,1.3,0.6,2c0.4,0.7,0.4,2.6-0.6,2.4c-0.9-0.2-5-2.4-6.2-4
			c-1.3-1.7-2.6-3.5-2.6-3.5s-8.3,0.4-9.4-0.2c-1.1-0.6-6.8-2.2-6.8-2.2s-2.8-0.2-4.4-0.6c-1.7-0.4-4.8-2.2-4.8-2.2l-3.1-2.8
			c0,0-0.9-0.2-1.1-0.9C724.3,204,725.8,202.7,725.8,202.7z"/>
	</g>
	<g id="bass-58" transform="scale(1.04800462994649)">
		<path id="bass_57_" class="st0" d="M511.7,271.9l2.4-2.2l4-3.2l5-2l10-5.6c0,0,8-2.6,12.1-2.8c4-0.2,1-2.6,1-2.6l1.4,0.2l0.2-2
			l1.4,1.4l2.2-2.6l0.4,1.8l2.4-3.2l0.8-0.6h0.8l-0.8,2.4l2.8-1.4l0.8,1l-0.8,1.6l2.4-0.4l-0.2,1.6h1.4l0.4,1.2l1.6-0.4l0.8,1
			l0.2,0.4h1.4l0.8,0.6c0,0,4.4-4.2,9.4-5.6c5-1.4,10,0.8,10,0.8s3,1.4,3.2,4.2c0.2,2.8,0.4,4.2-0.4,5s-4.6,1.4-4.6,1.4l-0.2,1.4
			c0,0,3.2,1.4,8,1c4.8-0.4,5-0.4,5-0.4l5.2-3c0,0,6.6-4,9-4.2c2.4-0.2,3,0,3,0s2.6,3,2.4,4.8s-3,4.6-3.6,6.2
			c-0.6,1.6,0.4,3.4,0.4,3.4s2.4,3.4,2.4,5.2s-0.6,4-1.6,4.6s-3.4,0.8-4.2,0.6c-0.8-0.2-11.7-6-11.7-6s-6-1.4-10-1s-3.8,1.2-3.8,1.2
			l4.4,1.4c0,0,1.4,0.6,1.4,1.4c0,0.8-0.4,4.8-1.6,6.2s-3,3-5.4,3s-6.2-1.8-6.2-1.8l-7-2.8l-0.8-1.4c0,0-1.2,0.8-6.4,1.4
			s-15.9-0.4-15.9-0.4s3.8,1,4.4,1.8s0.6,2.6,0.6,2.6s0.2,1.4,0.6,2.2c0.4,0.8,0.4,2.8-0.6,2.6c-1-0.2-5.4-2.6-6.8-4.4
			c-1.4-1.8-2.8-3.8-2.8-3.8s-9,0.4-10.2-0.2s-7.4-2.4-7.4-2.4s-3-0.2-4.8-0.6c-1.8-0.4-5.2-2.4-5.2-2.4l-3.4-3c0,0-1-0.2-1.2-1
			C510.1,273.3,511.7,271.9,511.7,271.9z"/>
	</g>
	<g id="bass-59" transform="scale(0.867148015961235)">
		<path id="bass_58_" class="st0" d="M362.9,243.5l2-1.8l3.3-2.7l4.2-1.7l8.3-4.7c0,0,6.7-2.2,10-2.3c3.3-0.2,0.8-2.2,0.8-2.2
			l1.2,0.2l0.2-1.7l1.2,1.2l1.8-2.2l0.3,1.5l2-2.7l0.7-0.5h0.7l-0.7,2l2.3-1.2l0.7,0.8l-0.7,1.3l2-0.3l-0.2,1.3h1.2l0.3,1l1.3-0.3
			l0.7,0.8l0.2,0.3h1.2l0.7,0.5c0,0,3.7-3.5,7.8-4.7c4.2-1.2,8.3,0.7,8.3,0.7s2.5,1.2,2.7,3.5c0.2,2.3,0.3,3.5-0.3,4.2
			c-0.7,0.7-3.8,1.2-3.8,1.2l-0.2,1.2c0,0,2.7,1.2,6.7,0.8s4.2-0.3,4.2-0.3l4.3-2.5c0,0,5.5-3.3,7.5-3.5c2-0.2,2.5,0,2.5,0
			s2.2,2.5,2,4s-2.5,3.8-3,5.2c-0.5,1.3,0.3,2.8,0.3,2.8s2,2.8,2,4.3c0,1.5-0.5,3.3-1.3,3.8s-2.8,0.7-3.5,0.5s-9.6-5-9.6-5
			s-5-1.2-8.3-0.8c-3.3,0.3-3.2,1-3.2,1l3.7,1.2c0,0,1.2,0.5,1.2,1.2c0,0.7-0.3,4-1.3,5.2c-1,1.2-2.5,2.5-4.5,2.5s-5.2-1.5-5.2-1.5
			l-5.8-2.3l-0.7-1.2c0,0-1,0.7-5.3,1.2s-13.1-0.3-13.1-0.3s3.2,0.8,3.7,1.5c0.5,0.7,0.5,2.2,0.5,2.2s0.2,1.2,0.5,1.8
			c0.3,0.7,0.3,2.3-0.5,2.2c-0.8-0.2-4.5-2.2-5.7-3.7c-1.2-1.5-2.3-3.2-2.3-3.2s-7.5,0.3-8.5-0.2c-1-0.5-6.2-2-6.2-2s-2.5-0.2-4-0.5
			c-1.5-0.3-4.3-2-4.3-2l-2.8-2.5c0,0-0.8-0.2-1-0.8C361.6,244.7,362.9,243.5,362.9,243.5z"/>
	</g>
	<g id="bass-60" transform="scale(1.17736638322968)">
		<path id="bass_59_" class="st0" d="M539,44.9l2.7-2.5l4.5-3.6l5.6-2.3l11.3-6.3c0,0,9-2.9,13.5-3.2c4.5-0.2,1.1-2.9,1.1-2.9
			l1.6,0.2l0.2-2.3l1.6,1.6l2.5-2.9l0.5,2l2.7-3.6l0.9-0.7h0.9l-0.9,2.7l3.2-1.6l0.9,1.1l-0.9,1.8l2.7-0.5l-0.2,1.8h1.6l0.5,1.4
			l1.8-0.5l0.9,1.1l0.2,0.5h1.6l0.9,0.7c0,0,5-4.7,10.6-6.3c5.6-1.6,11.3,0.9,11.3,0.9s3.4,1.6,3.6,4.7c0.2,3.2,0.5,4.7-0.5,5.6
			c-0.9,0.9-5.2,1.6-5.2,1.6l-0.2,1.6c0,0,3.6,1.6,9,1.1c5.4-0.5,5.6-0.5,5.6-0.5l5.9-3.4c0,0,7.5-4.5,10.2-4.7c2.7-0.2,3.4,0,3.4,0
			s2.9,3.4,2.7,5.4c-0.2,2-3.4,5.2-4.1,7s0.5,3.8,0.5,3.8s2.7,3.8,2.7,5.9s-0.7,4.5-1.8,5.2c-1.1,0.7-3.8,0.9-4.7,0.7
			c-0.9-0.2-13.1-6.8-13.1-6.8s-6.8-1.6-11.3-1.1c-4.5,0.5-4.3,1.4-4.3,1.4l5,1.6c0,0,1.6,0.7,1.6,1.6s-0.5,5.4-1.8,7
			c-1.4,1.6-3.4,3.4-6.1,3.4c-2.7,0-7-2-7-2l-7.9-3.2l-0.9-1.6c0,0-1.4,0.9-7.2,1.6c-5.9,0.7-17.8-0.5-17.8-0.5s4.3,1.1,5,2
			c0.7,0.9,0.7,2.9,0.7,2.9s0.2,1.6,0.7,2.5c0.5,0.9,0.5,3.2-0.7,2.9c-1.1-0.2-6.1-2.9-7.7-5s-3.2-4.3-3.2-4.3s-10.2,0.5-11.5-0.2
			c-1.4-0.7-8.4-2.7-8.4-2.7s-3.4-0.2-5.4-0.7c-2-0.5-5.9-2.7-5.9-2.7l-3.8-3.4c0,0-1.1-0.2-1.4-1.1C537.2,46.5,539,44.9,539,44.9z"
			/>
	</g>
</g>
<g id="all-walleye" transform="translate(-100,0)">
	<g id="walleye-1" transform="scale(1.08562240017597)">
		<path id="walleye" class="st1" d="M256.7,128.5c0,0,0.6-1.5,0.2-2.1s-3.3-1.5-3.3-1.5l-5-1l-5.6-1.7l-5.8-2.7l-10-2.3l0.6-5.2h-1
			l-0.8-4.8l-1.9,0.6l-0.4-3.5l-2.7,0.6l-1-1.7l-1,1.2l-1.5,0.6l-0.2-1.9h-0.8l-1.5,1.7l-1.7-1.2l-0.6,0.2l-0.2,1.7l-2.1-0.6l-1,1.9
			l-1.9-0.6l-0.6,1.9l-1.7-1.2l-0.6,2.3L203,109l-0.2,1.2l-1.7,0.4v1l-1.2,0.2v1l-1.5,1v0.4c0,0-0.6,0.8-0.8,1.9c-0.2,1-2.9,1-2.9,1
			s-2.1-4.8-3.7-7.3c-1.7-2.5-3.5-3.3-3.5-3.3l-1.9-0.4c0,0-0.4,0.2-1.9,1.2c-1.5,1-13.7,11.9-13.7,11.9s-0.8,0.4-0.2,1
			c0.6,0.6,2.7,1.7,2.7,1.7l-3.7,0.6h-4.8l-14.2-10.2c0,0-0.4-1-1.9-0.8c-1.5,0.2-2.1,2.3-2.1,2.3v6c0,0-0.2-0.4,0,1.2
			c0.2,1.7,2.3,4.2,2.3,4.2s0.2,0.6,0.2,1.5s-1.9,3.1-1.9,3.1l-0.4,1l-0.6,4.6l0.2,5l1.7,1.2c0,0,6.9-2.5,7.9-3.5
			c1-1,6.7-5.6,6.7-5.6s1.2-1.9,1.9-1.9c0.6,0,11.9,1.9,11.9,1.9v0.8l-1.2,2.1l2.9,3.1l2.5,4.2c0,0,0,0.8,0.6,1.9
			c0.6,1,2.7,1.5,4,1.2s3.5-2.3,3.5-2.3l3.7-7.3c0,0,6.5,1,11.5,1.2s10.8,0.2,13.7,0s2.7,0,2.7,0s-2.5,1.2-3.1,2.3
			c-0.6,1-1,2.3-1,2.3s-0.4,1.5,0.6,2.1c1,0.6,2.9,1.5,3.3,2.7s0.2,3.1,1.5,3.1s4.2-3.3,4.2-4.4s2.5-6.9,2.3-7.5
			c-0.2-0.6,9-1.5,11.9-2.3c2.9-0.8,11-3.1,11-3.1l6-1c0,0,0-0.2,0.6-1C257.4,130,256.7,128.5,256.7,128.5z"/>
	</g>
	<g id="walleye-6" transform="scale(1.03741101902917)">
		<path id="walleye_5_" class="st1" d="M169.5,24.1c0,0,0.6-1.4,0.2-2c-0.4-0.6-3.2-1.4-3.2-1.4l-4.8-1l-5.4-1.6l-5.6-2.6l-9.5-2.2
			l0.6-5h-1L140,3.8l-1.8,0.6L137.9,1l-2.6,0.6l-1-1.6l-1,1.2l-1.4,0.6L131.7,0h-0.8l-1.4,1.6l-1.6-1.2l-0.6,0.2l-0.2,1.6l-2-0.6
			l-1,1.8l-1.8-0.6l-0.6,1.8l-1.6-1.2l-0.6,2.2l-1.4-0.2L118,6.6L116.4,7v1l-1.2,0.2v1l-1.4,1v0.4c0,0-0.6,0.8-0.8,1.8
			c-0.2,1-2.8,1-2.8,1s-2-4.6-3.6-7c-1.6-2.4-3.4-3.2-3.4-3.2l-1.8-0.4c0,0-0.4,0.2-1.8,1.2c-1.4,1-13.1,11.3-13.1,11.3
			s-0.8,0.4-0.2,1c0.6,0.6,2.6,1.6,2.6,1.6l-3.6,0.6h-4.6L67.2,8.8c0,0-0.4-1-1.8-0.8c-1.4,0.2-2,2.2-2,2.2v5.8c0,0-0.2-0.4,0,1.2
			s2.2,4,2.2,4s0.2,0.6,0.2,1.4c0,0.8-1.8,3-1.8,3l-0.4,1l-0.6,4.4l0.2,4.8l1.6,1.2c0,0,6.6-2.4,7.6-3.4c1-1,6.4-5.4,6.4-5.4
			s1.2-1.8,1.8-1.8c0.6,0,11.3,1.8,11.3,1.8v0.8l-1.2,2l2.8,3l2.4,4c0,0,0,0.8,0.6,1.8c0.6,1,2.6,1.4,3.8,1.2
			c1.2-0.2,3.4-2.2,3.4-2.2l3.6-7c0,0,6.2,1,10.9,1.2c4.8,0.2,10.3,0.2,13.1,0c2.8-0.2,2.6,0,2.6,0s-2.4,1.2-3,2.2s-1,2.2-1,2.2
			s-0.4,1.4,0.6,2c1,0.6,2.8,1.4,3.2,2.6c0.4,1.2,0.2,3,1.4,3s4-3.2,4-4.2c0-1,2.4-6.6,2.2-7.2s8.6-1.4,11.3-2.2
			c2.8-0.8,10.5-3,10.5-3l5.8-1c0,0,0-0.2,0.6-1C170.1,25.5,169.5,24.1,169.5,24.1z"/>
	</g>
	<g id="walleye-8" transform="scale(0.830670833854979)">
		<path id="walleye_7_" class="st1" d="M149.5,389.5c0,0,0.5-1.1,0.2-1.6c-0.3-0.5-2.5-1.1-2.5-1.1l-3.8-0.8l-4.3-1.3l-4.5-2.1
			l-7.6-1.8l0.5-4h-0.8l-0.6-3.7l-1.4,0.5l-0.3-2.7l-2.1,0.5l-0.8-1.3l-0.8,1l-1.1,0.5l-0.2-1.4h-0.6l-1.1,1.3l-1.3-1l-0.5,0.2
			l-0.2,1.3l-1.6-0.5l-0.8,1.4l-1.4-0.5l-0.5,1.4l-1.3-1l-0.5,1.8l-1.1-0.2l-0.2,1l-1.3,0.3v0.8l-1,0.2v0.8l-1.1,0.8v0.3
			c0,0-0.5,0.6-0.6,1.4c-0.2,0.8-2.2,0.8-2.2,0.8s-1.6-3.7-2.9-5.6c-1.3-1.9-2.7-2.5-2.7-2.5l-1.4-0.3c0,0-0.3,0.2-1.4,1
			s-10.5,9.1-10.5,9.1s-0.6,0.3-0.2,0.8c0.5,0.5,2.1,1.3,2.1,1.3l-2.9,0.5h-3.7l-10.8-7.8c0,0-0.3-0.8-1.4-0.6
			c-1.1,0.2-1.6,1.8-1.6,1.8v4.6c0,0-0.2-0.3,0,1c0.2,1.3,1.8,3.2,1.8,3.2s0.2,0.5,0.2,1.1s-1.4,2.4-1.4,2.4l-0.3,0.8l-0.5,3.5
			l0.2,3.8l1.3,1c0,0,5.3-1.9,6.1-2.7c0.8-0.8,5.1-4.3,5.1-4.3s1-1.4,1.4-1.4c0.5,0,9.1,1.4,9.1,1.4v0.6l-1,1.6l2.2,2.4l1.9,3.2
			c0,0,0,0.6,0.5,1.4c0.5,0.8,2.1,1.1,3,1s2.7-1.8,2.7-1.8l2.9-5.6c0,0,4.9,0.8,8.8,1s8.3,0.2,10.5,0c2.2-0.2,2.1,0,2.1,0
			s-1.9,1-2.4,1.8c-0.5,0.8-0.8,1.8-0.8,1.8s-0.3,1.1,0.5,1.6s2.2,1.1,2.5,2.1c0.3,1,0.2,2.4,1.1,2.4s3.2-2.5,3.2-3.3
			s1.9-5.3,1.8-5.7c-0.2-0.5,6.8-1.1,9.1-1.8s8.4-2.4,8.4-2.4l4.6-0.8c0,0,0-0.2,0.5-0.8S149.5,389.5,149.5,389.5z"/>
	</g>
	<g id="walleye-12" transform="scale(0.797529715186082)">
		<path id="walleye_11_" class="st1" d="M106.3,380c0,0,0.5-1.1,0.2-1.5c-0.3-0.5-2.4-1.1-2.4-1.1l-3.7-0.8l-4.1-1.2l-4.3-2
			l-7.3-1.7l0.5-3.8h-0.8l-0.6-3.5l-1.4,0.5l-0.3-2.6l-2,0.5l-0.8-1.2l-0.8,0.9l-1.1,0.5l-0.2-1.4h-0.6l-1.1,1.2l-1.2-0.9l-0.5,0.2
			l-0.2,1.2l-1.5-0.5l-0.8,1.4l-1.4-0.5l-0.5,1.4l-1.2-0.9l-0.5,1.7l-1.1-0.2l-0.2,0.9l-1.2,0.3v0.8l-0.9,0.2v0.8l-1.1,0.8v0.3
			c0,0-0.5,0.6-0.6,1.4c-0.2,0.8-2.1,0.8-2.1,0.8s-1.5-3.5-2.8-5.4c-1.2-1.8-2.6-2.4-2.6-2.4l-1.4-0.3c0,0-0.3,0.2-1.4,0.9
			c-1.1,0.8-10.1,8.7-10.1,8.7s-0.6,0.3-0.2,0.8c0.5,0.5,2,1.2,2,1.2l-2.8,0.5h-3.5l-10.4-7.5c0,0-0.3-0.8-1.4-0.6
			c-1.1,0.2-1.5,1.7-1.5,1.7v4.4c0,0-0.2-0.3,0,0.9c0.2,1.2,1.7,3.1,1.7,3.1s0.2,0.5,0.2,1.1s-1.4,2.3-1.4,2.3l-0.3,0.8l-0.5,3.4
			l0.2,3.7l1.2,0.9c0,0,5-1.8,5.8-2.6c0.8-0.8,4.9-4.1,4.9-4.1s0.9-1.4,1.4-1.4s8.7,1.4,8.7,1.4v0.6l-0.9,1.5l2.1,2.3l1.8,3.1
			c0,0,0,0.6,0.5,1.4c0.5,0.8,2,1.1,2.9,0.9s2.6-1.7,2.6-1.7l2.8-5.4c0,0,4.7,0.8,8.4,0.9c3.7,0.2,8,0.2,10.1,0c2.1-0.2,2,0,2,0
			s-1.8,0.9-2.3,1.7c-0.5,0.8-0.8,1.7-0.8,1.7s-0.3,1.1,0.5,1.5c0.8,0.5,2.1,1.1,2.4,2c0.3,0.9,0.2,2.3,1.1,2.3s3.1-2.4,3.1-3.2
			c0-0.8,1.8-5,1.7-5.5s6.6-1.1,8.7-1.7c2.1-0.6,8.1-2.3,8.1-2.3l4.4-0.8c0,0,0-0.2,0.5-0.8C106.7,381.1,106.3,380,106.3,380z"/>
	</g>
	<g id="walleye-14" transform="scale(0.977045343923903)">
		<path id="walleye_13_" class="st1" d="M213,218.8c0,0,0.6-1.3,0.2-1.9c-0.4-0.6-3-1.3-3-1.3l-4.5-0.9l-5.1-1.5l-5.2-2.4l-9-2.1
			l0.6-4.7h-0.9l-0.7-4.3l-1.7,0.6l-0.4-3.2l-2.4,0.6l-0.9-1.5l-0.9,1.1l-1.3,0.6l-0.2-1.7h-0.7l-1.3,1.5l-1.5-1.1l-0.6,0.2
			l-0.2,1.5l-1.9-0.6l-0.9,1.7l-1.7-0.6l-0.6,1.7l-1.5-1.1l-0.6,2.1l-1.3-0.2l-0.2,1.1l-1.5,0.4v0.9l-1.1,0.2v0.9l-1.3,0.9v0.4
			c0,0-0.6,0.7-0.7,1.7c-0.2,0.9-2.6,0.9-2.6,0.9s-1.9-4.3-3.4-6.6c-1.5-2.2-3.2-3-3.2-3l-1.7-0.4c0,0-0.4,0.2-1.7,1.1
			c-1.3,0.9-12.4,10.7-12.4,10.7s-0.7,0.4-0.2,0.9c0.6,0.6,2.4,1.5,2.4,1.5l-3.4,0.6h-4.3l-12.7-9.2c0,0-0.4-0.9-1.7-0.7
			c-1.3,0.2-1.9,2.1-1.9,2.1v5.4c0,0-0.2-0.4,0,1.1c0.2,1.5,2.1,3.7,2.1,3.7s0.2,0.6,0.2,1.3s-1.7,2.8-1.7,2.8l-0.4,0.9l-0.6,4.1
			l0.2,4.5l1.5,1.1c0,0,6.2-2.2,7.1-3.2c0.9-0.9,6-5.1,6-5.1s1.1-1.7,1.7-1.7c0.6,0,10.7,1.7,10.7,1.7v0.7l-1.1,1.9l2.6,2.8l2.2,3.7
			c0,0,0,0.7,0.6,1.7c0.6,0.9,2.4,1.3,3.6,1.1c1.1-0.2,3.2-2.1,3.2-2.1l3.4-6.6c0,0,5.8,0.9,10.3,1.1c4.5,0.2,9.7,0.2,12.4,0
			c2.6-0.2,2.4,0,2.4,0s-2.2,1.1-2.8,2.1c-0.6,0.9-0.9,2.1-0.9,2.1s-0.4,1.3,0.6,1.9c0.9,0.6,2.6,1.3,3,2.4c0.4,1.1,0.2,2.8,1.3,2.8
			s3.7-3,3.7-3.9s2.2-6.2,2.1-6.7c-0.2-0.6,8.1-1.3,10.7-2.1c2.6-0.7,9.9-2.8,9.9-2.8l5.4-0.9c0,0,0-0.2,0.6-0.9
			C213.6,220.1,213,218.8,213,218.8z"/>
	</g>
	<g id="walleye-15" transform="scale(0.936532002294888)">
		<path id="walleye_14_" class="st1" d="M110.6,151.1c0,0,0.5-1.3,0.2-1.8c-0.4-0.5-2.9-1.3-2.9-1.3l-4.3-0.9l-4.8-1.4l-5-2.3
			l-8.6-2l0.5-4.5h-0.9l-0.7-4.1l-1.6,0.5l-0.4-3.1l-2.3,0.5l-0.9-1.4l-0.9,1.1l-1.3,0.5l-0.2-1.6h-0.7l-1.3,1.4l-1.4-1.1l-0.5,0.2
			l-0.2,1.4l-1.8-0.5l-0.9,1.6l-1.6-0.5l-0.5,1.6l-1.4-1.1l-0.5,2l-1.3-0.2l-0.2,1.1l-1.4,0.4v0.9l-1.1,0.2v0.9l-1.3,0.9v0.4
			c0,0-0.5,0.7-0.7,1.6c-0.2,0.9-2.5,0.9-2.5,0.9s-1.8-4.1-3.2-6.3c-1.4-2.2-3.1-2.9-3.1-2.9l-1.6-0.4c0,0-0.4,0.2-1.6,1.1
			c-1.3,0.9-11.9,10.2-11.9,10.2s-0.7,0.4-0.2,0.9s2.3,1.4,2.3,1.4l-3.2,0.5h-4.1l-12.2-8.8c0,0-0.4-0.9-1.6-0.7
			c-1.3,0.2-1.8,2-1.8,2v5.2c0,0-0.2-0.4,0,1.1s2,3.6,2,3.6s0.2,0.5,0.2,1.3s-1.6,2.7-1.6,2.7l-0.4,0.9l-0.5,4l0.2,4.3l1.4,1.1
			c0,0,5.9-2.2,6.8-3.1c0.9-0.9,5.7-4.8,5.7-4.8s1.1-1.6,1.6-1.6s10.2,1.6,10.2,1.6v0.7l-1.1,1.8l2.5,2.7l2.2,3.6c0,0,0,0.7,0.5,1.6
			c0.5,0.9,2.3,1.3,3.4,1.1s3.1-2,3.1-2l3.2-6.3c0,0,5.6,0.9,9.9,1.1c4.3,0.2,9.3,0.2,11.9,0c2.5-0.2,2.3,0,2.3,0s-2.2,1.1-2.7,2
			s-0.9,2-0.9,2s-0.4,1.3,0.5,1.8c0.9,0.5,2.5,1.3,2.9,2.3c0.4,1.1,0.2,2.7,1.3,2.7c1.1,0,3.6-2.9,3.6-3.8c0-0.9,2.2-5.9,2-6.5
			c-0.2-0.5,7.7-1.3,10.2-2c2.5-0.7,9.5-2.7,9.5-2.7l5.2-0.9c0,0,0-0.2,0.5-0.9C111.1,152.4,110.6,151.1,110.6,151.1z"/>
	</g>
	<g id="walleye-19" transform="scale(1.08360849959308)">
		<path id="walleye_18_" class="st1" d="M163.5,389.5c0,0,0.6-1.5,0.2-2.1s-3.3-1.5-3.3-1.5l-5-1l-5.6-1.7l-5.8-2.7l-10-2.3l0.6-5.2
			h-1l-0.8-4.8l-1.9,0.6l-0.4-3.5l-2.7,0.6l-1-1.7l-1,1.2l-1.5,0.6l-0.2-1.9h-0.8l-1.5,1.7l-1.7-1.2l-0.6,0.2l-0.2,1.7l-2.1-0.6
			l-1,1.9l-1.9-0.6l-0.6,1.9l-1.7-1.2l-0.6,2.3l-1.5-0.2l-0.2,1.2l-1.7,0.4v1l-1.2,0.2v1l-1.5,1v0.4c0,0-0.6,0.8-0.8,1.9
			c-0.2,1-2.9,1-2.9,1s-2.1-4.8-3.7-7.3c-1.7-2.5-3.5-3.3-3.5-3.3l-1.9-0.4c0,0-0.4,0.2-1.9,1.2c-1.5,1-13.7,11.8-13.7,11.8
			s-0.8,0.4-0.2,1c0.6,0.6,2.7,1.7,2.7,1.7l-3.7,0.6h-4.8l-14.1-10.2c0,0-0.4-1-1.9-0.8c-1.5,0.2-2.1,2.3-2.1,2.3v6
			c0,0-0.2-0.4,0,1.2c0.2,1.7,2.3,4.2,2.3,4.2s0.2,0.6,0.2,1.5s-1.9,3.1-1.9,3.1l-0.4,1l-0.6,4.6l0.2,5l1.7,1.2c0,0,6.9-2.5,7.9-3.5
			s6.6-5.6,6.6-5.6s1.2-1.9,1.9-1.9s11.8,1.9,11.8,1.9v0.8l-1.2,2.1l2.9,3.1l2.5,4.2c0,0,0,0.8,0.6,1.9s2.7,1.5,3.9,1.2
			c1.2-0.2,3.5-2.3,3.5-2.3l3.7-7.3c0,0,6.4,1,11.4,1.2c5,0.2,10.8,0.2,13.7,0c2.9-0.2,2.7,0,2.7,0s-2.5,1.2-3.1,2.3
			c-0.6,1-1,2.3-1,2.3s-0.4,1.5,0.6,2.1c1,0.6,2.9,1.5,3.3,2.7c0.4,1.2,0.2,3.1,1.5,3.1s4.2-3.3,4.2-4.4s2.5-6.9,2.3-7.5
			s8.9-1.5,11.8-2.3c2.9-0.8,11-3.1,11-3.1l6-1c0,0,0-0.2,0.6-1C164.1,391,163.5,389.5,163.5,389.5z"/>
	</g>
	<g id="walleye-20" transform="scale(1.22643628795571)">
		<path id="walleye_19_" class="st1" d="M252.3,140.7c0,0,0.7-1.6,0.2-2.4c-0.5-0.7-3.8-1.6-3.8-1.6l-5.6-1.2l-6.4-1.9l-6.6-3.1
			l-11.3-2.6l0.7-5.9h-1.2l-0.9-5.4l-2.1,0.7l-0.5-4l-3.1,0.7l-1.2-1.9l-1.2,1.4l-1.6,0.7l-0.2-2.1h-0.9l-1.6,1.9l-1.9-1.4l-0.7,0.2
			l-0.2,1.9l-2.4-0.7l-1.2,2.1l-2.1-0.7l-0.7,2.1l-1.9-1.4l-0.7,2.6l-1.6-0.2l-0.2,1.4l-1.9,0.5v1.2l-1.4,0.2v1.2l-1.6,1.2v0.5
			c0,0-0.7,0.9-0.9,2.1s-3.3,1.2-3.3,1.2s-2.4-5.4-4.2-8.2c-1.9-2.8-4-3.8-4-3.8l-2.1-0.5c0,0-0.5,0.2-2.1,1.4
			c-1.6,1.2-15.5,13.4-15.5,13.4s-0.9,0.5-0.2,1.2c0.7,0.7,3.1,1.9,3.1,1.9l-4.2,0.7h-5.4l-16-11.5c0,0-0.5-1.2-2.1-0.9
			c-1.6,0.2-2.4,2.6-2.4,2.6v6.8c0,0-0.2-0.5,0,1.4c0.2,1.9,2.6,4.7,2.6,4.7s0.2,0.7,0.2,1.6s-2.1,3.5-2.1,3.5l-0.5,1.2l-0.7,5.2
			l0.2,5.6l1.9,1.4c0,0,7.8-2.8,8.9-4c1.2-1.2,7.5-6.4,7.5-6.4s1.4-2.1,2.1-2.1s13.4,2.1,13.4,2.1v0.9l-1.4,2.4l3.3,3.5l2.8,4.7
			c0,0,0,0.9,0.7,2.1c0.7,1.2,3.1,1.6,4.5,1.4c1.4-0.2,4-2.6,4-2.6l4.2-8.2c0,0,7.3,1.2,12.9,1.4c5.6,0.2,12.2,0.2,15.5,0
			c3.3-0.2,3.1,0,3.1,0s-2.8,1.4-3.5,2.6c-0.7,1.2-1.2,2.6-1.2,2.6s-0.5,1.6,0.7,2.4s3.3,1.6,3.8,3.1c0.5,1.4,0.2,3.5,1.6,3.5
			s4.7-3.8,4.7-4.9c0-1.2,2.8-7.8,2.6-8.5s10.1-1.6,13.4-2.6s12.5-3.5,12.5-3.5l6.8-1.2c0,0,0-0.2,0.7-1.2S252.3,140.7,252.3,140.7z
			"/>
	</g>
	<g id="walleye-21" transform="scale(0.846861549801944)">
		<path id="walleye_20_" class="st1" d="M146.5,245.4c0,0,0.5-1.1,0.2-1.6c-0.3-0.5-2.6-1.1-2.6-1.1l-3.9-0.8l-4.4-1.3l-4.5-2.1
			l-7.8-1.8l0.5-4.1h-0.8l-0.6-3.7l-1.5,0.5l-0.3-2.8l-2.1,0.5l-0.8-1.3l-0.8,1l-1.1,0.5l-0.2-1.5H115l-1.1,1.3l-1.3-1l-0.5,0.2
			l-0.2,1.3l-1.6-0.5l-0.8,1.5L108,228l-0.5,1.5l-1.3-1l-0.5,1.8l-1.1-0.2l-0.2,1l-1.3,0.3v0.8l-1,0.2v0.8L101,234v0.3
			c0,0-0.5,0.6-0.6,1.5s-2.3,0.8-2.3,0.8s-1.6-3.7-2.9-5.7c-1.3-1.9-2.8-2.6-2.8-2.6l-1.5-0.3c0,0-0.3,0.2-1.5,1
			c-1.1,0.8-10.7,9.3-10.7,9.3s-0.6,0.3-0.2,0.8c0.5,0.5,2.1,1.3,2.1,1.3l-2.9,0.5H74l-11-8c0,0-0.3-0.8-1.5-0.6
			c-1.1,0.2-1.6,1.8-1.6,1.8v4.7c0,0-0.2-0.3,0,1c0.2,1.3,1.8,3.2,1.8,3.2s0.2,0.5,0.2,1.1c0,0.6-1.5,2.4-1.5,2.4l-0.3,0.8l-0.5,3.6
			l0.2,3.9l1.3,1c0,0,5.4-1.9,6.2-2.8s5.2-4.4,5.2-4.4s1-1.5,1.5-1.5c0.5,0,9.3,1.5,9.3,1.5v0.6l-1,1.6l2.3,2.4l1.9,3.2
			c0,0,0,0.6,0.5,1.5c0.5,0.8,2.1,1.1,3.1,1c1-0.2,2.8-1.8,2.8-1.8l2.9-5.7c0,0,5,0.8,8.9,1c3.9,0.2,8.4,0.2,10.7,0
			c2.3-0.2,2.1,0,2.1,0s-1.9,1-2.4,1.8c-0.5,0.8-0.8,1.8-0.8,1.8s-0.3,1.1,0.5,1.6s2.3,1.1,2.6,2.1c0.3,1,0.2,2.4,1.1,2.4
			s3.2-2.6,3.2-3.4c0-0.8,1.9-5.4,1.8-5.8c-0.2-0.5,7-1.1,9.3-1.8c2.3-0.6,8.6-2.4,8.6-2.4l4.7-0.8c0,0,0-0.2,0.5-0.8
			C146.9,246.5,146.5,245.4,146.5,245.4z"/>
	</g>
	<g id="walleye-23" transform="scale(0.955017926163992)">
		<path id="walleye_22_" class="st1" d="M257.6,376.5c0,0,0.5-1.3,0.2-1.8c-0.4-0.5-2.9-1.3-2.9-1.3l-4.4-0.9l-4.9-1.5l-5.1-2.4
			l-8.8-2l0.5-4.6h-0.9l-0.7-4.2l-1.6,0.5l-0.4-3.1l-2.4,0.5l-0.9-1.5l-0.9,1.1L223,356l-0.2-1.6h-0.7l-1.3,1.5l-1.5-1.1l-0.5,0.2
			l-0.2,1.5l-1.8-0.5l-0.9,1.6l-1.6-0.5l-0.5,1.6l-1.5-1.1l-0.5,2l-1.3-0.2l-0.2,1.1l-1.5,0.4v0.9l-1.1,0.2v0.9l-1.3,0.9v0.4
			c0,0-0.5,0.7-0.7,1.6c-0.2,0.9-2.6,0.9-2.6,0.9s-1.8-4.2-3.3-6.4c-1.5-2.2-3.1-2.9-3.1-2.9L195,357c0,0-0.4,0.2-1.6,1.1
			c-1.3,0.9-12.1,10.4-12.1,10.4s-0.7,0.4-0.2,0.9c0.5,0.5,2.4,1.5,2.4,1.5l-3.3,0.5h-4.2l-12.5-9c0,0-0.4-0.9-1.6-0.7
			c-1.3,0.2-1.8,2-1.8,2v5.3c0,0-0.2-0.4,0,1.1s2,3.7,2,3.7s0.2,0.5,0.2,1.3c0,0.7-1.6,2.7-1.6,2.7l-0.4,0.9l-0.5,4l0.2,4.4l1.5,1.1
			c0,0,6-2.2,7-3.1c0.9-0.9,5.9-4.9,5.9-4.9s1.1-1.6,1.6-1.6c0.5,0,10.4,1.6,10.4,1.6v0.7l-1.1,1.8l2.6,2.7l2.2,3.7
			c0,0,0,0.7,0.5,1.6s2.4,1.3,3.5,1.1c1.1-0.2,3.1-2,3.1-2l3.3-6.4c0,0,5.7,0.9,10.1,1.1s9.5,0.2,12.1,0s2.4,0,2.4,0s-2.2,1.1-2.7,2
			c-0.5,0.9-0.9,2-0.9,2s-0.4,1.3,0.5,1.8c0.9,0.5,2.6,1.3,2.9,2.4c0.4,1.1,0.2,2.7,1.3,2.7c1.1,0,3.7-2.9,3.7-3.8s2.2-6,2-6.6
			c-0.2-0.5,7.9-1.3,10.4-2c2.6-0.7,9.7-2.7,9.7-2.7l5.3-0.9c0,0,0-0.2,0.5-0.9C258.1,377.8,257.6,376.5,257.6,376.5z"/>
	</g>
	<g id="walleye-31" transform="scale(1.14091976719151)">
		<path id="walleye_30_" class="st1" d="M168,359c0,0,0.7-1.5,0.2-2.2c-0.4-0.7-3.5-1.5-3.5-1.5l-5.3-1.1l-5.9-1.8l-6.1-2.8
			l-10.5-2.4l0.7-5.5h-1.1l-0.9-5l-2,0.7l-0.4-3.7l-2.8,0.7l-1.1-1.8l-1.1,1.3l-1.5,0.7l-0.2-2h-0.9l-1.5,1.8l-1.8-1.3l-0.7,0.2
			l-0.2,1.8l-2.2-0.7l-1.1,2l-2-0.7l-0.7,2l-1.8-1.3l-0.7,2.4l-1.5-0.2l-0.2,1.3l-1.8,0.4v1.1l-1.3,0.2v1.1l-1.5,1.1v0.4
			c0,0-0.7,0.9-0.9,2c-0.2,1.1-3.1,1.1-3.1,1.1s-2.2-5-3.9-7.7c-1.8-2.6-3.7-3.5-3.7-3.5l-2-0.4c0,0-0.4,0.2-2,1.3
			s-14.4,12.5-14.4,12.5s-0.9,0.4-0.2,1.1s2.8,1.8,2.8,1.8l-3.9,0.7h-5l-14.9-10.7c0,0-0.4-1.1-2-0.9c-1.5,0.2-2.2,2.4-2.2,2.4v6.3
			c0,0-0.2-0.4,0,1.3c0.2,1.8,2.4,4.4,2.4,4.4s0.2,0.7,0.2,1.5c0,0.9-2,3.3-2,3.3l-0.4,1.1l-0.7,4.8l0.2,5.3l1.8,1.3
			c0,0,7.2-2.6,8.3-3.7c1.1-1.1,7-5.9,7-5.9s1.3-2,2-2s12.5,2,12.5,2v0.9l-1.3,2.2l3.1,3.3l2.6,4.4c0,0,0,0.9,0.7,2
			c0.7,1.1,2.8,1.5,4.2,1.3c1.3-0.2,3.7-2.4,3.7-2.4l3.9-7.7c0,0,6.8,1.1,12,1.3c5.3,0.2,11.4,0.2,14.4,0s2.8,0,2.8,0
			s-2.6,1.3-3.3,2.4s-1.1,2.4-1.1,2.4s-0.4,1.5,0.7,2.2c1.1,0.7,3.1,1.5,3.5,2.8c0.4,1.3,0.2,3.3,1.5,3.3c1.3,0,4.4-3.5,4.4-4.6
			s2.6-7.2,2.4-7.9c-0.2-0.7,9.4-1.5,12.5-2.4c3.1-0.9,11.6-3.3,11.6-3.3l6.3-1.1c0,0,0-0.2,0.7-1.1C168.6,360.6,168,359,168,359z"
			/>
	</g>
	<g id="walleye-36" transform="scale(0.683147645105714)">
		<path id="walleye_35_" class="st1" d="M243.6,179.4c0,0,0.4-0.9,0.1-1.3c-0.3-0.4-2.1-0.9-2.1-0.9l-3.1-0.7l-3.5-1l-3.7-1.7
			l-6.3-1.4l0.4-3.3h-0.7l-0.5-3l-1.2,0.4l-0.3-2.2l-1.7,0.4l-0.7-1l-0.7,0.8l-0.9,0.4l-0.1-1.2h-0.5l-0.9,1l-1-0.8l-0.4,0.1l-0.1,1
			l-1.3-0.4l-0.7,1.2l-1.2-0.4l-0.4,1.2l-1-0.8l-0.4,1.4l-0.9-0.1l-0.1,0.8l-1,0.3v0.7l-0.8,0.1v0.7l-0.9,0.7v0.3
			c0,0-0.4,0.5-0.5,1.2c-0.1,0.7-1.8,0.7-1.8,0.7s-1.3-3-2.4-4.6c-1-1.6-2.2-2.1-2.2-2.1l-1.2-0.3c0,0-0.3,0.1-1.2,0.8
			c-0.9,0.7-8.6,7.5-8.6,7.5s-0.5,0.3-0.1,0.7c0.4,0.4,1.7,1,1.7,1l-2.4,0.4h-3l-8.9-6.4c0,0-0.3-0.7-1.2-0.5s-1.3,1.4-1.3,1.4v3.8
			c0,0-0.1-0.3,0,0.8c0.1,1,1.4,2.6,1.4,2.6s0.1,0.4,0.1,0.9c0,0.5-1.2,2-1.2,2l-0.3,0.7l-0.4,2.9l0.1,3.1l1,0.8c0,0,4.3-1.6,5-2.2
			c0.7-0.7,4.2-3.5,4.2-3.5s0.8-1.2,1.2-1.2c0.4,0,7.5,1.2,7.5,1.2v0.5l-0.8,1.3l1.8,2l1.6,2.6c0,0,0,0.5,0.4,1.2
			c0.4,0.7,1.7,0.9,2.5,0.8s2.2-1.4,2.2-1.4l2.4-4.6c0,0,4.1,0.7,7.2,0.8c3.1,0.1,6.8,0.1,8.6,0c1.8-0.1,1.7,0,1.7,0s-1.6,0.8-2,1.4
			c-0.4,0.7-0.7,1.4-0.7,1.4s-0.3,0.9,0.4,1.3c0.7,0.4,1.8,0.9,2.1,1.7s0.1,2,0.9,2s2.6-2.1,2.6-2.8s1.6-4.3,1.4-4.7
			c-0.1-0.4,5.6-0.9,7.5-1.4c1.8-0.5,6.9-2,6.9-2l3.8-0.7c0,0,0-0.1,0.4-0.7S243.6,179.4,243.6,179.4z"/>
	</g>
	<g id="walleye-40" transform="scale(1.15468506807186)">
		<path id="walleye_39_" class="st1" d="M264.5,65.2c0,0,0.7-1.6,0.2-2.2c-0.4-0.7-3.5-1.6-3.5-1.6l-5.3-1.1l-6-1.8l-6.2-2.9
			l-10.6-2.4l0.7-5.5h-1.1l-0.9-5.1l-2,0.7l-0.4-3.8l-2.9,0.7l-1.1-1.8l-1.1,1.3l-1.6,0.7l-0.2-2h-0.9l-1.6,1.8l-1.8-1.3l-0.7,0.2
			l-0.2,1.8l-2.2-0.7l-1.1,2l-2-0.7l-0.7,2l-1.8-1.3l-0.7,2.4l-1.6-0.2l-0.2,1.3l-1.8,0.4v1.1l-1.3,0.2v1.1l-1.6,1.1v0.4
			c0,0-0.7,0.9-0.9,2c-0.2,1.1-3.1,1.1-3.1,1.1s-2.2-5.1-4-7.8c-1.8-2.7-3.8-3.5-3.8-3.5l-2-0.4c0,0-0.4,0.2-2,1.3
			c-1.6,1.1-14.6,12.6-14.6,12.6s-0.9,0.4-0.2,1.1c0.7,0.7,2.9,1.8,2.9,1.8l-4,0.7h-5.1l-15.1-10.9c0,0-0.4-1.1-2-0.9
			c-1.6,0.2-2.2,2.4-2.2,2.4v6.4c0,0-0.2-0.4,0,1.3c0.2,1.8,2.4,4.4,2.4,4.4s0.2,0.7,0.2,1.6s-2,3.3-2,3.3l-0.4,1.1l-0.7,4.9
			l0.2,5.3l1.8,1.3c0,0,7.3-2.7,8.4-3.8s7.1-6,7.1-6s1.3-2,2-2c0.7,0,12.6,2,12.6,2v0.9l-1.3,2.2l3.1,3.3l2.7,4.4c0,0,0,0.9,0.7,2
			c0.7,1.1,2.9,1.6,4.2,1.3c1.3-0.2,3.8-2.4,3.8-2.4l4-7.8c0,0,6.9,1.1,12.2,1.3c5.3,0.2,11.5,0.2,14.6,0s2.9,0,2.9,0
			s-2.7,1.3-3.3,2.4c-0.7,1.1-1.1,2.4-1.1,2.4s-0.4,1.6,0.7,2.2s3.1,1.6,3.5,2.9c0.4,1.3,0.2,3.3,1.6,3.3s4.4-3.5,4.4-4.7
			c0-1.1,2.7-7.3,2.4-8c-0.2-0.7,9.5-1.6,12.6-2.4s11.7-3.3,11.7-3.3l6.4-1.1c0,0,0-0.2,0.7-1.1C265.2,66.8,264.5,65.2,264.5,65.2z"
			/>
	</g>
	<g id="walleye-41" transform="scale(0.94889299658404)">
		<path id="walleye_40_" class="st1" d="M144.4,249c0,0,0.5-1.3,0.2-1.8c-0.4-0.5-2.9-1.3-2.9-1.3l-4.4-0.9l-4.9-1.5l-5.1-2.4
			l-8.7-2l0.5-4.5h-0.9l-0.7-4.2l-1.6,0.5l-0.4-3.1l-2.4,0.5l-0.9-1.5l-0.9,1.1l-1.3,0.5l-0.2-1.6h-0.7l-1.3,1.5l-1.5-1.1l-0.5,0.2
			l-0.2,1.5l-1.8-0.5l-0.9,1.6l-1.6-0.5l-0.5,1.6l-1.5-1.1l-0.5,2l-1.3-0.2l-0.2,1.1l-1.5,0.4v0.9l-1.1,0.2v0.9l-1.3,0.9v0.4
			c0,0-0.5,0.7-0.7,1.6c-0.2,0.9-2.5,0.9-2.5,0.9s-1.8-4.2-3.3-6.4c-1.5-2.2-3.1-2.9-3.1-2.9l-1.6-0.4c0,0-0.4,0.2-1.6,1.1
			c-1.3,0.9-12,10.4-12,10.4s-0.7,0.4-0.2,0.9c0.5,0.5,2.4,1.5,2.4,1.5l-3.3,0.5h-4.2L50.9,235c0,0-0.4-0.9-1.6-0.7
			c-1.3,0.2-1.8,2-1.8,2v5.3c0,0-0.2-0.4,0,1.1c0.2,1.5,2,3.6,2,3.6s0.2,0.5,0.2,1.3s-1.6,2.7-1.6,2.7l-0.4,0.9l-0.5,4l0.2,4.4
			l1.5,1.1c0,0,6-2.2,6.9-3.1c0.9-0.9,5.8-4.9,5.8-4.9s1.1-1.6,1.6-1.6s10.4,1.6,10.4,1.6v0.7l-1.1,1.8l2.5,2.7l2.2,3.6
			c0,0,0,0.7,0.5,1.6c0.5,0.9,2.4,1.3,3.5,1.1s3.1-2,3.1-2l3.3-6.4c0,0,5.6,0.9,10,1.1c4.4,0.2,9.5,0.2,12,0c2.5-0.2,2.4,0,2.4,0
			s-2.2,1.1-2.7,2c-0.5,0.9-0.9,2-0.9,2s-0.4,1.3,0.5,1.8c0.9,0.5,2.5,1.3,2.9,2.4c0.4,1.1,0.2,2.7,1.3,2.7c1.1,0,3.6-2.9,3.6-3.8
			c0-0.9,2.2-6,2-6.6c-0.2-0.5,7.8-1.3,10.4-2s9.6-2.7,9.6-2.7l5.3-0.9c0,0,0-0.2,0.5-0.9S144.4,249,144.4,249z"/>
	</g>
	<g id="walleye-42" transform="scale(0.810617513019835)">
		<path id="walleye_41_" class="st1" d="M112.2,423.7c0,0,0.5-1.1,0.2-1.6c-0.3-0.5-2.5-1.1-2.5-1.1l-3.7-0.8l-4.2-1.2l-4.4-2
			l-7.5-1.7l0.5-3.9h-0.8l-0.6-3.6l-1.4,0.5l-0.3-2.6l-2,0.5l-0.8-1.2l-0.8,0.9l-1.1,0.5l-0.2-1.4H82l-1.1,1.2l-1.2-0.9l-0.5,0.2
			l-0.2,1.2l-1.6-0.5l-0.8,1.4l-1.4-0.5l-0.5,1.4l-1.2-0.9l-0.5,1.7l-1.1-0.2l-0.2,0.9l-1.2,0.3v0.8l-0.9,0.2v0.8l-1.1,0.8v0.3
			c0,0-0.5,0.6-0.6,1.4c-0.2,0.8-2.2,0.8-2.2,0.8s-1.6-3.6-2.8-5.4c-1.2-1.9-2.6-2.5-2.6-2.5l-1.4-0.3c0,0-0.3,0.2-1.4,0.9
			c-1.1,0.8-10.3,8.9-10.3,8.9s-0.6,0.3-0.2,0.8s2,1.2,2,1.2l-2.8,0.5h-3.6l-10.6-7.6c0,0-0.3-0.8-1.4-0.6c-1.1,0.2-1.6,1.7-1.6,1.7
			v4.5c0,0-0.2-0.3,0,0.9c0.2,1.2,1.7,3.1,1.7,3.1s0.2,0.5,0.2,1.1s-1.4,2.3-1.4,2.3l-0.3,0.8L29,429l0.2,3.7l1.2,0.9
			c0,0,5.1-1.9,5.9-2.6c0.8-0.8,5-4.2,5-4.2s0.9-1.4,1.4-1.4s8.9,1.4,8.9,1.4v0.6l-0.9,1.6l2.2,2.3l1.9,3.1c0,0,0,0.6,0.5,1.4
			c0.5,0.8,2,1.1,3,0.9s2.6-1.7,2.6-1.7l2.8-5.4c0,0,4.8,0.8,8.6,0.9c3.7,0.2,8.1,0.2,10.3,0c2.2-0.2,2,0,2,0s-1.9,0.9-2.3,1.7
			s-0.8,1.7-0.8,1.7s-0.3,1.1,0.5,1.6c0.8,0.5,2.2,1.1,2.5,2c0.3,0.9,0.2,2.3,1.1,2.3c0.9,0,3.1-2.5,3.1-3.3c0-0.8,1.9-5.1,1.7-5.6
			c-0.2-0.5,6.7-1.1,8.9-1.7c2.2-0.6,8.2-2.3,8.2-2.3l4.5-0.8c0,0,0-0.2,0.5-0.8C112.7,424.8,112.2,423.7,112.2,423.7z"/>
	</g>
	<g id="walleye-50" transform="scale(1.10873187700716)">
		<path id="walleye_49_" class="st1" d="M116.7,241.1c0,0,0.6-1.5,0.2-2.1c-0.4-0.6-3.4-1.5-3.4-1.5l-5.1-1.1l-5.7-1.7l-6-2.8
			l-10.2-2.3l0.6-5.3h-1.1l-0.9-4.9l-1.9,0.6l-0.4-3.6l-2.8,0.6l-1.1-1.7l-1.1,1.3l-1.5,0.6l-0.2-1.9h-0.9L74,217l-1.7-1.3l-0.6,0.2
			l-0.2,1.7l-2.1-0.6l-1.1,1.9l-1.9-0.6l-0.6,1.9L64,219l-0.6,2.3l-1.5-0.2l-0.2,1.3l-1.7,0.4v1.1l-1.3,0.2v1.1l-1.5,1.1v0.4
			c0,0-0.6,0.9-0.9,1.9c-0.2,1.1-3,1.1-3,1.1s-2.1-4.9-3.8-7.4s-3.6-3.4-3.6-3.4l-1.9-0.4c0,0-0.4,0.2-1.9,1.3
			c-1.5,1.1-14,12.1-14,12.1s-0.9,0.4-0.2,1.1s2.8,1.7,2.8,1.7l-3.8,0.6h-4.9L7.4,224.7c0,0-0.4-1.1-1.9-0.9
			c-1.5,0.2-2.1,2.3-2.1,2.3v6.2c0,0-0.2-0.4,0,1.3c0.2,1.7,2.3,4.3,2.3,4.3s0.2,0.6,0.2,1.5c0,0.9-1.9,3.2-1.9,3.2l-0.4,1.1
			L3,248.3l0.2,5.1l1.7,1.3c0,0,7-2.6,8.1-3.6s6.8-5.7,6.8-5.7s1.3-1.9,1.9-1.9s12.1,1.9,12.1,1.9v0.9l-1.3,2.1l3,3.2l2.6,4.3
			c0,0,0,0.9,0.6,1.9c0.6,1.1,2.8,1.5,4,1.3s3.6-2.3,3.6-2.3l3.8-7.4c0,0,6.6,1.1,11.7,1.3c5.1,0.2,11.1,0.2,14,0c3-0.2,2.8,0,2.8,0
			s-2.6,1.3-3.2,2.3c-0.6,1.1-1.1,2.3-1.1,2.3s-0.4,1.5,0.6,2.1s3,1.5,3.4,2.8c0.4,1.3,0.2,3.2,1.5,3.2s4.3-3.4,4.3-4.5
			c0-1.1,2.6-7,2.3-7.7s9.1-1.5,12.1-2.3c3-0.9,11.3-3.2,11.3-3.2l6.2-1.1c0,0,0-0.2,0.6-1.1C117.4,242.6,116.7,241.1,116.7,241.1z"
			/>
	</g>
	<g id="walleye-53" transform="scale(0.9355595431647)">
		<path id="walleye_52_" class="st1" d="M212.5,186.3c0,0,0.5-1.3,0.2-1.8c-0.4-0.5-2.9-1.3-2.9-1.3l-4.3-0.9l-4.8-1.4l-5-2.3
			l-8.6-2l0.5-4.5h-0.9L186,168l-1.6,0.5l-0.4-3.1l-2.3,0.5l-0.9-1.4l-0.9,1.1l-1.3,0.5l-0.2-1.6h-0.7l-1.3,1.4l-1.4-1.1l-0.5,0.2
			l-0.2,1.4l-1.8-0.5l-0.9,1.6l-1.6-0.5l-0.5,1.6l-1.4-1.1l-0.5,2l-1.3-0.2l-0.2,1.1l-1.4,0.4v0.9l-1.1,0.2v0.9l-1.3,0.9v0.4
			c0,0-0.5,0.7-0.7,1.6c-0.2,0.9-2.5,0.9-2.5,0.9s-1.8-4.1-3.2-6.3c-1.4-2.2-3.1-2.9-3.1-2.9l-1.6-0.4c0,0-0.4,0.2-1.6,1.1
			c-1.3,0.9-11.8,10.2-11.8,10.2s-0.7,0.4-0.2,0.9c0.5,0.5,2.3,1.4,2.3,1.4l-3.2,0.5h-4.1l-12.2-8.8c0,0-0.4-0.9-1.6-0.7
			c-1.3,0.2-1.8,2-1.8,2v5.2c0,0-0.2-0.4,0,1.1c0.2,1.4,2,3.6,2,3.6s0.2,0.5,0.2,1.3c0,0.7-1.6,2.7-1.6,2.7l-0.4,0.9l-0.5,3.9
			l0.2,4.3l1.4,1.1c0,0,5.9-2.2,6.8-3.1s5.7-4.8,5.7-4.8s1.1-1.6,1.6-1.6s10.2,1.6,10.2,1.6v0.7l-1.1,1.8l2.5,2.7l2.2,3.6
			c0,0,0,0.7,0.5,1.6c0.5,0.9,2.3,1.3,3.4,1.1s3.1-2,3.1-2l3.2-6.3c0,0,5.6,0.9,9.9,1.1c4.3,0.2,9.3,0.2,11.8,0s2.3,0,2.3,0
			s-2.2,1.1-2.7,2c-0.5,0.9-0.9,2-0.9,2s-0.4,1.3,0.5,1.8c0.9,0.5,2.5,1.3,2.9,2.3s0.2,2.7,1.3,2.7s3.6-2.9,3.6-3.8
			c0-0.9,2.2-5.9,2-6.5c-0.2-0.5,7.7-1.3,10.2-2s9.5-2.7,9.5-2.7l5.2-0.9c0,0,0-0.2,0.5-0.9C213,187.5,212.5,186.3,212.5,186.3z"/>
	</g>
	<g id="walleye-59" transform="scale(1.24513068247679)">
		<path id="walleye_58_" class="st1" d="M262.1,421.2c0,0,0.7-1.7,0.2-2.4s-3.8-1.7-3.8-1.7l-5.7-1.2l-6.4-1.9l-6.7-3.1l-11.5-2.6
			l0.7-6h-1.2l-1-5.5l-2.1,0.7l-0.5-4.1l-3.1,0.7l-1.2-1.9l-1.2,1.4l-1.7,0.7l-0.2-2.1h-1l-1.7,1.9l-1.9-1.4l-0.7,0.2l-0.2,1.9
			l-2.4-0.7l-1.2,2.1l-2.1-0.7l-0.7,2.1l-1.9-1.4l-0.7,2.6l-1.7-0.2l-0.2,1.4l-1.9,0.5v1.2l-1.4,0.2v1.2l-1.7,1.2v0.5
			c0,0-0.7,1-1,2.1c-0.2,1.2-3.3,1.2-3.3,1.2s-2.4-5.5-4.3-8.4s-4.1-3.8-4.1-3.8l-2.1-0.5c0,0-0.5,0.2-2.1,1.4
			c-1.7,1.2-15.8,13.6-15.8,13.6s-1,0.5-0.2,1.2c0.7,0.7,3.1,1.9,3.1,1.9l-4.3,0.7h-5.5l-16.2-11.7c0,0-0.5-1.2-2.1-1
			c-1.7,0.2-2.4,2.6-2.4,2.6v6.9c0,0-0.2-0.5,0,1.4c0.2,1.9,2.6,4.8,2.6,4.8s0.2,0.7,0.2,1.7s-2.1,3.6-2.1,3.6l-0.5,1.2l-0.7,5.3
			l0.2,5.7l1.9,1.4c0,0,7.9-2.9,9.1-4.1c1.2-1.2,7.6-6.4,7.6-6.4s1.4-2.1,2.1-2.1c0.7,0,13.6,2.1,13.6,2.1v1l-1.4,2.4l3.3,3.6
			l2.9,4.8c0,0,0,1,0.7,2.1c0.7,1.2,3.1,1.7,4.5,1.4c1.4-0.2,4.1-2.6,4.1-2.6l4.3-8.4c0,0,7.4,1.2,13.1,1.4c5.7,0.2,12.4,0.2,15.8,0
			c3.3-0.2,3.1,0,3.1,0s-2.9,1.4-3.6,2.6c-0.7,1.2-1.2,2.6-1.2,2.6s-0.5,1.7,0.7,2.4c1.2,0.7,3.3,1.7,3.8,3.1
			c0.5,1.4,0.2,3.6,1.7,3.6c1.4,0,4.8-3.8,4.8-5s2.9-7.9,2.6-8.6c-0.2-0.7,10.3-1.7,13.6-2.6c3.3-1,12.7-3.6,12.7-3.6l6.9-1.2
			c0,0,0-0.2,0.7-1.2C262.8,422.9,262.1,421.2,262.1,421.2z"/>
	</g>
</g>
</svg>
