<?xml version="1.0" encoding="UTF-8" standalone="no"?>
<!-- Created with Inkscape (http://www.inkscape.org/) -->

<svg
   xmlns:dc="http://purl.org/dc/elements/1.1/"
   xmlns:cc="http://creativecommons.org/ns#"
   xmlns:rdf="http://www.w3.org/1999/02/22-rdf-syntax-ns#"
   xmlns:svg="http://www.w3.org/2000/svg"
   xmlns="http://www.w3.org/2000/svg"
   xmlns:sodipodi="http://sodipodi.sourceforge.net/DTD/sodipodi-0.dtd"
   xmlns:inkscape="http://www.inkscape.org/namespaces/inkscape"
   width="210mm"
   height="297mm"
   viewBox="0 0 744.09448819 1052.3622047"
   id="svg2"
   version="1.1"
   inkscape:version="0.91 r13725"
   sodipodi:docname="largemouth_bass.svg">
  <defs
     id="defs4" />
  <sodipodi:namedview
     id="base"
     pagecolor="#ffffff"
     bordercolor="#666666"
     borderopacity="1.0"
     inkscape:pageopacity="0.0"
     inkscape:pageshadow="2"
     inkscape:zoom="2.6072464"
     inkscape:cx="210"
     inkscape:cy="922.85714"
     inkscape:document-units="px"
     inkscape:current-layer="layer1"
     showgrid="false"
     inkscape:window-width="1680"
     inkscape:window-height="1001"
     inkscape:window-x="0"
     inkscape:window-y="1"
     inkscape:window-maximized="1" />
  <metadata
     id="metadata7">
    <rdf:RDF>
      <cc:Work
         rdf:about="">
        <dc:format>image/svg+xml</dc:format>
        <dc:type
           rdf:resource="http://purl.org/dc/dcmitype/StillImage" />
        <dc:title></dc:title>
      </cc:Work>
    </rdf:RDF>
  </metadata>
  <g
     inkscape:label="Layer 1"
     inkscape:groupmode="layer"
     id="layer1">
    <path
       style="fill:none;fill-rule:evenodd;stroke:#000000;stroke-width:1px;stroke-linecap:butt;stroke-linejoin:miter;stroke-opacity:1"
       d="m -84.380212,4.5133995 4.602557,-4.21901102 7.670929,-6.13674198 9.58866,-3.835464 19.177321,-10.7392995 c 0,0 15.341852,-4.986104 23.012782,-5.36965 7.67093,-0.383547 1.91773,-4.986104 1.91773,-4.986104 l 2.68483,0.383547 0.38355,-3.835465 2.68482,2.684825 4.2190103,-4.986103 0.76709,3.451918 4.60256,-6.136743 1.53419,-1.150639 1.5341800262923,0 -1.5341800262923,4.602557 5.36965,-2.684825 1.53418,1.917732 -1.53418,3.068371 4.60255,-0.767093 -0.38354,3.068372 2.6848197,0 0.7671,2.301278 3.06837,-0.767093 1.53418,1.917733 0.38355,0.767092 2.68482,0 1.53419,1.15064 c 0,0 8.43802,-8.054475 18.02668,-10.7393 9.58866,-2.684825 19.17732,1.534186 19.17732,1.534186 0,0 5.7532,2.684825 6.13674,8.054474 0.38355,5.36965 0.7671,8.054475 -0.76709,9.588661 -1.53418,1.534185 -8.82157,2.684825 -8.82157,2.684825 l -0.38354,2.684825 c 0,0 6.13674,2.6848245 15.34185,1.917732 9.20512,-0.767093 9.58866,-0.767093 9.58866,-0.767093 l 9.97221,-5.753196 c 0,0 12.657033,-7.670929 17.259593,-8.054475 4.60256,-0.383547 5.7532,0 5.7532,0 0,0 4.9861,5.753196 4.60255,9.205114 -0.38354,3.451918 -5.75319,8.8215675 -6.90383,11.8899395 -1.15064,3.06837098 0.76709,6.520289 0.76709,6.520289 0,0 4.60256,6.520286 4.60256,9.9722055 0,3.45192 -1.15064,7.67093 -3.06837,8.82157 -1.91774,1.15064 -6.52029,1.53418 -8.05448,1.15064 -1.53418,-0.38355 -22.245693,-11.5064 -22.245693,-11.5064 0,0 -11.50639,-2.6848195 -19.17732,-1.9177295 -7.67093,0.7670995 -7.28738,2.3012795 -7.28738,2.3012795 l 8.43802,2.68483 c 0,0 2.68482,1.15064 2.68482,2.68482 0,1.53419 -0.76709,9.20511 -3.06837,11.88994 -2.30128,2.68482 -5.7532,5.7532 -10.35575,5.7532 -4.60256,0 -11.88994,-3.45192 -11.88994,-3.45192 L 27.615337,25.992 26.081157,23.30717 c 0,0 -2.30128,1.53419 -12.27349,2.68483 -9.9721997,1.15064 -30.30016,-0.76709 -30.30016,-0.76709 0,0 7.2873803,1.91773 8.4380203,3.45191 1.15064,1.53419 1.15064,4.98611 1.15064,4.98611 0,0 0.38354,2.68482 1.15064,4.21901 0.76709,1.53418 0.76709,5.36965 -1.15064,4.9861 -1.91773,-0.38355 -10.3557603,-4.9861 -13.0405803,-8.43802 -2.68483,-3.45192 -5.36965,-7.28738 -5.36965,-7.28738 0,0 -17.25959,0.76709 -19.560868,-0.38355 -2.301278,-1.15064 -14.191217,-4.60256 -14.191217,-4.60256 0,0 -5.753196,-0.38354 -9.205114,-1.15063 -3.451918,-0.7671 -9.972207,-4.60256 -9.972207,-4.60256 l -6.520289,-5.7532 c 0,0 -1.917732,-0.38354 -2.301278,-1.9177295 -0.383547,-1.534186 2.684824,-4.219011 2.684824,-4.219011 z"
       id="path3347"
       inkscape:connector-curvature="0"
       sodipodi:nodetypes="cccccsccccccccccccccccccccccscssccsccscsscssscsccssscccscscssscscsccsc" />
  </g>
</svg>
