<?xml version="1.0" encoding="UTF-8" standalone="no"?>
<!-- Created with Inkscape (http://www.inkscape.org/) -->

<svg
   xmlns:dc="http://purl.org/dc/elements/1.1/"
   xmlns:cc="http://creativecommons.org/ns#"
   xmlns:rdf="http://www.w3.org/1999/02/22-rdf-syntax-ns#"
   xmlns:svg="http://www.w3.org/2000/svg"
   xmlns="http://www.w3.org/2000/svg"
   xmlns:sodipodi="http://sodipodi.sourceforge.net/DTD/sodipodi-0.dtd"
   xmlns:inkscape="http://www.inkscape.org/namespaces/inkscape"
   width="210mm"
   height="297mm"
   viewBox="0 0 744.09448819 1052.3622047"
   id="svg2"
   version="1.1"
   inkscape:version="0.91 r13725"
   sodipodi:docname="walleye.svg">
  <defs
     id="defs4" />
  <sodipodi:namedview
     id="base"
     pagecolor="#ffffff"
     bordercolor="#666666"
     borderopacity="1.0"
     inkscape:pageopacity="0.0"
     inkscape:pageshadow="2"
     inkscape:zoom="2.6072464"
     inkscape:cx="133.29072"
     inkscape:cy="984.22457"
     inkscape:document-units="px"
     inkscape:current-layer="layer1"
     showgrid="false"
     inkscape:window-width="1680"
     inkscape:window-height="1001"
     inkscape:window-x="0"
     inkscape:window-y="1"
     inkscape:window-maximized="1" />
  <metadata
     id="metadata7">
    <rdf:RDF>
      <cc:Work
         rdf:about="">
        <dc:format>image/svg+xml</dc:format>
        <dc:type
           rdf:resource="http://purl.org/dc/dcmitype/StillImage" />
        <dc:title></dc:title>
      </cc:Work>
    </rdf:RDF>
  </metadata>
  <g
     inkscape:label="Layer 1"
     inkscape:groupmode="layer"
     id="layer1">
    <path
       style="fill:none;fill-rule:evenodd;stroke:#000000;stroke-width:1px;stroke-linecap:butt;stroke-linejoin:miter;stroke-opacity:1"
       d="m -77.09283,4.1298534 c 0,0 -1.150639,-2.6848248 -0.383546,-3.83546413 0.767093,-1.1506392 6.136743,-2.68482487 6.136743,-2.68482487 l 9.205114,-1.9177321 10.355753,-3.0683713 10.7393,-4.986103 18.410228,-4.219011 -1.15064,-9.588661 1.917732,0 1.534186,-8.821567 3.451918,1.150639 0.767093,-6.520289 4.986103,1.150639 1.917732,-3.068371 1.9177321,2.301278 2.6848249,1.15064 0.3835464,-3.451918 1.5341857,0 L 0,-39.210892 l 3.0683713,-2.301278 1.1506393,0.383546 0.3835464,3.068371 3.8354641,-1.150639 1.9177319,3.451918 3.451918,-1.150639 1.150639,3.451917 3.068371,-2.301278 1.15064,4.21901 2.684825,-0.383546 0.383546,2.301279 3.068371,0.767092 0,1.917732 2.301279,0.383547 0,1.917732 2.684825,1.917732 0,0.767093 c 0,0 1.150639,1.534186 1.534185,3.451918 0.383547,1.917732 5.36965,1.917732 5.36965,1.917732 0,0 3.835464,-8.821568 6.903836,-13.424125 3.068371,-4.602557 6.520289,-6.136742 6.520289,-6.136742 l 3.451917,-0.767093 c 0,0 0.767093,0.383546 3.451918,2.301278 2.684825,1.917732 25.314064,21.862146 25.314064,21.862146 0,0 1.534185,0.767093 0.383546,1.917732 -1.150639,1.1506395 -4.986103,3.0683716 -4.986103,3.0683716 l 6.903835,1.1506392 8.821568,0 26.081158,-18.7937748 c 0,0 0.76709,-1.917732 3.45192,-1.534186 2.68482,0.383547 3.83546,4.219011 3.83546,4.219011 l 0,11.122846 c 0,0 0.38355,-0.767092 0,2.3012789 -0.38355,3.0683713 -4.21901,7.6709283 -4.21901,7.6709283 0,0 -0.38355,1.15063927 -0.38355,2.6848249 0,1.5341857 3.45192,5.7531963 3.45192,5.7531963 l 0.76709,1.917732 1.15064,8.4380206 -0.38354,9.205114 -3.06838,2.301279 c 0,0 -12.65703,-4.602557 -14.57476,-6.520289 -1.91773,-1.917733 -12.273484,-10.355754 -12.273484,-10.355754 0,0 -2.301279,-3.4519166 -3.451918,-3.4519166 -1.150639,0 -21.862146,3.4519166 -21.862146,3.4519166 l 0,1.534186 2.301279,3.835464 -5.36965,5.753196 -4.602557,7.670929 c 0,0 0,1.534185 -1.150639,3.451917 -1.150639,1.917732 -4.986104,2.684825 -7.287382,2.301279 -2.301279,-0.383547 -6.520289,-4.219011 -6.520289,-4.219011 L 42.957198,18.704617 c 0,0 -11.889938,1.917732 -21.095052,2.301278 -9.205114,0.383547 -19.9444139,0.383547 -25.3140637,0 -5.3696498,-0.383546 -4.9861034,0 -4.9861034,0 0,0 4.602557,2.301279 5.7531962,4.219011 1.1506392,1.917732 1.91773207,4.21901 1.91773207,4.21901 0,0 0.76709283,2.684825 -1.15063927,3.835465 -1.917732,1.150639 -5.3696498,2.684824 -6.1367426,4.986103 -0.7670928,2.301278 -0.3835464,5.753196 -2.6848253,5.753196 -2.301278,0 -7.670928,-6.136742 -7.670928,-8.054475 0,-1.917732 -4.602557,-12.657031 -4.21901,-13.80767 0.383546,-1.15064 -16.492496,-2.684825 -21.862146,-4.219011 -5.36965,-1.534186 -20.32796,-5.753196 -20.32796,-5.753196 L -75.94219,10.266596 c 0,0 0,-0.3835456 -1.150639,-1.9177316 -1.150639,-1.534186 -1e-6,-4.219011 -1e-6,-4.219011 z"
       id="path3447"
       inkscape:connector-curvature="0"
       sodipodi:nodetypes="csccccccccccccccccccccccccccccccccccscsccscsccccsccscscccccscscccccssccsscscssssssccsc" />
  </g>
</svg>
